;PTH Drill file created by EasyEDA 
M48
INCH,LZ,00.0000
;Holesize 1 = 0.028 INCH
T01C0.028
;Holesize 2 = 0.028 INCH
T02C0.028
;Holesize 3 = 0.035 INCH
T03C0.035
;Holesize 4 = 0.035 INCH
T04C0.035
;Holesize 5 = 0.035 INCH
T05C0.035
;Holesize 6 = 0.036 INCH
T06C0.036
;Holesize 7 = 0.040 INCH
T07C0.040
;Holesize 8 = 0.047 INCH
T08C0.047
%
G05
G90
T01
X+006113Y+003834
X+006113Y+004334
X+006113Y+004834
T02
X+004873Y+008415
X+003873Y+008415
T03
X+002063Y+012684
X+002063Y+011684
X+002063Y+010684
X+002063Y+009684
X+005063Y+009684
X+005063Y+010684
X+005063Y+011684
X+005063Y+012684
X+014863Y+003484
X+014863Y+004484
X+014863Y+000684
X+014863Y+001684
T04
X+007063Y+010284
X+007063Y+013284
X+008463Y+014084
X+011463Y+014084
X+011463Y+012484
X+008463Y+012484
X+009263Y+007084
X+006263Y+007084
X+007663Y+003884
X+010663Y+003884
X+001063Y+004284
X+004063Y+004284
X+004063Y+005684
X+001063Y+005684
T05
X+007063Y+001646
X+007063Y+000646
X+009063Y+001646
X+009063Y+000646
X+011063Y+001646
X+011063Y+000646
X+003063Y+001646
X+003063Y+000646
X+005063Y+001646
X+005063Y+000646
X+011101Y+007084
X+012101Y+007084
X+001063Y+001646
X+001063Y+000646
X+001263Y+014484
X+001263Y+015484
X+001263Y+016484
X+001263Y+017484
X+001263Y+018484
X+001263Y+019484
X+001263Y+020484
X+001263Y+021484
X+001263Y+022484
X+001263Y+023484
X+001263Y+024484
X+001263Y+025484
X+007263Y+025484
X+007263Y+024484
X+007263Y+023484
X+007263Y+022484
X+007263Y+021484
X+007263Y+020484
X+007263Y+019484
X+007263Y+018484
X+007263Y+017484
X+007263Y+016484
X+007263Y+015484
X+007263Y+014484
T06
X+008163Y+009484
X+009163Y+009484
T07
X+014863Y+021284
X+014863Y+020284
X+014863Y+019284
X+014863Y+018284
X+014863Y+017284
X+014863Y+013284
X+014863Y+014284
X+014863Y+015284
X+014863Y+009284
X+014863Y+010284
X+014863Y+011284
X+014863Y+006484
X+014863Y+007484
X+014863Y+026284
X+014863Y+025284
X+014863Y+024284
X+014863Y+023284
T08
X+008583Y+023599
X+011142Y+023599
X+011142Y+025370
X+008583Y+025370
M30
