  0
SECTION
  2
HEADER
  9
$ACADVER
  1
AC1014
  9
$HANDSEED
  5
FFFF
  9
$MEASUREMENT
 70
     1
  0
ENDSEC
  0
SECTION
  2
TABLES
  0
TABLE
  2
VPORT
  5
8
330
0
100
AcDbSymbolTable
 70
     4
  0
VPORT
  5
2E
330
8
100
AcDbSymbolTableRecord
100
AcDbViewportTableRecord
  2
*ACTIVE
 70
     0
 10
0.0
 20
0.0
 11
1.0
 21
1.0
 12
210.0
 22
148.5
 13
0.0
 23
0.0
 14
10.0
 24
10.0
 15
10.0
 25
10.0
 16
0.0
 26
0.0
 36
1.0
 17
0.0
 27
0.0
 37
0.0
 40
341.0
 41
1.24
 42
50.0
 43
0.0
 44
0.0
 50
0.0
 51
0.0
 71
     0
 72
   100
 73
     1
 74
     3
 75
     0
 76
     0
 77
     0
 78
     0
  0
ENDTAB
  0
TABLE
  2
LTYPE
  5
5
330
0
100
AcDbSymbolTable
 70
     1
  0
LTYPE
  5
14
330
5
100
AcDbSymbolTableRecord
100
AcDbLinetypeTableRecord
  2
BYBLOCK
 70
     0
  3

 72
    65
 73
     0
 40
0.0
  0
LTYPE
  5
15
330
5
100
AcDbSymbolTableRecord
100
AcDbLinetypeTableRecord
  2
BYLAYER
 70
     0
  3

 72
    65
 73
     0
 40
0.0
  0
LTYPE
  5
16
330
5
100
AcDbSymbolTableRecord
100
AcDbLinetypeTableRecord
  2
CONTINUOUS
 70
     0
  3
Solid line
 72
    65
 73
     0
 40
0.0
  0
ENDTAB
  0
TABLE
  2
LAYER
  5
2
100
AcDbSymbolTable
 70
2
  0
LAYER
  5
50
100
AcDbSymbolTableRecord
100
AcDbLayerTableRecord
  2
0
 70
0
  6
CONTINUOUS
  0
LAYER
  5
51
100
AcDbSymbolTableRecord
100
AcDbLayerTableRecord
  2
Layer_1
 70
0
  6
CONTINUOUS
  0
ENDTAB
  0
TABLE
  2
STYLE
  5
3
330
0
100
AcDbSymbolTable
 70
     1
  0
STYLE
  5
11
330
3
100
AcDbSymbolTableRecord
100
AcDbTextStyleTableRecord
  2
STANDARD
 70
     0
 40
0.0
 41
1.0
 50
0.0
 71
     0
 42
2.5
  3
txt
  4

  0
ENDTAB
  0
TABLE
  2
VIEW
  5
6
330
0
100
AcDbSymbolTable
 70
     0
  0
ENDTAB
  0
TABLE
  2
UCS
  5
7
330
0
100
AcDbSymbolTable
 70
     0
  0
ENDTAB
  0
TABLE
  2
APPID
  5
9
330
0
100
AcDbSymbolTable
 70
     2
  0
APPID
  5
12
330
9
100
AcDbSymbolTableRecord
100
AcDbRegAppTableRecord
  2
ACAD
 70
     0
  0
ENDTAB
  0
TABLE
  2
DIMSTYLE
  5
A
330
0
100
AcDbSymbolTable
 70
     1
  0
DIMSTYLE
105
27
330
A
100
AcDbSymbolTableRecord
100
AcDbDimStyleTableRecord
  2
ISO-25
 70
     0
  3

  4

  5

  6

  7

 40
1.0
 41
2.5
 42
0.625
 43
3.75
 44
1.25
 45
0.0
 46
0.0
 47
0.0
 48
0.0
140
2.5
141
2.5
142
0.0
143
0.03937007874016
144
1.0
145
0.0
146
1.0
147
0.625
 71
     0
 72
     0
 73
     0
 74
     0
 75
     0
 76
     0
 77
     1
 78
     8
170
     0
171
     3
172
     1
173
     0
174
     0
175
     0
176
     0
177
     0
178
     0
270
     2
271
     2
272
     2
273
     2
274
     3
340
11
275
     0
280
     0
281
     0
282
     0
283
     0
284
     8
285
     0
286
     0
287
     3
288
     0
  0
ENDTAB
  0
TABLE
  2
BLOCK_RECORD
  5
1
330
0
100
AcDbSymbolTable
 70
     1
  0
BLOCK_RECORD
  5
1F
330
1
100
AcDbSymbolTableRecord
100
AcDbBlockTableRecord
  2
*MODEL_SPACE
  0
BLOCK_RECORD
  5
1B
330
1
100
AcDbSymbolTableRecord
100
AcDbBlockTableRecord
  2
*PAPER_SPACE
  0
ENDTAB
  0
ENDSEC
  0
SECTION
  2
BLOCKS
  0
BLOCK
  5
20
330
1F
100
AcDbEntity
  8
0
100
AcDbBlockBegin
  2
*MODEL_SPACE
 70
     0
 10
0.0
 20
0.0
 30
0.0
  3
*MODEL_SPACE
  1

  0
ENDBLK
  5
21
330
1F
100
AcDbEntity
  8
0
100
AcDbBlockEnd
  0
BLOCK
  5
1C
330
1B
100
AcDbEntity
 67
     1
  8
0
100
AcDbBlockBegin
  2
*PAPER_SPACE
  1

  0
ENDBLK
  5
1D
330
1B
100
AcDbEntity
 67
     1
  8
0
100
AcDbBlockEnd
  0
ENDSEC
  0
SECTION
  2
ENTITIES
  0
LINE
  5
100
100
AcDbEntity
  8
Layer_1
 62
1
100
AcDbLine
 10
4.453974
 20
293.938877
 30
0.0
 11
168.453960
 21
293.938877
 31
0.0
  0
LINE
  5
101
100
AcDbEntity
  8
Layer_1
 62
1
100
AcDbLine
 10
168.453960
 20
293.938877
 30
0.0
 11
168.453960
 21
194.938877
 31
0.0
  0
LINE
  5
102
100
AcDbEntity
  8
Layer_1
 62
1
100
AcDbLine
 10
168.453960
 20
194.938877
 30
0.0
 11
4.453974
 21
194.938877
 31
0.0
  0
LINE
  5
103
100
AcDbEntity
  8
Layer_1
 62
1
100
AcDbLine
 10
4.453974
 20
194.938877
 30
0.0
 11
4.453974
 21
293.938877
 31
0.0
  0
LINE
  5
104
100
AcDbEntity
  8
Layer_1
 62
1
100
AcDbLine
 10
4.453974
 20
293.938877
 30
0.0
 11
4.453974
 21
293.938877
 31
0.0
  0
LINE
  5
105
100
AcDbEntity
  8
Layer_1
 62
1
100
AcDbLine
 10
37.453968
 20
275.438871
 30
0.0
 11
135.453969
 21
275.438871
 31
0.0
  0
LINE
  5
106
100
AcDbEntity
  8
Layer_1
 62
1
100
AcDbLine
 10
135.453969
 20
275.438871
 30
0.0
 11
135.453969
 21
234.438869
 31
0.0
  0
LINE
  5
107
100
AcDbEntity
  8
Layer_1
 62
1
100
AcDbLine
 10
135.453969
 20
234.438869
 30
0.0
 11
37.453968
 21
234.438869
 31
0.0
  0
LINE
  5
108
100
AcDbEntity
  8
Layer_1
 62
1
100
AcDbLine
 10
37.453968
 20
234.438869
 30
0.0
 11
37.453968
 21
275.438871
 31
0.0
  0
LINE
  5
109
100
AcDbEntity
  8
Layer_1
 62
1
100
AcDbLine
 10
37.453968
 20
275.438871
 30
0.0
 11
37.453968
 21
275.438871
 31
0.0
  0
SPLINE
  5
10a
100
AcDbEntity
  8
Layer_1
 62
1
100
AcDbSpline
 70
8
 71
3
 72
8
 73
4
 74
0
 40
0
 40
0
 40
0
 40
0
 40
1
 40
1
 40
1
 40
1
 10
11.253982
 20
289.138869
 30
0.0
 10
11.254519
 20
289.853760
 30
0.0
 10
10.873438
 20
290.514576
 30
0.0
 10
10.254414
 20
290.872176
 30
0.0
  0
SPLINE
  5
10b
100
AcDbEntity
  8
Layer_1
 62
1
100
AcDbSpline
 70
8
 71
3
 72
8
 73
4
 74
0
 40
0
 40
0
 40
0
 40
0
 40
1
 40
1
 40
1
 40
1
 10
10.254414
 20
290.872176
 30
0.0
 10
9.635390
 20
291.229776
 30
0.0
 10
8.872566
 20
291.229776
 30
0.0
 10
8.253542
 20
290.872176
 30
0.0
  0
SPLINE
  5
10c
100
AcDbEntity
  8
Layer_1
 62
1
100
AcDbSpline
 70
8
 71
3
 72
8
 73
4
 74
0
 40
0
 40
0
 40
0
 40
0
 40
1
 40
1
 40
1
 40
1
 10
8.253542
 20
290.872176
 30
0.0
 10
7.634518
 20
290.514576
 30
0.0
 10
7.253437
 20
289.853760
 30
0.0
 10
7.253974
 20
289.138869
 30
0.0
  0
SPLINE
  5
10d
100
AcDbEntity
  8
Layer_1
 62
1
100
AcDbSpline
 70
8
 71
3
 72
8
 73
4
 74
0
 40
0
 40
0
 40
0
 40
0
 40
1
 40
1
 40
1
 40
1
 10
7.253974
 20
289.138869
 30
0.0
 10
7.254804
 20
288.034884
 30
0.0
 10
8.149993
 20
287.140367
 30
0.0
 10
9.253978
 20
287.140367
 30
0.0
  0
SPLINE
  5
10e
100
AcDbEntity
  8
Layer_1
 62
1
100
AcDbSpline
 70
8
 71
3
 72
8
 73
4
 74
0
 40
0
 40
0
 40
0
 40
0
 40
1
 40
1
 40
1
 40
1
 10
9.253978
 20
287.140367
 30
0.0
 10
10.357963
 20
287.140367
 30
0.0
 10
11.253153
 20
288.034884
 30
0.0
 10
11.253982
 20
289.138869
 30
0.0
  0
LINE
  5
10f
100
AcDbEntity
  8
Layer_1
 62
1
100
AcDbLine
 10
11.253982
 20
289.138869
 30
0.0
 11
11.253982
 21
289.138869
 31
0.0
  0
SPLINE
  5
110
100
AcDbEntity
  8
Layer_1
 62
1
100
AcDbSpline
 70
8
 71
3
 72
8
 73
4
 74
0
 40
0
 40
0
 40
0
 40
0
 40
1
 40
1
 40
1
 40
1
 10
165.653977
 20
289.138869
 30
0.0
 10
165.655424
 20
289.854363
 30
0.0
 10
165.274544
 20
290.516126
 30
0.0
 10
164.655149
 20
290.874291
 30
0.0
  0
SPLINE
  5
111
100
AcDbEntity
  8
Layer_1
 62
1
100
AcDbSpline
 70
8
 71
3
 72
8
 73
4
 74
0
 40
0
 40
0
 40
0
 40
0
 40
1
 40
1
 40
1
 40
1
 10
164.655149
 20
290.874291
 30
0.0
 10
164.035753
 20
291.232457
 30
0.0
 10
163.272208
 20
291.232457
 30
0.0
 10
162.652813
 20
290.874291
 30
0.0
  0
SPLINE
  5
112
100
AcDbEntity
  8
Layer_1
 62
1
100
AcDbSpline
 70
8
 71
3
 72
8
 73
4
 74
0
 40
0
 40
0
 40
0
 40
0
 40
1
 40
1
 40
1
 40
1
 10
162.652813
 20
290.874291
 30
0.0
 10
162.033418
 20
290.516126
 30
0.0
 10
161.652537
 20
289.854363
 30
0.0
 10
161.653985
 20
289.138869
 30
0.0
  0
SPLINE
  5
113
100
AcDbEntity
  8
Layer_1
 62
1
100
AcDbSpline
 70
8
 71
3
 72
8
 73
4
 74
0
 40
0
 40
0
 40
0
 40
0
 40
1
 40
1
 40
1
 40
1
 10
161.653985
 20
289.138869
 30
0.0
 10
161.652537
 20
288.423376
 30
0.0
 10
162.033418
 20
287.761613
 30
0.0
 10
162.652813
 20
287.403447
 30
0.0
  0
SPLINE
  5
114
100
AcDbEntity
  8
Layer_1
 62
1
100
AcDbSpline
 70
8
 71
3
 72
8
 73
4
 74
0
 40
0
 40
0
 40
0
 40
0
 40
1
 40
1
 40
1
 40
1
 10
162.652813
 20
287.403447
 30
0.0
 10
163.272208
 20
287.045282
 30
0.0
 10
164.035753
 20
287.045282
 30
0.0
 10
164.655149
 20
287.403447
 30
0.0
  0
SPLINE
  5
115
100
AcDbEntity
  8
Layer_1
 62
1
100
AcDbSpline
 70
8
 71
3
 72
8
 73
4
 74
0
 40
0
 40
0
 40
0
 40
0
 40
1
 40
1
 40
1
 40
1
 10
164.655149
 20
287.403447
 30
0.0
 10
165.274544
 20
287.761613
 30
0.0
 10
165.655424
 20
288.423376
 30
0.0
 10
165.653977
 20
289.138869
 30
0.0
  0
LINE
  5
116
100
AcDbEntity
  8
Layer_1
 62
1
100
AcDbLine
 10
165.653977
 20
289.138869
 30
0.0
 11
165.653977
 21
289.138869
 31
0.0
  0
SPLINE
  5
117
100
AcDbEntity
  8
Layer_1
 62
1
100
AcDbSpline
 70
8
 71
3
 72
8
 73
4
 74
0
 40
0
 40
0
 40
0
 40
0
 40
1
 40
1
 40
1
 40
1
 10
11.253982
 20
199.738884
 30
0.0
 10
11.254519
 20
200.453775
 30
0.0
 10
10.873438
 20
201.114591
 30
0.0
 10
10.254414
 20
201.472191
 30
0.0
  0
SPLINE
  5
118
100
AcDbEntity
  8
Layer_1
 62
1
100
AcDbSpline
 70
8
 71
3
 72
8
 73
4
 74
0
 40
0
 40
0
 40
0
 40
0
 40
1
 40
1
 40
1
 40
1
 10
10.254414
 20
201.472191
 30
0.0
 10
9.635390
 20
201.829792
 30
0.0
 10
8.872566
 20
201.829792
 30
0.0
 10
8.253542
 20
201.472191
 30
0.0
  0
SPLINE
  5
119
100
AcDbEntity
  8
Layer_1
 62
1
100
AcDbSpline
 70
8
 71
3
 72
8
 73
4
 74
0
 40
0
 40
0
 40
0
 40
0
 40
1
 40
1
 40
1
 40
1
 10
8.253542
 20
201.472191
 30
0.0
 10
7.634518
 20
201.114591
 30
0.0
 10
7.253437
 20
200.453775
 30
0.0
 10
7.253974
 20
199.738884
 30
0.0
  0
SPLINE
  5
11a
100
AcDbEntity
  8
Layer_1
 62
1
100
AcDbSpline
 70
8
 71
3
 72
8
 73
4
 74
0
 40
0
 40
0
 40
0
 40
0
 40
1
 40
1
 40
1
 40
1
 10
7.253974
 20
199.738884
 30
0.0
 10
7.254804
 20
198.634900
 30
0.0
 10
8.149993
 20
197.740383
 30
0.0
 10
9.253978
 20
197.740383
 30
0.0
  0
SPLINE
  5
11b
100
AcDbEntity
  8
Layer_1
 62
1
100
AcDbSpline
 70
8
 71
3
 72
8
 73
4
 74
0
 40
0
 40
0
 40
0
 40
0
 40
1
 40
1
 40
1
 40
1
 10
9.253978
 20
197.740383
 30
0.0
 10
10.357963
 20
197.740383
 30
0.0
 10
11.253153
 20
198.634900
 30
0.0
 10
11.253982
 20
199.738884
 30
0.0
  0
LINE
  5
11c
100
AcDbEntity
  8
Layer_1
 62
1
100
AcDbLine
 10
11.253982
 20
199.738884
 30
0.0
 11
11.253982
 21
199.738884
 31
0.0
  0
SPLINE
  5
11d
100
AcDbEntity
  8
Layer_1
 62
1
100
AcDbSpline
 70
8
 71
3
 72
8
 73
4
 74
0
 40
0
 40
0
 40
0
 40
0
 40
1
 40
1
 40
1
 40
1
 10
165.653977
 20
199.738884
 30
0.0
 10
165.655424
 20
200.454378
 30
0.0
 10
165.274544
 20
201.116141
 30
0.0
 10
164.655149
 20
201.474306
 30
0.0
  0
SPLINE
  5
11e
100
AcDbEntity
  8
Layer_1
 62
1
100
AcDbSpline
 70
8
 71
3
 72
8
 73
4
 74
0
 40
0
 40
0
 40
0
 40
0
 40
1
 40
1
 40
1
 40
1
 10
164.655149
 20
201.474306
 30
0.0
 10
164.035753
 20
201.832472
 30
0.0
 10
163.272208
 20
201.832472
 30
0.0
 10
162.652813
 20
201.474306
 30
0.0
  0
SPLINE
  5
11f
100
AcDbEntity
  8
Layer_1
 62
1
100
AcDbSpline
 70
8
 71
3
 72
8
 73
4
 74
0
 40
0
 40
0
 40
0
 40
0
 40
1
 40
1
 40
1
 40
1
 10
162.652813
 20
201.474306
 30
0.0
 10
162.033418
 20
201.116141
 30
0.0
 10
161.652537
 20
200.454378
 30
0.0
 10
161.653985
 20
199.738884
 30
0.0
  0
SPLINE
  5
120
100
AcDbEntity
  8
Layer_1
 62
1
100
AcDbSpline
 70
8
 71
3
 72
8
 73
4
 74
0
 40
0
 40
0
 40
0
 40
0
 40
1
 40
1
 40
1
 40
1
 10
161.653985
 20
199.738884
 30
0.0
 10
161.652537
 20
199.023391
 30
0.0
 10
162.033418
 20
198.361628
 30
0.0
 10
162.652813
 20
198.003462
 30
0.0
  0
SPLINE
  5
121
100
AcDbEntity
  8
Layer_1
 62
1
100
AcDbSpline
 70
8
 71
3
 72
8
 73
4
 74
0
 40
0
 40
0
 40
0
 40
0
 40
1
 40
1
 40
1
 40
1
 10
162.652813
 20
198.003462
 30
0.0
 10
163.272208
 20
197.645297
 30
0.0
 10
164.035753
 20
197.645297
 30
0.0
 10
164.655149
 20
198.003462
 30
0.0
  0
SPLINE
  5
122
100
AcDbEntity
  8
Layer_1
 62
1
100
AcDbSpline
 70
8
 71
3
 72
8
 73
4
 74
0
 40
0
 40
0
 40
0
 40
0
 40
1
 40
1
 40
1
 40
1
 10
164.655149
 20
198.003462
 30
0.0
 10
165.274544
 20
198.361628
 30
0.0
 10
165.655424
 20
199.023391
 30
0.0
 10
165.653977
 20
199.738884
 30
0.0
  0
LINE
  5
123
100
AcDbEntity
  8
Layer_1
 62
1
100
AcDbLine
 10
165.653977
 20
199.738884
 30
0.0
 11
165.653977
 21
199.738884
 31
0.0
  0
SPLINE
  5
124
100
AcDbEntity
  8
Layer_1
 62
1
100
AcDbSpline
 70
8
 71
3
 72
8
 73
4
 74
0
 40
0
 40
0
 40
0
 40
0
 40
1
 40
1
 40
1
 40
1
 10
56.953971
 20
214.938894
 30
0.0
 10
56.955981
 20
217.798357
 30
0.0
 10
55.431629
 20
220.441470
 30
0.0
 10
52.955596
 20
221.871782
 30
0.0
  0
SPLINE
  5
125
100
AcDbEntity
  8
Layer_1
 62
1
100
AcDbSpline
 70
8
 71
3
 72
8
 73
4
 74
0
 40
0
 40
0
 40
0
 40
0
 40
1
 40
1
 40
1
 40
1
 10
52.955596
 20
221.871782
 30
0.0
 10
50.479563
 20
223.302094
 30
0.0
 10
47.428384
 20
223.302094
 30
0.0
 10
44.952350
 20
221.871782
 30
0.0
  0
SPLINE
  5
126
100
AcDbEntity
  8
Layer_1
 62
1
100
AcDbSpline
 70
8
 71
3
 72
8
 73
4
 74
0
 40
0
 40
0
 40
0
 40
0
 40
1
 40
1
 40
1
 40
1
 10
44.952350
 20
221.871782
 30
0.0
 10
42.476317
 20
220.441470
 30
0.0
 10
40.951965
 20
217.798357
 30
0.0
 10
40.953975
 20
214.938894
 30
0.0
  0
SPLINE
  5
127
100
AcDbEntity
  8
Layer_1
 62
1
100
AcDbSpline
 70
8
 71
3
 72
8
 73
4
 74
0
 40
0
 40
0
 40
0
 40
0
 40
1
 40
1
 40
1
 40
1
 10
40.953975
 20
214.938894
 30
0.0
 10
40.951965
 20
212.079430
 30
0.0
 10
42.476317
 20
209.436317
 30
0.0
 10
44.952350
 20
208.006005
 30
0.0
  0
SPLINE
  5
128
100
AcDbEntity
  8
Layer_1
 62
1
100
AcDbSpline
 70
8
 71
3
 72
8
 73
4
 74
0
 40
0
 40
0
 40
0
 40
0
 40
1
 40
1
 40
1
 40
1
 10
44.952350
 20
208.006005
 30
0.0
 10
47.428384
 20
206.575693
 30
0.0
 10
50.479563
 20
206.575693
 30
0.0
 10
52.955596
 20
208.006005
 30
0.0
  0
SPLINE
  5
129
100
AcDbEntity
  8
Layer_1
 62
1
100
AcDbSpline
 70
8
 71
3
 72
8
 73
4
 74
0
 40
0
 40
0
 40
0
 40
0
 40
1
 40
1
 40
1
 40
1
 10
52.955596
 20
208.006005
 30
0.0
 10
55.431629
 20
209.436317
 30
0.0
 10
56.955981
 20
212.079430
 30
0.0
 10
56.953971
 20
214.938894
 30
0.0
  0
LINE
  5
12a
100
AcDbEntity
  8
Layer_1
 62
1
100
AcDbLine
 10
56.953971
 20
214.938894
 30
0.0
 11
56.953971
 21
214.938894
 31
0.0
  0
SPLINE
  5
12b
100
AcDbEntity
  8
Layer_1
 62
1
100
AcDbSpline
 70
8
 71
3
 72
8
 73
4
 74
0
 40
0
 40
0
 40
0
 40
0
 40
1
 40
1
 40
1
 40
1
 10
127.953970
 20
214.938894
 30
0.0
 10
127.956815
 20
216.369847
 30
0.0
 10
127.195043
 20
217.693321
 30
0.0
 10
125.956273
 20
218.409620
 30
0.0
  0
SPLINE
  5
12c
100
AcDbEntity
  8
Layer_1
 62
1
100
AcDbSpline
 70
8
 71
3
 72
8
 73
4
 74
0
 40
0
 40
0
 40
0
 40
0
 40
1
 40
1
 40
1
 40
1
 10
125.956273
 20
218.409620
 30
0.0
 10
124.717503
 20
219.125919
 30
0.0
 10
123.190454
 20
219.125919
 30
0.0
 10
121.951684
 20
218.409620
 30
0.0
  0
SPLINE
  5
12d
100
AcDbEntity
  8
Layer_1
 62
1
100
AcDbSpline
 70
8
 71
3
 72
8
 73
4
 74
0
 40
0
 40
0
 40
0
 40
0
 40
1
 40
1
 40
1
 40
1
 10
121.951684
 20
218.409620
 30
0.0
 10
120.712914
 20
217.693321
 30
0.0
 10
119.951142
 20
216.369847
 30
0.0
 10
119.953986
 20
214.938894
 30
0.0
  0
SPLINE
  5
12e
100
AcDbEntity
  8
Layer_1
 62
1
100
AcDbSpline
 70
8
 71
3
 72
8
 73
4
 74
0
 40
0
 40
0
 40
0
 40
0
 40
1
 40
1
 40
1
 40
1
 10
119.953986
 20
214.938894
 30
0.0
 10
119.951142
 20
213.507940
 30
0.0
 10
120.712914
 20
212.184466
 30
0.0
 10
121.951684
 20
211.468167
 30
0.0
  0
SPLINE
  5
12f
100
AcDbEntity
  8
Layer_1
 62
1
100
AcDbSpline
 70
8
 71
3
 72
8
 73
4
 74
0
 40
0
 40
0
 40
0
 40
0
 40
1
 40
1
 40
1
 40
1
 10
121.951684
 20
211.468167
 30
0.0
 10
123.190454
 20
210.751868
 30
0.0
 10
124.717503
 20
210.751868
 30
0.0
 10
125.956273
 20
211.468167
 30
0.0
  0
SPLINE
  5
130
100
AcDbEntity
  8
Layer_1
 62
1
100
AcDbSpline
 70
8
 71
3
 72
8
 73
4
 74
0
 40
0
 40
0
 40
0
 40
0
 40
1
 40
1
 40
1
 40
1
 10
125.956273
 20
211.468167
 30
0.0
 10
127.195043
 20
212.184466
 30
0.0
 10
127.956815
 20
213.507940
 30
0.0
 10
127.953970
 20
214.938894
 30
0.0
  0
LINE
  5
131
100
AcDbEntity
  8
Layer_1
 62
1
100
AcDbLine
 10
127.953970
 20
214.938894
 30
0.0
 11
127.953970
 21
214.938894
 31
0.0
  0
LINE
  5
132
100
AcDbEntity
  8
Layer_1
 62
1
100
AcDbLine
 10
4.535573
 20
92.781748
 30
0.0
 11
146.535575
 21
92.781748
 31
0.0
  0
LINE
  5
133
100
AcDbEntity
  8
Layer_1
 62
1
100
AcDbLine
 10
146.535575
 20
92.781748
 30
0.0
 11
146.535575
 21
52.781743
 31
0.0
  0
LINE
  5
134
100
AcDbEntity
  8
Layer_1
 62
1
100
AcDbLine
 10
146.535575
 20
52.781743
 30
0.0
 11
4.535573
 21
52.781743
 31
0.0
  0
LINE
  5
135
100
AcDbEntity
  8
Layer_1
 62
1
100
AcDbLine
 10
4.535573
 20
52.781743
 30
0.0
 11
4.535573
 21
92.781748
 31
0.0
  0
LINE
  5
136
100
AcDbEntity
  8
Layer_1
 62
1
100
AcDbLine
 10
4.535573
 20
92.781748
 30
0.0
 11
4.535573
 21
92.781748
 31
0.0
  0
SPLINE
  5
137
100
AcDbEntity
  8
Layer_1
 62
1
100
AcDbSpline
 70
8
 71
3
 72
8
 73
4
 74
0
 40
0
 40
0
 40
0
 40
0
 40
1
 40
1
 40
1
 40
1
 10
41.703981
 20
227.438883
 30
0.0
 10
41.703981
 20
228.064099
 30
0.0
 10
41.370432
 20
228.641822
 30
0.0
 10
40.828979
 20
228.954430
 30
0.0
  0
SPLINE
  5
138
100
AcDbEntity
  8
Layer_1
 62
1
100
AcDbSpline
 70
8
 71
3
 72
8
 73
4
 74
0
 40
0
 40
0
 40
0
 40
0
 40
1
 40
1
 40
1
 40
1
 10
40.828979
 20
228.954430
 30
0.0
 10
40.287526
 20
229.267038
 30
0.0
 10
39.620428
 20
229.267038
 30
0.0
 10
39.078975
 20
228.954430
 30
0.0
  0
SPLINE
  5
139
100
AcDbEntity
  8
Layer_1
 62
1
100
AcDbSpline
 70
8
 71
3
 72
8
 73
4
 74
0
 40
0
 40
0
 40
0
 40
0
 40
1
 40
1
 40
1
 40
1
 10
39.078975
 20
228.954430
 30
0.0
 10
38.537522
 20
228.641822
 30
0.0
 10
38.203973
 20
228.064099
 30
0.0
 10
38.203973
 20
227.438883
 30
0.0
  0
SPLINE
  5
13a
100
AcDbEntity
  8
Layer_1
 62
1
100
AcDbSpline
 70
8
 71
3
 72
8
 73
4
 74
0
 40
0
 40
0
 40
0
 40
0
 40
1
 40
1
 40
1
 40
1
 10
38.203973
 20
227.438883
 30
0.0
 10
38.203973
 20
226.813667
 30
0.0
 10
38.537522
 20
226.235943
 30
0.0
 10
39.078975
 20
225.923335
 30
0.0
  0
SPLINE
  5
13b
100
AcDbEntity
  8
Layer_1
 62
1
100
AcDbSpline
 70
8
 71
3
 72
8
 73
4
 74
0
 40
0
 40
0
 40
0
 40
0
 40
1
 40
1
 40
1
 40
1
 10
39.078975
 20
225.923335
 30
0.0
 10
39.620428
 20
225.610727
 30
0.0
 10
40.287526
 20
225.610727
 30
0.0
 10
40.828979
 20
225.923335
 30
0.0
  0
SPLINE
  5
13c
100
AcDbEntity
  8
Layer_1
 62
1
100
AcDbSpline
 70
8
 71
3
 72
8
 73
4
 74
0
 40
0
 40
0
 40
0
 40
0
 40
1
 40
1
 40
1
 40
1
 10
40.828979
 20
225.923335
 30
0.0
 10
41.370432
 20
226.235943
 30
0.0
 10
41.703981
 20
226.813667
 30
0.0
 10
41.703981
 20
227.438883
 30
0.0
  0
LINE
  5
13d
100
AcDbEntity
  8
Layer_1
 62
1
100
AcDbLine
 10
41.703981
 20
227.438883
 30
0.0
 11
41.703981
 21
227.438883
 31
0.0
  0
SPLINE
  5
13e
100
AcDbEntity
  8
Layer_1
 62
1
100
AcDbSpline
 70
8
 71
3
 72
8
 73
4
 74
0
 40
0
 40
0
 40
0
 40
0
 40
1
 40
1
 40
1
 40
1
 10
41.703981
 20
282.438886
 30
0.0
 10
41.703981
 20
283.064102
 30
0.0
 10
41.370432
 20
283.641825
 30
0.0
 10
40.828979
 20
283.954433
 30
0.0
  0
SPLINE
  5
13f
100
AcDbEntity
  8
Layer_1
 62
1
100
AcDbSpline
 70
8
 71
3
 72
8
 73
4
 74
0
 40
0
 40
0
 40
0
 40
0
 40
1
 40
1
 40
1
 40
1
 10
40.828979
 20
283.954433
 30
0.0
 10
40.287526
 20
284.267041
 30
0.0
 10
39.620428
 20
284.267041
 30
0.0
 10
39.078975
 20
283.954433
 30
0.0
  0
SPLINE
  5
140
100
AcDbEntity
  8
Layer_1
 62
1
100
AcDbSpline
 70
8
 71
3
 72
8
 73
4
 74
0
 40
0
 40
0
 40
0
 40
0
 40
1
 40
1
 40
1
 40
1
 10
39.078975
 20
283.954433
 30
0.0
 10
38.537522
 20
283.641825
 30
0.0
 10
38.203973
 20
283.064102
 30
0.0
 10
38.203973
 20
282.438886
 30
0.0
  0
SPLINE
  5
141
100
AcDbEntity
  8
Layer_1
 62
1
100
AcDbSpline
 70
8
 71
3
 72
8
 73
4
 74
0
 40
0
 40
0
 40
0
 40
0
 40
1
 40
1
 40
1
 40
1
 10
38.203973
 20
282.438886
 30
0.0
 10
38.203973
 20
281.813670
 30
0.0
 10
38.537522
 20
281.235946
 30
0.0
 10
39.078975
 20
280.923338
 30
0.0
  0
SPLINE
  5
142
100
AcDbEntity
  8
Layer_1
 62
1
100
AcDbSpline
 70
8
 71
3
 72
8
 73
4
 74
0
 40
0
 40
0
 40
0
 40
0
 40
1
 40
1
 40
1
 40
1
 10
39.078975
 20
280.923338
 30
0.0
 10
39.620428
 20
280.610730
 30
0.0
 10
40.287526
 20
280.610730
 30
0.0
 10
40.828979
 20
280.923338
 30
0.0
  0
SPLINE
  5
143
100
AcDbEntity
  8
Layer_1
 62
1
100
AcDbSpline
 70
8
 71
3
 72
8
 73
4
 74
0
 40
0
 40
0
 40
0
 40
0
 40
1
 40
1
 40
1
 40
1
 10
40.828979
 20
280.923338
 30
0.0
 10
41.370432
 20
281.235946
 30
0.0
 10
41.703981
 20
281.813670
 30
0.0
 10
41.703981
 20
282.438886
 30
0.0
  0
LINE
  5
144
100
AcDbEntity
  8
Layer_1
 62
1
100
AcDbLine
 10
41.703981
 20
282.438886
 30
0.0
 11
41.703981
 21
282.438886
 31
0.0
  0
SPLINE
  5
145
100
AcDbEntity
  8
Layer_1
 62
1
100
AcDbSpline
 70
8
 71
3
 72
8
 73
4
 74
0
 40
0
 40
0
 40
0
 40
0
 40
1
 40
1
 40
1
 40
1
 10
134.703964
 20
227.438883
 30
0.0
 10
134.706143
 20
228.065543
 30
0.0
 10
134.373075
 20
228.645537
 30
0.0
 10
133.830731
 20
228.959498
 30
0.0
  0
SPLINE
  5
146
100
AcDbEntity
  8
Layer_1
 62
1
100
AcDbSpline
 70
8
 71
3
 72
8
 73
4
 74
0
 40
0
 40
0
 40
0
 40
0
 40
1
 40
1
 40
1
 40
1
 10
133.830731
 20
228.959498
 30
0.0
 10
133.288387
 20
229.273459
 30
0.0
 10
132.619562
 20
229.273459
 30
0.0
 10
132.077218
 20
228.959498
 30
0.0
  0
SPLINE
  5
147
100
AcDbEntity
  8
Layer_1
 62
1
100
AcDbSpline
 70
8
 71
3
 72
8
 73
4
 74
0
 40
0
 40
0
 40
0
 40
0
 40
1
 40
1
 40
1
 40
1
 10
132.077218
 20
228.959498
 30
0.0
 10
131.534874
 20
228.645537
 30
0.0
 10
131.201806
 20
228.065543
 30
0.0
 10
131.203985
 20
227.438883
 30
0.0
  0
SPLINE
  5
148
100
AcDbEntity
  8
Layer_1
 62
1
100
AcDbSpline
 70
8
 71
3
 72
8
 73
4
 74
0
 40
0
 40
0
 40
0
 40
0
 40
1
 40
1
 40
1
 40
1
 10
131.203985
 20
227.438883
 30
0.0
 10
131.201806
 20
226.812222
 30
0.0
 10
131.534874
 20
226.232229
 30
0.0
 10
132.077218
 20
225.918267
 30
0.0
  0
SPLINE
  5
149
100
AcDbEntity
  8
Layer_1
 62
1
100
AcDbSpline
 70
8
 71
3
 72
8
 73
4
 74
0
 40
0
 40
0
 40
0
 40
0
 40
1
 40
1
 40
1
 40
1
 10
132.077218
 20
225.918267
 30
0.0
 10
132.619562
 20
225.604306
 30
0.0
 10
133.288387
 20
225.604306
 30
0.0
 10
133.830731
 20
225.918267
 30
0.0
  0
SPLINE
  5
14a
100
AcDbEntity
  8
Layer_1
 62
1
100
AcDbSpline
 70
8
 71
3
 72
8
 73
4
 74
0
 40
0
 40
0
 40
0
 40
0
 40
1
 40
1
 40
1
 40
1
 10
133.830731
 20
225.918267
 30
0.0
 10
134.373075
 20
226.232229
 30
0.0
 10
134.706143
 20
226.812222
 30
0.0
 10
134.703964
 20
227.438883
 30
0.0
  0
LINE
  5
14b
100
AcDbEntity
  8
Layer_1
 62
1
100
AcDbLine
 10
134.703964
 20
227.438883
 30
0.0
 11
134.703964
 21
227.438883
 31
0.0
  0
SPLINE
  5
14c
100
AcDbEntity
  8
Layer_1
 62
1
100
AcDbSpline
 70
8
 71
3
 72
8
 73
4
 74
0
 40
0
 40
0
 40
0
 40
0
 40
1
 40
1
 40
1
 40
1
 10
134.703964
 20
282.438886
 30
0.0
 10
134.706143
 20
283.065546
 30
0.0
 10
134.373075
 20
283.645540
 30
0.0
 10
133.830731
 20
283.959501
 30
0.0
  0
SPLINE
  5
14d
100
AcDbEntity
  8
Layer_1
 62
1
100
AcDbSpline
 70
8
 71
3
 72
8
 73
4
 74
0
 40
0
 40
0
 40
0
 40
0
 40
1
 40
1
 40
1
 40
1
 10
133.830731
 20
283.959501
 30
0.0
 10
133.288387
 20
284.273462
 30
0.0
 10
132.619562
 20
284.273462
 30
0.0
 10
132.077218
 20
283.959501
 30
0.0
  0
SPLINE
  5
14e
100
AcDbEntity
  8
Layer_1
 62
1
100
AcDbSpline
 70
8
 71
3
 72
8
 73
4
 74
0
 40
0
 40
0
 40
0
 40
0
 40
1
 40
1
 40
1
 40
1
 10
132.077218
 20
283.959501
 30
0.0
 10
131.534874
 20
283.645540
 30
0.0
 10
131.201806
 20
283.065546
 30
0.0
 10
131.203985
 20
282.438886
 30
0.0
  0
SPLINE
  5
14f
100
AcDbEntity
  8
Layer_1
 62
1
100
AcDbSpline
 70
8
 71
3
 72
8
 73
4
 74
0
 40
0
 40
0
 40
0
 40
0
 40
1
 40
1
 40
1
 40
1
 10
131.203985
 20
282.438886
 30
0.0
 10
131.201806
 20
281.812225
 30
0.0
 10
131.534874
 20
281.232232
 30
0.0
 10
132.077218
 20
280.918270
 30
0.0
  0
SPLINE
  5
150
100
AcDbEntity
  8
Layer_1
 62
1
100
AcDbSpline
 70
8
 71
3
 72
8
 73
4
 74
0
 40
0
 40
0
 40
0
 40
0
 40
1
 40
1
 40
1
 40
1
 10
132.077218
 20
280.918270
 30
0.0
 10
132.619562
 20
280.604309
 30
0.0
 10
133.288387
 20
280.604309
 30
0.0
 10
133.830731
 20
280.918270
 30
0.0
  0
SPLINE
  5
151
100
AcDbEntity
  8
Layer_1
 62
1
100
AcDbSpline
 70
8
 71
3
 72
8
 73
4
 74
0
 40
0
 40
0
 40
0
 40
0
 40
1
 40
1
 40
1
 40
1
 10
133.830731
 20
280.918270
 30
0.0
 10
134.373075
 20
281.232232
 30
0.0
 10
134.706143
 20
281.812225
 30
0.0
 10
134.703964
 20
282.438886
 30
0.0
  0
LINE
  5
152
100
AcDbEntity
  8
Layer_1
 62
1
100
AcDbLine
 10
134.703964
 20
282.438886
 30
0.0
 11
134.703964
 21
282.438886
 31
0.0
  0
SPLINE
  5
153
100
AcDbEntity
  8
Layer_1
 62
7
100
AcDbSpline
 70
8
 71
3
 72
8
 73
4
 74
0
 40
0
 40
0
 40
0
 40
0
 40
1
 40
1
 40
1
 40
1
 10
76.797515
 20
282.629874
 30
0.0
 10
76.606784
 20
283.078096
 30
0.0
 10
76.568639
 20
283.574000
 30
0.0
 10
76.568639
 20
283.984078
 30
0.0
  0
SPLINE
  5
154
100
AcDbEntity
  8
Layer_1
 62
7
100
AcDbSpline
 70
8
 71
3
 72
8
 73
4
 74
0
 40
0
 40
0
 40
0
 40
0
 40
1
 40
1
 40
1
 40
1
 10
76.568639
 20
283.984078
 30
0.0
 10
76.568639
 20
284.260638
 30
0.0
 10
76.616320
 20
284.756545
 30
0.0
 10
76.768906
 20
285.166620
 30
0.0
  0
SPLINE
  5
155
100
AcDbEntity
  8
Layer_1
 62
7
100
AcDbSpline
 70
8
 71
3
 72
8
 73
4
 74
0
 40
0
 40
0
 40
0
 40
0
 40
1
 40
1
 40
1
 40
1
 10
76.768906
 20
285.166620
 30
0.0
 10
76.931029
 20
285.576694
 30
0.0
 10
77.312495
 20
286.005844
 30
0.0
 10
77.922840
 20
286.034453
 30
0.0
  0
LINE
  5
156
100
AcDbEntity
  8
Layer_1
 62
7
100
AcDbLine
 10
77.922840
 20
286.034453
 30
0.0
 11
77.970524
 21
286.034453
 31
0.0
  0
SPLINE
  5
157
100
AcDbEntity
  8
Layer_1
 62
7
100
AcDbSpline
 70
8
 71
3
 72
8
 73
4
 74
0
 40
0
 40
0
 40
0
 40
0
 40
1
 40
1
 40
1
 40
1
 10
77.970524
 20
286.034453
 30
0.0
 10
78.981407
 20
286.024914
 30
0.0
 10
79.200750
 20
285.138011
 30
0.0
 10
79.200750
 20
285.099863
 30
0.0
  0
SPLINE
  5
158
100
AcDbEntity
  8
Layer_1
 62
7
100
AcDbSpline
 70
8
 71
3
 72
8
 73
4
 74
0
 40
0
 40
0
 40
0
 40
0
 40
1
 40
1
 40
1
 40
1
 10
79.200750
 20
285.099863
 30
0.0
 10
79.229359
 20
284.956813
 30
0.0
 10
79.143530
 20
284.823302
 30
0.0
 10
79.000480
 20
284.785154
 30
0.0
  0
SPLINE
  5
159
100
AcDbEntity
  8
Layer_1
 62
7
100
AcDbSpline
 70
8
 71
3
 72
8
 73
4
 74
0
 40
0
 40
0
 40
0
 40
0
 40
1
 40
1
 40
1
 40
1
 10
79.000480
 20
284.785154
 30
0.0
 10
78.857430
 20
284.756545
 30
0.0
 10
78.714380
 20
284.823302
 30
0.0
 10
78.695307
 20
284.928204
 30
0.0
  0
SPLINE
  5
15a
100
AcDbEntity
  8
Layer_1
 62
7
100
AcDbSpline
 70
8
 71
3
 72
8
 73
4
 74
0
 40
0
 40
0
 40
0
 40
0
 40
1
 40
1
 40
1
 40
1
 10
78.695307
 20
284.928204
 30
0.0
 10
78.657162
 20
285.042642
 30
0.0
 10
78.609478
 20
285.176156
 30
0.0
 10
78.552257
 20
285.242913
 30
0.0
  0
LINE
  5
15b
100
AcDbEntity
  8
Layer_1
 62
7
100
AcDbLine
 10
78.552257
 20
285.242913
 30
0.0
 11
78.552257
 21
285.233374
 31
0.0
  0
SPLINE
  5
15c
100
AcDbEntity
  8
Layer_1
 62
7
100
AcDbSpline
 70
8
 71
3
 72
8
 73
4
 74
0
 40
0
 40
0
 40
0
 40
0
 40
1
 40
1
 40
1
 40
1
 10
78.552257
 20
285.233374
 30
0.0
 10
78.447355
 20
285.366887
 30
0.0
 10
78.313842
 20
285.490862
 30
0.0
 10
77.970524
 20
285.490862
 30
0.0
  0
SPLINE
  5
15d
100
AcDbEntity
  8
Layer_1
 62
7
100
AcDbSpline
 70
8
 71
3
 72
8
 73
4
 74
0
 40
0
 40
0
 40
0
 40
0
 40
1
 40
1
 40
1
 40
1
 10
77.970524
 20
285.490862
 30
0.0
 10
77.579522
 20
285.481323
 30
0.0
 10
77.436472
 20
285.309667
 30
0.0
 10
77.264813
 20
284.956810
 30
0.0
  0
SPLINE
  5
15e
100
AcDbEntity
  8
Layer_1
 62
7
100
AcDbSpline
 70
8
 71
3
 72
8
 73
4
 74
0
 40
0
 40
0
 40
0
 40
0
 40
1
 40
1
 40
1
 40
1
 10
77.264813
 20
284.956810
 30
0.0
 10
77.131299
 20
284.642101
 30
0.0
 10
77.102688
 20
284.232027
 30
0.0
 10
77.102688
 20
283.984075
 30
0.0
  0
SPLINE
  5
15f
100
AcDbEntity
  8
Layer_1
 62
7
100
AcDbSpline
 70
8
 71
3
 72
8
 73
4
 74
0
 40
0
 40
0
 40
0
 40
0
 40
1
 40
1
 40
1
 40
1
 10
77.102688
 20
283.984075
 30
0.0
 10
77.102688
 20
283.612145
 30
0.0
 10
77.150372
 20
283.154387
 30
0.0
 10
77.283886
 20
282.839678
 30
0.0
  0
SPLINE
  5
160
100
AcDbEntity
  8
Layer_1
 62
7
100
AcDbSpline
 70
8
 71
3
 72
8
 73
4
 74
0
 40
0
 40
0
 40
0
 40
0
 40
1
 40
1
 40
1
 40
1
 10
77.283886
 20
282.839678
 30
0.0
 10
77.455545
 20
282.486821
 30
0.0
 10
77.598595
 20
282.334235
 30
0.0
 10
77.970524
 20
282.324698
 30
0.0
  0
SPLINE
  5
161
100
AcDbEntity
  8
Layer_1
 62
7
100
AcDbSpline
 70
8
 71
3
 72
8
 73
4
 74
0
 40
0
 40
0
 40
0
 40
0
 40
1
 40
1
 40
1
 40
1
 10
77.970524
 20
282.324698
 30
0.0
 10
78.590405
 20
282.305620
 30
0.0
 10
78.723919
 20
282.801530
 30
0.0
 10
78.752528
 20
282.944580
 30
0.0
  0
LINE
  5
162
100
AcDbEntity
  8
Layer_1
 62
7
100
AcDbLine
 10
78.752528
 20
282.944580
 30
0.0
 11
78.742989
 21
282.925502
 31
0.0
  0
SPLINE
  5
163
100
AcDbEntity
  8
Layer_1
 62
7
100
AcDbSpline
 70
8
 71
3
 72
8
 73
4
 74
0
 40
0
 40
0
 40
0
 40
0
 40
1
 40
1
 40
1
 40
1
 10
78.742989
 20
282.925502
 30
0.0
 10
78.752528
 20
282.954110
 30
0.0
 10
78.762067
 20
282.982722
 30
0.0
 10
78.762067
 20
282.992258
 30
0.0
  0
SPLINE
  5
164
100
AcDbEntity
  8
Layer_1
 62
7
100
AcDbSpline
 70
8
 71
3
 72
8
 73
4
 74
0
 40
0
 40
0
 40
0
 40
0
 40
1
 40
1
 40
1
 40
1
 10
78.762067
 20
282.992258
 30
0.0
 10
78.790676
 20
283.144845
 30
0.0
 10
78.914653
 20
283.249747
 30
0.0
 10
79.057703
 20
283.230674
 30
0.0
  0
SPLINE
  5
165
100
AcDbEntity
  8
Layer_1
 62
7
100
AcDbSpline
 70
8
 71
3
 72
8
 73
4
 74
0
 40
0
 40
0
 40
0
 40
0
 40
1
 40
1
 40
1
 40
1
 10
79.057703
 20
283.230674
 30
0.0
 10
79.200753
 20
283.211596
 30
0.0
 10
79.305655
 20
283.087624
 30
0.0
 10
79.286583
 20
282.935038
 30
0.0
  0
SPLINE
  5
166
100
AcDbEntity
  8
Layer_1
 62
7
100
AcDbSpline
 70
8
 71
3
 72
8
 73
4
 74
0
 40
0
 40
0
 40
0
 40
0
 40
1
 40
1
 40
1
 40
1
 10
79.286583
 20
282.935038
 30
0.0
 10
79.286583
 20
282.915960
 30
0.0
 10
79.143533
 20
281.809713
 30
0.0
 10
77.970527
 20
281.790641
 30
0.0
  0
SPLINE
  5
167
100
AcDbEntity
  8
Layer_1
 62
7
100
AcDbSpline
 70
8
 71
3
 72
8
 73
4
 74
0
 40
0
 40
0
 40
0
 40
0
 40
1
 40
1
 40
1
 40
1
 10
77.970527
 20
281.790641
 30
0.0
 10
77.360182
 20
281.790641
 30
0.0
 10
76.959643
 20
282.200715
 30
0.0
 10
76.797518
 20
282.629865
 30
0.0
  0
LINE
  5
168
100
AcDbEntity
  8
Layer_1
 62
7
100
AcDbLine
 10
76.797518
 20
282.629865
 30
0.0
 11
76.797515
 21
282.629874
 31
0.0
  0
SPLINE
  5
169
100
AcDbEntity
  8
Layer_1
 62
7
100
AcDbSpline
 70
8
 71
3
 72
8
 73
4
 74
0
 40
0
 40
0
 40
0
 40
0
 40
1
 40
1
 40
1
 40
1
 10
82.140120
 20
281.800186
 30
0.0
 10
82.025682
 20
281.800186
 30
0.0
 10
81.911241
 20
281.895551
 30
0.0
 10
81.873096
 20
282.019529
 30
0.0
  0
SPLINE
  5
16a
100
AcDbEntity
  8
Layer_1
 62
7
100
AcDbSpline
 70
8
 71
3
 72
8
 73
4
 74
0
 40
0
 40
0
 40
0
 40
0
 40
1
 40
1
 40
1
 40
1
 10
81.873096
 20
282.019529
 30
0.0
 10
81.520239
 20
283.745662
 30
0.0
 10
81.091089
 20
285.738817
 30
0.0
 10
80.738235
 20
287.464950
 30
0.0
  0
SPLINE
  5
16b
100
AcDbEntity
  8
Layer_1
 62
7
100
AcDbSpline
 70
8
 71
3
 72
8
 73
4
 74
0
 40
0
 40
0
 40
0
 40
0
 40
1
 40
1
 40
1
 40
1
 10
80.738235
 20
287.464950
 30
0.0
 10
80.719157
 20
287.598464
 30
0.0
 10
80.814528
 20
287.760586
 30
0.0
 10
80.948042
 20
287.798731
 30
0.0
  0
SPLINE
  5
16c
100
AcDbEntity
  8
Layer_1
 62
7
100
AcDbSpline
 70
8
 71
3
 72
8
 73
4
 74
0
 40
0
 40
0
 40
0
 40
0
 40
1
 40
1
 40
1
 40
1
 10
80.948042
 20
287.798731
 30
0.0
 10
81.100628
 20
287.827343
 30
0.0
 10
81.243675
 20
287.722438
 30
0.0
 10
81.272287
 20
287.569852
 30
0.0
  0
LINE
  5
16d
100
AcDbEntity
  8
Layer_1
 62
7
100
AcDbLine
 10
81.272287
 20
287.569852
 30
0.0
 11
82.235486
 21
282.772924
 31
0.0
  0
LINE
  5
16e
100
AcDbEntity
  8
Layer_1
 62
7
100
AcDbLine
 10
82.235486
 20
282.772924
 30
0.0
 11
83.151004
 21
287.569852
 31
0.0
  0
SPLINE
  5
16f
100
AcDbEntity
  8
Layer_1
 62
7
100
AcDbSpline
 70
8
 71
3
 72
8
 73
4
 74
0
 40
0
 40
0
 40
0
 40
0
 40
1
 40
1
 40
1
 40
1
 10
83.151004
 20
287.569852
 30
0.0
 10
83.179615
 20
287.722438
 30
0.0
 10
83.322665
 20
287.827343
 30
0.0
 10
83.475251
 20
287.798731
 30
0.0
  0
SPLINE
  5
170
100
AcDbEntity
  8
Layer_1
 62
7
100
AcDbSpline
 70
8
 71
3
 72
8
 73
4
 74
0
 40
0
 40
0
 40
0
 40
0
 40
1
 40
1
 40
1
 40
1
 10
83.475251
 20
287.798731
 30
0.0
 10
83.618299
 20
287.770123
 30
0.0
 10
83.723203
 20
287.608000
 30
0.0
 10
83.675519
 20
287.464950
 30
0.0
  0
LINE
  5
171
100
AcDbEntity
  8
Layer_1
 62
7
100
AcDbLine
 10
83.675519
 20
287.464950
 30
0.0
 11
82.588343
 21
282.019529
 31
0.0
  0
SPLINE
  5
172
100
AcDbEntity
  8
Layer_1
 62
7
100
AcDbSpline
 70
8
 71
3
 72
8
 73
4
 74
0
 40
0
 40
0
 40
0
 40
0
 40
1
 40
1
 40
1
 40
1
 10
82.588343
 20
282.019529
 30
0.0
 10
82.550195
 20
281.895551
 30
0.0
 10
82.435756
 20
281.800186
 30
0.0
 10
82.321315
 20
281.800186
 30
0.0
  0
LINE
  5
173
100
AcDbEntity
  8
Layer_1
 62
7
100
AcDbLine
 10
82.321315
 20
281.800186
 30
0.0
 11
82.140120
 21
281.800186
 31
0.0
  0
LINE
  5
174
100
AcDbEntity
  8
Layer_1
 62
7
100
AcDbLine
 10
82.140120
 20
281.800186
 30
0.0
 11
82.140120
 21
281.800186
 31
0.0
  0
SPLINE
  5
175
100
AcDbEntity
  8
Layer_1
 62
7
100
AcDbSpline
 70
8
 71
3
 72
8
 73
4
 74
0
 40
0
 40
0
 40
0
 40
0
 40
1
 40
1
 40
1
 40
1
 10
87.282455
 20
284.289250
 30
0.0
 10
87.272916
 20
284.518130
 30
0.0
 10
87.225234
 20
284.899595
 30
0.0
 10
87.120332
 20
285.128475
 30
0.0
  0
SPLINE
  5
176
100
AcDbEntity
  8
Layer_1
 62
7
100
AcDbSpline
 70
8
 71
3
 72
8
 73
4
 74
0
 40
0
 40
0
 40
0
 40
0
 40
1
 40
1
 40
1
 40
1
 10
87.120332
 20
285.128475
 30
0.0
 10
86.986818
 20
285.357354
 30
0.0
 10
86.920062
 20
285.500401
 30
0.0
 10
86.500451
 20
285.509940
 30
0.0
  0
SPLINE
  5
177
100
AcDbEntity
  8
Layer_1
 62
7
100
AcDbSpline
 70
8
 71
3
 72
8
 73
4
 74
0
 40
0
 40
0
 40
0
 40
0
 40
1
 40
1
 40
1
 40
1
 10
86.500451
 20
285.509940
 30
0.0
 10
86.166669
 20
285.490862
 30
0.0
 10
85.975935
 20
285.281061
 30
0.0
 10
85.851960
 20
284.918668
 30
0.0
  0
LINE
  5
178
100
AcDbEntity
  8
Layer_1
 62
7
100
AcDbLine
 10
85.851960
 20
284.918668
 30
0.0
 11
85.851960
 21
284.928207
 31
0.0
  0
SPLINE
  5
179
100
AcDbEntity
  8
Layer_1
 62
7
100
AcDbSpline
 70
8
 71
3
 72
8
 73
4
 74
0
 40
0
 40
0
 40
0
 40
0
 40
1
 40
1
 40
1
 40
1
 10
85.851960
 20
284.928207
 30
0.0
 10
85.785204
 20
284.766084
 30
0.0
 10
85.747056
 20
284.499057
 30
0.0
 10
85.727983
 20
284.317862
 30
0.0
  0
LINE
  5
17a
100
AcDbEntity
  8
Layer_1
 62
7
100
AcDbLine
 10
85.727983
 20
284.317862
 30
0.0
 11
87.282455
 21
284.289253
 31
0.0
  0
LINE
  5
17b
100
AcDbEntity
  8
Layer_1
 62
7
100
AcDbLine
 10
87.282455
 20
284.289253
 30
0.0
 11
87.282455
 21
284.289250
 31
0.0
  0
SPLINE
  5
17c
100
AcDbEntity
  8
Layer_1
 62
7
100
AcDbSpline
 70
8
 71
3
 72
8
 73
4
 74
0
 40
0
 40
0
 40
0
 40
0
 40
1
 40
1
 40
1
 40
1
 10
86.395549
 20
281.819258
 30
0.0
 10
85.785204
 20
281.866942
 30
0.0
 10
85.460956
 20
282.372386
 30
0.0
 10
85.336981
 20
282.782460
 30
0.0
  0
SPLINE
  5
17d
100
AcDbEntity
  8
Layer_1
 62
7
100
AcDbSpline
 70
8
 71
3
 72
8
 73
4
 74
0
 40
0
 40
0
 40
0
 40
0
 40
1
 40
1
 40
1
 40
1
 10
85.336981
 20
282.782460
 30
0.0
 10
85.184395
 20
283.240219
 30
0.0
 10
85.174859
 20
283.697978
 30
0.0
 10
85.174859
 20
283.907784
 30
0.0
  0
SPLINE
  5
17e
100
AcDbEntity
  8
Layer_1
 62
7
100
AcDbSpline
 70
8
 71
3
 72
8
 73
4
 74
0
 40
0
 40
0
 40
0
 40
0
 40
1
 40
1
 40
1
 40
1
 10
85.174859
 20
283.907784
 30
0.0
 10
85.184398
 20
284.251102
 30
0.0
 10
85.193937
 20
284.689788
 30
0.0
 10
85.336981
 20
285.099863
 30
0.0
  0
SPLINE
  5
17f
100
AcDbEntity
  8
Layer_1
 62
7
100
AcDbSpline
 70
8
 71
3
 72
8
 73
4
 74
0
 40
0
 40
0
 40
0
 40
0
 40
1
 40
1
 40
1
 40
1
 10
85.336981
 20
285.099863
 30
0.0
 10
85.460956
 20
285.490865
 30
0.0
 10
85.813813
 20
285.977235
 30
0.0
 10
86.433694
 20
286.005844
 30
0.0
  0
SPLINE
  5
180
100
AcDbEntity
  8
Layer_1
 62
7
100
AcDbSpline
 70
8
 71
3
 72
8
 73
4
 74
0
 40
0
 40
0
 40
0
 40
0
 40
1
 40
1
 40
1
 40
1
 10
86.433694
 20
286.005844
 30
0.0
 10
87.072648
 20
286.034453
 30
0.0
 10
87.454113
 20
285.672063
 30
0.0
 10
87.616239
 20
285.309670
 30
0.0
  0
SPLINE
  5
181
100
AcDbEntity
  8
Layer_1
 62
7
100
AcDbSpline
 70
8
 71
3
 72
8
 73
4
 74
0
 40
0
 40
0
 40
0
 40
0
 40
1
 40
1
 40
1
 40
1
 10
87.616239
 20
285.309670
 30
0.0
 10
87.797434
 20
284.937740
 30
0.0
 10
87.816507
 20
284.546738
 30
0.0
 10
87.816507
 20
284.308323
 30
0.0
  0
SPLINE
  5
182
100
AcDbEntity
  8
Layer_1
 62
7
100
AcDbSpline
 70
8
 71
3
 72
8
 73
4
 74
0
 40
0
 40
0
 40
0
 40
0
 40
1
 40
1
 40
1
 40
1
 10
87.816507
 20
284.308323
 30
0.0
 10
87.816507
 20
284.203421
 30
0.0
 10
87.806967
 20
284.136664
 30
0.0
 10
87.806967
 20
284.098516
 30
0.0
  0
SPLINE
  5
183
100
AcDbEntity
  8
Layer_1
 62
7
100
AcDbSpline
 70
8
 71
3
 72
8
 73
4
 74
0
 40
0
 40
0
 40
0
 40
0
 40
1
 40
1
 40
1
 40
1
 10
87.806967
 20
284.098516
 30
0.0
 10
87.787889
 20
283.945930
 30
0.0
 10
87.673454
 20
283.841028
 30
0.0
 10
87.539943
 20
283.841028
 30
0.0
  0
LINE
  5
184
100
AcDbEntity
  8
Layer_1
 62
7
100
AcDbLine
 10
87.539943
 20
283.841028
 30
0.0
 11
85.708908
 21
283.841028
 31
0.0
  0
SPLINE
  5
185
100
AcDbEntity
  8
Layer_1
 62
7
100
AcDbSpline
 70
8
 71
3
 72
8
 73
4
 74
0
 40
0
 40
0
 40
0
 40
0
 40
1
 40
1
 40
1
 40
1
 10
85.708908
 20
283.841028
 30
0.0
 10
85.718447
 20
283.574000
 30
0.0
 10
85.756589
 20
283.221146
 30
0.0
 10
85.842419
 20
282.944583
 30
0.0
  0
SPLINE
  5
186
100
AcDbEntity
  8
Layer_1
 62
7
100
AcDbSpline
 70
8
 71
3
 72
8
 73
4
 74
0
 40
0
 40
0
 40
0
 40
0
 40
1
 40
1
 40
1
 40
1
 10
85.842419
 20
282.944583
 30
0.0
 10
85.995005
 20
282.563117
 30
0.0
 10
86.157130
 20
282.391458
 30
0.0
 10
86.414618
 20
282.353310
 30
0.0
  0
SPLINE
  5
187
100
AcDbEntity
  8
Layer_1
 62
7
100
AcDbSpline
 70
8
 71
3
 72
8
 73
4
 74
0
 40
0
 40
0
 40
0
 40
0
 40
1
 40
1
 40
1
 40
1
 10
86.414618
 20
282.353310
 30
0.0
 10
86.872377
 20
282.296092
 30
0.0
 10
87.072645
 20
282.591729
 30
0.0
 10
87.187086
 20
282.791996
 30
0.0
  0
LINE
  5
188
100
AcDbEntity
  8
Layer_1
 62
7
100
AcDbLine
 10
87.187086
 20
282.791996
 30
0.0
 11
87.177547
 21
282.782457
 31
0.0
  0
LINE
  5
189
100
AcDbEntity
  8
Layer_1
 62
7
100
AcDbLine
 10
87.177547
 20
282.782457
 30
0.0
 11
87.253840
 21
282.896898
 31
0.0
  0
SPLINE
  5
18a
100
AcDbEntity
  8
Layer_1
 62
7
100
AcDbSpline
 70
8
 71
3
 72
8
 73
4
 74
0
 40
0
 40
0
 40
0
 40
0
 40
1
 40
1
 40
1
 40
1
 10
87.253840
 20
282.896898
 30
0.0
 10
87.311061
 20
283.001800
 30
0.0
 10
87.473183
 20
283.039946
 30
0.0
 10
87.587622
 20
282.963652
 30
0.0
  0
SPLINE
  5
18b
100
AcDbEntity
  8
Layer_1
 62
7
100
AcDbSpline
 70
8
 71
3
 72
8
 73
4
 74
0
 40
0
 40
0
 40
0
 40
0
 40
1
 40
1
 40
1
 40
1
 10
87.587622
 20
282.963652
 30
0.0
 10
87.721135
 20
282.896898
 30
0.0
 10
87.768819
 20
282.753848
 30
0.0
 10
87.711599
 20
282.639407
 30
0.0
  0
SPLINE
  5
18c
100
AcDbEntity
  8
Layer_1
 62
7
100
AcDbSpline
 70
8
 71
3
 72
8
 73
4
 74
0
 40
0
 40
0
 40
0
 40
0
 40
1
 40
1
 40
1
 40
1
 10
87.711599
 20
282.639407
 30
0.0
 10
87.673451
 20
282.553578
 30
0.0
 10
87.339670
 20
281.819255
 30
0.0
 10
86.519518
 20
281.819255
 30
0.0
  0
LINE
  5
18d
100
AcDbEntity
  8
Layer_1
 62
7
100
AcDbLine
 10
86.519518
 20
281.819255
 30
0.0
 11
86.395543
 21
281.819255
 31
0.0
  0
LINE
  5
18e
100
AcDbEntity
  8
Layer_1
 62
7
100
AcDbLine
 10
86.395543
 20
281.819255
 30
0.0
 11
86.395549
 21
281.819258
 31
0.0
  0
SPLINE
  5
18f
100
AcDbEntity
  8
Layer_1
 62
7
100
AcDbSpline
 70
8
 71
3
 72
8
 73
4
 74
0
 40
0
 40
0
 40
0
 40
0
 40
1
 40
1
 40
1
 40
1
 10
89.926191
 20
285.700672
 30
0.0
 10
89.926191
 20
285.843722
 30
0.0
 10
90.040629
 20
285.967696
 30
0.0
 10
90.183679
 20
285.967696
 30
0.0
  0
SPLINE
  5
190
100
AcDbEntity
  8
Layer_1
 62
7
100
AcDbSpline
 70
8
 71
3
 72
8
 73
4
 74
0
 40
0
 40
0
 40
0
 40
0
 40
1
 40
1
 40
1
 40
1
 10
90.183679
 20
285.967696
 30
0.0
 10
90.307657
 20
285.967696
 30
0.0
 10
90.422095
 20
285.834185
 30
0.0
 10
90.479316
 20
285.652987
 30
0.0
  0
SPLINE
  5
191
100
AcDbEntity
  8
Layer_1
 62
7
100
AcDbSpline
 70
8
 71
3
 72
8
 73
4
 74
0
 40
0
 40
0
 40
0
 40
0
 40
1
 40
1
 40
1
 40
1
 10
90.479316
 20
285.652987
 30
0.0
 10
90.765416
 20
285.872331
 30
0.0
 10
91.061052
 20
285.986772
 30
0.0
 10
91.337613
 20
285.996308
 30
0.0
  0
SPLINE
  5
192
100
AcDbEntity
  8
Layer_1
 62
7
100
AcDbSpline
 70
8
 71
3
 72
8
 73
4
 74
0
 40
0
 40
0
 40
0
 40
0
 40
1
 40
1
 40
1
 40
1
 10
91.337613
 20
285.996308
 30
0.0
 10
91.614176
 20
285.996308
 30
0.0
 10
91.881201
 20
285.891403
 30
0.0
 10
92.091008
 20
285.672063
 30
0.0
  0
SPLINE
  5
193
100
AcDbEntity
  8
Layer_1
 62
7
100
AcDbSpline
 70
8
 71
3
 72
8
 73
4
 74
0
 40
0
 40
0
 40
0
 40
0
 40
1
 40
1
 40
1
 40
1
 10
92.091008
 20
285.672063
 30
0.0
 10
92.195910
 20
285.567158
 30
0.0
 10
92.205449
 20
285.414572
 30
0.0
 10
92.091008
 20
285.290597
 30
0.0
  0
SPLINE
  5
194
100
AcDbEntity
  8
Layer_1
 62
7
100
AcDbSpline
 70
8
 71
3
 72
8
 73
4
 74
0
 40
0
 40
0
 40
0
 40
0
 40
1
 40
1
 40
1
 40
1
 10
92.091008
 20
285.290597
 30
0.0
 10
91.995642
 20
285.195229
 30
0.0
 10
91.814444
 20
285.195229
 30
0.0
 10
91.719078
 20
285.290597
 30
0.0
  0
SPLINE
  5
195
100
AcDbEntity
  8
Layer_1
 62
7
100
AcDbSpline
 70
8
 71
3
 72
8
 73
4
 74
0
 40
0
 40
0
 40
0
 40
0
 40
1
 40
1
 40
1
 40
1
 10
91.719078
 20
285.290597
 30
0.0
 10
91.595104
 20
285.424108
 30
0.0
 10
91.471126
 20
285.471792
 30
0.0
 10
91.347149
 20
285.481329
 30
0.0
  0
SPLINE
  5
196
100
AcDbEntity
  8
Layer_1
 62
7
100
AcDbSpline
 70
8
 71
3
 72
8
 73
4
 74
0
 40
0
 40
0
 40
0
 40
0
 40
1
 40
1
 40
1
 40
1
 10
91.347149
 20
285.481329
 30
0.0
 10
90.946611
 20
285.519477
 30
0.0
 10
90.450707
 20
285.242913
 30
0.0
 10
90.450707
 20
284.689788
 30
0.0
  0
LINE
  5
197
100
AcDbEntity
  8
Layer_1
 62
7
100
AcDbLine
 10
90.450707
 20
284.689788
 30
0.0
 11
90.450707
 21
282.057677
 31
0.0
  0
SPLINE
  5
198
100
AcDbEntity
  8
Layer_1
 62
7
100
AcDbSpline
 70
8
 71
3
 72
8
 73
4
 74
0
 40
0
 40
0
 40
0
 40
0
 40
1
 40
1
 40
1
 40
1
 10
90.450707
 20
282.057677
 30
0.0
 10
90.450707
 20
281.905090
 30
0.0
 10
90.336266
 20
281.790649
 30
0.0
 10
90.183679
 20
281.790649
 30
0.0
  0
SPLINE
  5
199
100
AcDbEntity
  8
Layer_1
 62
7
100
AcDbSpline
 70
8
 71
3
 72
8
 73
4
 74
0
 40
0
 40
0
 40
0
 40
0
 40
1
 40
1
 40
1
 40
1
 10
90.183679
 20
281.790649
 30
0.0
 10
90.040629
 20
281.790649
 30
0.0
 10
89.926191
 20
281.905090
 30
0.0
 10
89.926191
 20
282.057677
 30
0.0
  0
LINE
  5
19a
100
AcDbEntity
  8
Layer_1
 62
7
100
AcDbLine
 10
89.926191
 20
282.057677
 30
0.0
 11
89.926191
 21
285.700672
 31
0.0
  0
LINE
  5
19b
100
AcDbEntity
  8
Layer_1
 62
7
100
AcDbLine
 10
89.926191
 20
285.700672
 30
0.0
 11
89.926191
 21
285.700672
 31
0.0
  0
SPLINE
  5
19c
100
AcDbEntity
  8
Layer_1
 62
7
100
AcDbSpline
 70
8
 71
3
 72
8
 73
4
 74
0
 40
0
 40
0
 40
0
 40
0
 40
1
 40
1
 40
1
 40
1
 10
94.019494
 20
285.509940
 30
0.0
 10
93.895520
 20
285.509940
 30
0.0
 10
93.781078
 20
285.605306
 30
0.0
 10
93.781078
 20
285.748356
 30
0.0
  0
SPLINE
  5
19d
100
AcDbEntity
  8
Layer_1
 62
7
100
AcDbSpline
 70
8
 71
3
 72
8
 73
4
 74
0
 40
0
 40
0
 40
0
 40
0
 40
1
 40
1
 40
1
 40
1
 10
93.781078
 20
285.748356
 30
0.0
 10
93.781078
 20
285.872331
 30
0.0
 10
93.895520
 20
285.977235
 30
0.0
 10
94.019494
 20
285.977235
 30
0.0
  0
LINE
  5
19e
100
AcDbEntity
  8
Layer_1
 62
7
100
AcDbLine
 10
94.019494
 20
285.977235
 30
0.0
 11
94.458180
 21
285.977235
 31
0.0
  0
LINE
  5
19f
100
AcDbEntity
  8
Layer_1
 62
7
100
AcDbLine
 10
94.458180
 20
285.977235
 30
0.0
 11
94.467720
 21
287.407730
 31
0.0
  0
SPLINE
  5
1a0
100
AcDbEntity
  8
Layer_1
 62
7
100
AcDbSpline
 70
8
 71
3
 72
8
 73
4
 74
0
 40
0
 40
0
 40
0
 40
0
 40
1
 40
1
 40
1
 40
1
 10
94.467720
 20
287.407730
 30
0.0
 10
94.467720
 20
287.550779
 30
0.0
 10
94.591697
 20
287.665221
 30
0.0
 10
94.725208
 20
287.665221
 30
0.0
  0
SPLINE
  5
1a1
100
AcDbEntity
  8
Layer_1
 62
7
100
AcDbSpline
 70
8
 71
3
 72
8
 73
4
 74
0
 40
0
 40
0
 40
0
 40
0
 40
1
 40
1
 40
1
 40
1
 10
94.725208
 20
287.665221
 30
0.0
 10
94.868258
 20
287.665221
 30
0.0
 10
95.001771
 20
287.541243
 30
0.0
 10
95.001771
 20
287.398193
 30
0.0
  0
LINE
  5
1a2
100
AcDbEntity
  8
Layer_1
 62
7
100
AcDbLine
 10
95.001771
 20
287.398193
 30
0.0
 11
94.982693
 21
285.977235
 31
0.0
  0
LINE
  5
1a3
100
AcDbEntity
  8
Layer_1
 62
7
100
AcDbLine
 10
94.982693
 20
285.977235
 30
0.0
 11
95.974504
 21
285.977235
 31
0.0
  0
SPLINE
  5
1a4
100
AcDbEntity
  8
Layer_1
 62
7
100
AcDbSpline
 70
8
 71
3
 72
8
 73
4
 74
0
 40
0
 40
0
 40
0
 40
0
 40
1
 40
1
 40
1
 40
1
 10
95.974504
 20
285.977235
 30
0.0
 10
96.108015
 20
285.977235
 30
0.0
 10
96.212920
 20
285.872331
 30
0.0
 10
96.212920
 20
285.748356
 30
0.0
  0
SPLINE
  5
1a5
100
AcDbEntity
  8
Layer_1
 62
7
100
AcDbSpline
 70
8
 71
3
 72
8
 73
4
 74
0
 40
0
 40
0
 40
0
 40
0
 40
1
 40
1
 40
1
 40
1
 10
96.212920
 20
285.748356
 30
0.0
 10
96.212920
 20
285.605306
 30
0.0
 10
96.108015
 20
285.509940
 30
0.0
 10
95.974504
 20
285.509940
 30
0.0
  0
LINE
  5
1a6
100
AcDbEntity
  8
Layer_1
 62
7
100
AcDbLine
 10
95.974504
 20
285.509940
 30
0.0
 11
94.982693
 21
285.509940
 31
0.0
  0
LINE
  5
1a7
100
AcDbEntity
  8
Layer_1
 62
7
100
AcDbLine
 10
94.982693
 20
285.509940
 30
0.0
 11
94.963615
 21
282.858753
 31
0.0
  0
SPLINE
  5
1a8
100
AcDbEntity
  8
Layer_1
 62
7
100
AcDbSpline
 70
8
 71
3
 72
8
 73
4
 74
0
 40
0
 40
0
 40
0
 40
0
 40
1
 40
1
 40
1
 40
1
 10
94.963615
 20
282.858753
 30
0.0
 10
94.963615
 20
282.763387
 30
0.0
 10
94.982693
 20
282.582190
 30
0.0
 10
95.030372
 20
282.505896
 30
0.0
  0
SPLINE
  5
1a9
100
AcDbEntity
  8
Layer_1
 62
7
100
AcDbSpline
 70
8
 71
3
 72
8
 73
4
 74
0
 40
0
 40
0
 40
0
 40
0
 40
1
 40
1
 40
1
 40
1
 10
95.030372
 20
282.505896
 30
0.0
 10
95.039911
 20
282.496357
 30
0.0
 10
95.049450
 20
282.477288
 30
0.0
 10
95.058984
 20
282.467751
 30
0.0
  0
SPLINE
  5
1aa
100
AcDbEntity
  8
Layer_1
 62
7
100
AcDbSpline
 70
8
 71
3
 72
8
 73
4
 74
0
 40
0
 40
0
 40
0
 40
0
 40
1
 40
1
 40
1
 40
1
 10
95.058984
 20
282.467751
 30
0.0
 10
95.116201
 20
282.381922
 30
0.0
 10
95.144813
 20
282.353310
 30
0.0
 10
95.345081
 20
282.334238
 30
0.0
  0
LINE
  5
1ab
100
AcDbEntity
  8
Layer_1
 62
7
100
AcDbLine
 10
95.345081
 20
282.334238
 30
0.0
 11
95.402301
 21
282.334238
 31
0.0
  0
SPLINE
  5
1ac
100
AcDbEntity
  8
Layer_1
 62
7
100
AcDbSpline
 70
8
 71
3
 72
8
 73
4
 74
0
 40
0
 40
0
 40
0
 40
0
 40
1
 40
1
 40
1
 40
1
 10
95.402301
 20
282.334238
 30
0.0
 10
95.469058
 20
282.324698
 30
0.0
 10
95.821915
 20
282.477288
 30
0.0
 10
95.888669
 20
282.553581
 30
0.0
  0
LINE
  5
1ad
100
AcDbEntity
  8
Layer_1
 62
7
100
AcDbLine
 10
95.888669
 20
282.553581
 30
0.0
 11
95.879130
 21
282.553581
 31
0.0
  0
SPLINE
  5
1ae
100
AcDbEntity
  8
Layer_1
 62
7
100
AcDbSpline
 70
8
 71
3
 72
8
 73
4
 74
0
 40
0
 40
0
 40
0
 40
0
 40
1
 40
1
 40
1
 40
1
 10
95.879130
 20
282.553581
 30
0.0
 10
95.984035
 20
282.658483
 30
0.0
 10
96.155693
 20
282.658483
 30
0.0
 10
96.260595
 20
282.553581
 30
0.0
  0
SPLINE
  5
1af
100
AcDbEntity
  8
Layer_1
 62
7
100
AcDbSpline
 70
8
 71
3
 72
8
 73
4
 74
0
 40
0
 40
0
 40
0
 40
0
 40
1
 40
1
 40
1
 40
1
 10
96.260595
 20
282.553581
 30
0.0
 10
96.365500
 20
282.458215
 30
0.0
 10
96.365500
 20
282.286556
 30
0.0
 10
96.260595
 20
282.181651
 30
0.0
  0
SPLINE
  5
1b0
100
AcDbEntity
  8
Layer_1
 62
7
100
AcDbSpline
 70
8
 71
3
 72
8
 73
4
 74
0
 40
0
 40
0
 40
0
 40
0
 40
1
 40
1
 40
1
 40
1
 10
96.260595
 20
282.181651
 30
0.0
 10
96.031716
 20
281.971844
 30
0.0
 10
95.755155
 20
281.847870
 30
0.0
 10
95.469055
 20
281.809722
 30
0.0
  0
LINE
  5
1b1
100
AcDbEntity
  8
Layer_1
 62
7
100
AcDbLine
 10
95.469055
 20
281.809722
 30
0.0
 11
95.316469
 21
281.809722
 31
0.0
  0
SPLINE
  5
1b2
100
AcDbEntity
  8
Layer_1
 62
7
100
AcDbSpline
 70
8
 71
3
 72
8
 73
4
 74
0
 40
0
 40
0
 40
0
 40
0
 40
1
 40
1
 40
1
 40
1
 10
95.316469
 20
281.809722
 30
0.0
 10
95.306930
 20
281.800183
 30
0.0
 10
95.306930
 20
281.800183
 30
0.0
 10
95.316469
 20
281.800183
 30
0.0
  0
SPLINE
  5
1b3
100
AcDbEntity
  8
Layer_1
 62
7
100
AcDbSpline
 70
8
 71
3
 72
8
 73
4
 74
0
 40
0
 40
0
 40
0
 40
0
 40
1
 40
1
 40
1
 40
1
 10
95.316469
 20
281.800183
 30
0.0
 10
94.954076
 20
281.800183
 30
0.0
 10
94.677515
 20
282.029062
 30
0.0
 10
94.582147
 20
282.248405
 30
0.0
  0
SPLINE
  5
1b4
100
AcDbEntity
  8
Layer_1
 62
7
100
AcDbSpline
 70
8
 71
3
 72
8
 73
4
 74
0
 40
0
 40
0
 40
0
 40
0
 40
1
 40
1
 40
1
 40
1
 10
94.582147
 20
282.248405
 30
0.0
 10
94.458172
 20
282.467748
 30
0.0
 10
94.458172
 20
282.696628
 30
0.0
 10
94.458172
 20
282.820605
 30
0.0
  0
LINE
  5
1b5
100
AcDbEntity
  8
Layer_1
 62
7
100
AcDbLine
 10
94.458172
 20
282.820605
 30
0.0
 11
94.458172
 21
285.509937
 31
0.0
  0
LINE
  5
1b6
100
AcDbEntity
  8
Layer_1
 62
7
100
AcDbLine
 10
94.458172
 20
285.509937
 30
0.0
 11
94.019486
 21
285.509937
 31
0.0
  0
LINE
  5
1b7
100
AcDbEntity
  8
Layer_1
 62
7
100
AcDbLine
 10
94.019486
 20
285.509937
 30
0.0
 11
94.019494
 21
285.509940
 31
0.0
  0
SPLINE
  5
1b8
100
AcDbEntity
  8
Layer_1
 62
7
100
AcDbSpline
 70
8
 71
3
 72
8
 73
4
 74
0
 40
0
 40
0
 40
0
 40
0
 40
1
 40
1
 40
1
 40
1
 10
45.039222
 20
201.657970
 30
0.0
 10
44.957682
 20
201.657970
 30
0.0
 10
44.882414
 20
201.720691
 30
0.0
 10
44.882414
 20
201.814776
 30
0.0
  0
SPLINE
  5
1b9
100
AcDbEntity
  8
Layer_1
 62
7
100
AcDbSpline
 70
8
 71
3
 72
8
 73
4
 74
0
 40
0
 40
0
 40
0
 40
0
 40
1
 40
1
 40
1
 40
1
 10
44.882414
 20
201.814776
 30
0.0
 10
44.882414
 20
201.896315
 30
0.0
 10
44.957682
 20
201.965310
 30
0.0
 10
45.039222
 20
201.965310
 30
0.0
  0
LINE
  5
1ba
100
AcDbEntity
  8
Layer_1
 62
7
100
AcDbLine
 10
45.039222
 20
201.965310
 30
0.0
 11
45.327746
 21
201.965310
 31
0.0
  0
LINE
  5
1bb
100
AcDbEntity
  8
Layer_1
 62
7
100
AcDbLine
 10
45.327746
 20
201.965310
 30
0.0
 11
45.334011
 21
202.906152
 31
0.0
  0
SPLINE
  5
1bc
100
AcDbEntity
  8
Layer_1
 62
7
100
AcDbSpline
 70
8
 71
3
 72
8
 73
4
 74
0
 40
0
 40
0
 40
0
 40
0
 40
1
 40
1
 40
1
 40
1
 10
45.334011
 20
202.906152
 30
0.0
 10
45.334011
 20
203.000236
 30
0.0
 10
45.415551
 20
203.075505
 30
0.0
 10
45.503365
 20
203.075505
 30
0.0
  0
SPLINE
  5
1bd
100
AcDbEntity
  8
Layer_1
 62
7
100
AcDbSpline
 70
8
 71
3
 72
8
 73
4
 74
0
 40
0
 40
0
 40
0
 40
0
 40
1
 40
1
 40
1
 40
1
 10
45.503365
 20
203.075505
 30
0.0
 10
45.597449
 20
203.075505
 30
0.0
 10
45.685260
 20
202.993965
 30
0.0
 10
45.685260
 20
202.899881
 30
0.0
  0
LINE
  5
1be
100
AcDbEntity
  8
Layer_1
 62
7
100
AcDbLine
 10
45.685260
 20
202.899881
 30
0.0
 11
45.672729
 21
201.965310
 31
0.0
  0
LINE
  5
1bf
100
AcDbEntity
  8
Layer_1
 62
7
100
AcDbLine
 10
45.672729
 20
201.965310
 30
0.0
 11
46.325046
 21
201.965310
 31
0.0
  0
SPLINE
  5
1c0
100
AcDbEntity
  8
Layer_1
 62
7
100
AcDbSpline
 70
8
 71
3
 72
8
 73
4
 74
0
 40
0
 40
0
 40
0
 40
0
 40
1
 40
1
 40
1
 40
1
 10
46.325046
 20
201.965310
 30
0.0
 10
46.412860
 20
201.965310
 30
0.0
 10
46.481854
 20
201.896315
 30
0.0
 10
46.481854
 20
201.814776
 30
0.0
  0
SPLINE
  5
1c1
100
AcDbEntity
  8
Layer_1
 62
7
100
AcDbSpline
 70
8
 71
3
 72
8
 73
4
 74
0
 40
0
 40
0
 40
0
 40
0
 40
1
 40
1
 40
1
 40
1
 10
46.481854
 20
201.814776
 30
0.0
 10
46.481854
 20
201.720691
 30
0.0
 10
46.412860
 20
201.657970
 30
0.0
 10
46.325046
 20
201.657970
 30
0.0
  0
LINE
  5
1c2
100
AcDbEntity
  8
Layer_1
 62
7
100
AcDbLine
 10
46.325046
 20
201.657970
 30
0.0
 11
45.672729
 21
201.657970
 31
0.0
  0
LINE
  5
1c3
100
AcDbEntity
  8
Layer_1
 62
7
100
AcDbLine
 10
45.672729
 20
201.657970
 30
0.0
 11
45.660170
 21
199.914274
 31
0.0
  0
SPLINE
  5
1c4
100
AcDbEntity
  8
Layer_1
 62
7
100
AcDbSpline
 70
8
 71
3
 72
8
 73
4
 74
0
 40
0
 40
0
 40
0
 40
0
 40
1
 40
1
 40
1
 40
1
 10
45.660170
 20
199.914274
 30
0.0
 10
45.660170
 20
199.851553
 30
0.0
 10
45.672729
 20
199.732379
 30
0.0
 10
45.704078
 20
199.682200
 30
0.0
  0
SPLINE
  5
1c5
100
AcDbEntity
  8
Layer_1
 62
7
100
AcDbSpline
 70
8
 71
3
 72
8
 73
4
 74
0
 40
0
 40
0
 40
0
 40
0
 40
1
 40
1
 40
1
 40
1
 10
45.704078
 20
199.682200
 30
0.0
 10
45.710343
 20
199.675935
 30
0.0
 10
45.716609
 20
199.663376
 30
0.0
 10
45.722902
 20
199.657111
 30
0.0
  0
SPLINE
  5
1c6
100
AcDbEntity
  8
Layer_1
 62
7
100
AcDbSpline
 70
8
 71
3
 72
8
 73
4
 74
0
 40
0
 40
0
 40
0
 40
0
 40
1
 40
1
 40
1
 40
1
 10
45.722902
 20
199.657111
 30
0.0
 10
45.760537
 20
199.600658
 30
0.0
 10
45.779352
 20
199.581842
 30
0.0
 10
45.911071
 20
199.569297
 30
0.0
  0
LINE
  5
1c7
100
AcDbEntity
  8
Layer_1
 62
7
100
AcDbLine
 10
45.911071
 20
199.569297
 30
0.0
 11
45.948703
 21
199.569297
 31
0.0
  0
SPLINE
  5
1c8
100
AcDbEntity
  8
Layer_1
 62
7
100
AcDbSpline
 70
8
 71
3
 72
8
 73
4
 74
0
 40
0
 40
0
 40
0
 40
0
 40
1
 40
1
 40
1
 40
1
 10
45.948703
 20
199.569297
 30
0.0
 10
45.992611
 20
199.563032
 30
0.0
 10
46.224685
 20
199.663382
 30
0.0
 10
46.268590
 20
199.713561
 30
0.0
  0
LINE
  5
1c9
100
AcDbEntity
  8
Layer_1
 62
7
100
AcDbLine
 10
46.268590
 20
199.713561
 30
0.0
 11
46.262325
 21
199.713561
 31
0.0
  0
SPLINE
  5
1ca
100
AcDbEntity
  8
Layer_1
 62
7
100
AcDbSpline
 70
8
 71
3
 72
8
 73
4
 74
0
 40
0
 40
0
 40
0
 40
0
 40
1
 40
1
 40
1
 40
1
 10
46.262325
 20
199.713561
 30
0.0
 10
46.331320
 20
199.782556
 30
0.0
 10
46.444220
 20
199.782556
 30
0.0
 10
46.513215
 20
199.713561
 30
0.0
  0
SPLINE
  5
1cb
100
AcDbEntity
  8
Layer_1
 62
7
100
AcDbSpline
 70
8
 71
3
 72
8
 73
4
 74
0
 40
0
 40
0
 40
0
 40
0
 40
1
 40
1
 40
1
 40
1
 10
46.513215
 20
199.713561
 30
0.0
 10
46.582210
 20
199.650837
 30
0.0
 10
46.582210
 20
199.537937
 30
0.0
 10
46.513215
 20
199.468942
 30
0.0
  0
SPLINE
  5
1cc
100
AcDbEntity
  8
Layer_1
 62
7
100
AcDbSpline
 70
8
 71
3
 72
8
 73
4
 74
0
 40
0
 40
0
 40
0
 40
0
 40
1
 40
1
 40
1
 40
1
 10
46.513215
 20
199.468942
 30
0.0
 10
46.362680
 20
199.330952
 30
0.0
 10
46.180785
 20
199.249412
 30
0.0
 10
45.992617
 20
199.224323
 30
0.0
  0
LINE
  5
1cd
100
AcDbEntity
  8
Layer_1
 62
7
100
AcDbLine
 10
45.992617
 20
199.224323
 30
0.0
 11
45.892258
 21
199.224323
 31
0.0
  0
SPLINE
  5
1ce
100
AcDbEntity
  8
Layer_1
 62
7
100
AcDbSpline
 70
8
 71
3
 72
8
 73
4
 74
0
 40
0
 40
0
 40
0
 40
0
 40
1
 40
1
 40
1
 40
1
 10
45.892258
 20
199.224323
 30
0.0
 10
45.885993
 20
199.218057
 30
0.0
 10
45.885993
 20
199.218057
 30
0.0
 10
45.892258
 20
199.218057
 30
0.0
  0
SPLINE
  5
1cf
100
AcDbEntity
  8
Layer_1
 62
7
100
AcDbSpline
 70
8
 71
3
 72
8
 73
4
 74
0
 40
0
 40
0
 40
0
 40
0
 40
1
 40
1
 40
1
 40
1
 10
45.892258
 20
199.218057
 30
0.0
 10
45.653913
 20
199.218057
 30
0.0
 10
45.472015
 20
199.368592
 30
0.0
 10
45.409294
 20
199.512855
 30
0.0
  0
SPLINE
  5
1d0
100
AcDbEntity
  8
Layer_1
 62
7
100
AcDbSpline
 70
8
 71
3
 72
8
 73
4
 74
0
 40
0
 40
0
 40
0
 40
0
 40
1
 40
1
 40
1
 40
1
 10
45.409294
 20
199.512855
 30
0.0
 10
45.327755
 20
199.657119
 30
0.0
 10
45.327755
 20
199.807654
 30
0.0
 10
45.327755
 20
199.889193
 30
0.0
  0
LINE
  5
1d1
100
AcDbEntity
  8
Layer_1
 62
7
100
AcDbLine
 10
45.327755
 20
199.889193
 30
0.0
 11
45.327755
 21
201.657976
 31
0.0
  0
LINE
  5
1d2
100
AcDbEntity
  8
Layer_1
 62
7
100
AcDbLine
 10
45.327755
 20
201.657976
 30
0.0
 11
45.039230
 21
201.657976
 31
0.0
  0
LINE
  5
1d3
100
AcDbEntity
  8
Layer_1
 62
7
100
AcDbLine
 10
45.039230
 20
201.657976
 30
0.0
 11
45.039222
 21
201.657970
 31
0.0
  0
SPLINE
  5
1d4
100
AcDbEntity
  8
Layer_1
 62
7
100
AcDbSpline
 70
8
 71
3
 72
8
 73
4
 74
0
 40
0
 40
0
 40
0
 40
0
 40
1
 40
1
 40
1
 40
1
 10
48.584430
 20
200.503870
 30
0.0
 10
48.233182
 20
200.441146
 30
0.0
 10
48.082647
 20
200.290612
 30
0.0
 10
48.070102
 20
199.983272
 30
0.0
  0
SPLINE
  5
1d5
100
AcDbEntity
  8
Layer_1
 62
7
100
AcDbSpline
 70
8
 71
3
 72
8
 73
4
 74
0
 40
0
 40
0
 40
0
 40
0
 40
1
 40
1
 40
1
 40
1
 10
48.070102
 20
199.983272
 30
0.0
 10
48.076368
 20
199.606934
 30
0.0
 10
48.264545
 20
199.569300
 30
0.0
 10
48.452714
 20
199.544210
 30
0.0
  0
LINE
  5
1d6
100
AcDbEntity
  8
Layer_1
 62
7
100
AcDbLine
 10
48.452714
 20
199.544210
 30
0.0
 11
48.502890
 21
199.544210
 31
0.0
  0
SPLINE
  5
1d7
100
AcDbEntity
  8
Layer_1
 62
7
100
AcDbSpline
 70
8
 71
3
 72
8
 73
4
 74
0
 40
0
 40
0
 40
0
 40
0
 40
1
 40
1
 40
1
 40
1
 10
48.502890
 20
199.544210
 30
0.0
 10
48.521714
 20
199.544210
 30
0.0
 10
48.546795
 20
199.550476
 30
0.0
 10
48.565614
 20
199.550476
 30
0.0
  0
SPLINE
  5
1d8
100
AcDbEntity
  8
Layer_1
 62
7
100
AcDbSpline
 70
8
 71
3
 72
8
 73
4
 74
0
 40
0
 40
0
 40
0
 40
0
 40
1
 40
1
 40
1
 40
1
 10
48.565614
 20
199.550476
 30
0.0
 10
48.697333
 20
199.563006
 30
0.0
 10
48.803959
 20
199.581836
 30
0.0
 10
48.904317
 20
199.682192
 30
0.0
  0
SPLINE
  5
1d9
100
AcDbEntity
  8
Layer_1
 62
7
100
AcDbSpline
 70
8
 71
3
 72
8
 73
4
 74
0
 40
0
 40
0
 40
0
 40
0
 40
1
 40
1
 40
1
 40
1
 10
48.904317
 20
199.682192
 30
0.0
 10
48.967038
 20
199.744916
 30
0.0
 10
48.992128
 20
199.782550
 30
0.0
 10
49.017217
 20
199.826455
 30
0.0
  0
LINE
  5
1da
100
AcDbEntity
  8
Layer_1
 62
7
100
AcDbLine
 10
49.017217
 20
199.826455
 30
0.0
 11
49.017217
 21
200.554041
 31
0.0
  0
SPLINE
  5
1db
100
AcDbEntity
  8
Layer_1
 62
7
100
AcDbSpline
 70
8
 71
3
 72
8
 73
4
 74
0
 40
0
 40
0
 40
0
 40
0
 40
1
 40
1
 40
1
 40
1
 10
49.017217
 20
200.554041
 30
0.0
 10
48.728693
 20
200.547776
 30
0.0
 10
48.741238
 20
200.528951
 30
0.0
 10
48.584430
 20
200.503862
 30
0.0
  0
LINE
  5
1dc
100
AcDbEntity
  8
Layer_1
 62
7
100
AcDbLine
 10
48.584430
 20
200.503862
 30
0.0
 11
48.584430
 21
200.503870
 31
0.0
  0
SPLINE
  5
1dd
100
AcDbEntity
  8
Layer_1
 62
7
100
AcDbSpline
 70
8
 71
3
 72
8
 73
4
 74
0
 40
0
 40
0
 40
0
 40
0
 40
1
 40
1
 40
1
 40
1
 10
47.969747
 20
199.374860
 30
0.0
 10
47.819212
 20
199.494034
 30
0.0
 10
47.712583
 20
199.701019
 30
0.0
 10
47.712583
 20
199.964453
 30
0.0
  0
LINE
  5
1de
100
AcDbEntity
  8
Layer_1
 62
7
100
AcDbLine
 10
47.712583
 20
199.964453
 30
0.0
 11
47.712583
 21
199.995814
 31
0.0
  0
SPLINE
  5
1df
100
AcDbEntity
  8
Layer_1
 62
7
100
AcDbSpline
 70
8
 71
3
 72
8
 73
4
 74
0
 40
0
 40
0
 40
0
 40
0
 40
1
 40
1
 40
1
 40
1
 10
47.712583
 20
199.995814
 30
0.0
 10
47.743944
 20
200.754760
 30
0.0
 10
48.465256
 20
200.798666
 30
0.0
 10
48.785143
 20
200.842574
 30
0.0
  0
SPLINE
  5
1e0
100
AcDbEntity
  8
Layer_1
 62
7
100
AcDbSpline
 70
8
 71
3
 72
8
 73
4
 74
0
 40
0
 40
0
 40
0
 40
0
 40
1
 40
1
 40
1
 40
1
 10
48.785143
 20
200.842574
 30
0.0
 10
48.860412
 20
200.855104
 30
0.0
 10
48.885499
 20
200.842574
 30
0.0
 10
49.004673
 20
200.886479
 30
0.0
  0
SPLINE
  5
1e1
100
AcDbEntity
  8
Layer_1
 62
7
100
AcDbSpline
 70
8
 71
3
 72
8
 73
4
 74
0
 40
0
 40
0
 40
0
 40
0
 40
1
 40
1
 40
1
 40
1
 10
49.004673
 20
200.886479
 30
0.0
 10
49.004673
 20
200.917840
 30
0.0
 10
49.004673
 20
200.949203
 30
0.0
 10
49.010938
 20
200.961745
 30
0.0
  0
SPLINE
  5
1e2
100
AcDbEntity
  8
Layer_1
 62
7
100
AcDbSpline
 70
8
 71
3
 72
8
 73
4
 74
0
 40
0
 40
0
 40
0
 40
0
 40
1
 40
1
 40
1
 40
1
 10
49.010938
 20
200.961745
 30
0.0
 10
49.010938
 20
201.375717
 30
0.0
 10
49.010938
 20
201.394533
 30
0.0
 10
49.010938
 20
201.407077
 30
0.0
  0
SPLINE
  5
1e3
100
AcDbEntity
  8
Layer_1
 62
7
100
AcDbSpline
 70
8
 71
3
 72
8
 73
4
 74
0
 40
0
 40
0
 40
0
 40
0
 40
1
 40
1
 40
1
 40
1
 10
49.010938
 20
201.407077
 30
0.0
 10
49.004673
 20
201.507436
 30
0.0
 10
48.985848
 20
201.651696
 30
0.0
 10
48.596966
 20
201.664241
 30
0.0
  0
SPLINE
  5
1e4
100
AcDbEntity
  8
Layer_1
 62
7
100
AcDbSpline
 70
8
 71
3
 72
8
 73
4
 74
0
 40
0
 40
0
 40
0
 40
0
 40
1
 40
1
 40
1
 40
1
 10
48.596966
 20
201.664241
 30
0.0
 10
48.421342
 20
201.664241
 30
0.0
 10
48.320987
 20
201.607791
 30
0.0
 10
48.251992
 20
201.545067
 30
0.0
  0
SPLINE
  5
1e5
100
AcDbEntity
  8
Layer_1
 62
7
100
AcDbSpline
 70
8
 71
3
 72
8
 73
4
 74
0
 40
0
 40
0
 40
0
 40
0
 40
1
 40
1
 40
1
 40
1
 10
48.251992
 20
201.545067
 30
0.0
 10
48.182997
 20
201.501162
 30
0.0
 10
48.151633
 20
201.438438
 30
0.0
 10
48.151633
 20
201.438438
 30
0.0
  0
SPLINE
  5
1e6
100
AcDbEntity
  8
Layer_1
 62
7
100
AcDbSpline
 70
8
 71
3
 72
8
 73
4
 74
0
 40
0
 40
0
 40
0
 40
0
 40
1
 40
1
 40
1
 40
1
 10
48.151633
 20
201.438438
 30
0.0
 10
48.107728
 20
201.356901
 30
0.0
 10
48.001099
 20
201.325538
 30
0.0
 10
47.913288
 20
201.375717
 30
0.0
  0
SPLINE
  5
1e7
100
AcDbEntity
  8
Layer_1
 62
7
100
AcDbSpline
 70
8
 71
3
 72
8
 73
4
 74
0
 40
0
 40
0
 40
0
 40
0
 40
1
 40
1
 40
1
 40
1
 10
47.913288
 20
201.375717
 30
0.0
 10
47.831749
 20
201.419622
 30
0.0
 10
47.800388
 20
201.526251
 30
0.0
 10
47.844293
 20
201.614062
 30
0.0
  0
SPLINE
  5
1e8
100
AcDbEntity
  8
Layer_1
 62
7
100
AcDbSpline
 70
8
 71
3
 72
8
 73
4
 74
0
 40
0
 40
0
 40
0
 40
0
 40
1
 40
1
 40
1
 40
1
 10
47.844293
 20
201.614062
 30
0.0
 10
47.856824
 20
201.639152
 30
0.0
 10
48.082639
 20
202.009215
 30
0.0
 10
48.596966
 20
202.015489
 30
0.0
  0
SPLINE
  5
1e9
100
AcDbEntity
  8
Layer_1
 62
7
100
AcDbSpline
 70
8
 71
3
 72
8
 73
4
 74
0
 40
0
 40
0
 40
0
 40
0
 40
1
 40
1
 40
1
 40
1
 10
48.596966
 20
202.015489
 30
0.0
 10
48.898035
 20
202.015489
 30
0.0
 10
49.130109
 20
201.902589
 30
0.0
 10
49.243012
 20
201.745781
 30
0.0
  0
SPLINE
  5
1ea
100
AcDbEntity
  8
Layer_1
 62
7
100
AcDbSpline
 70
8
 71
3
 72
8
 73
4
 74
0
 40
0
 40
0
 40
0
 40
0
 40
1
 40
1
 40
1
 40
1
 10
49.243012
 20
201.745781
 30
0.0
 10
49.349639
 20
201.595246
 30
0.0
 10
49.368457
 20
201.432167
 30
0.0
 10
49.368457
 20
201.350627
 30
0.0
  0
LINE
  5
1eb
100
AcDbEntity
  8
Layer_1
 62
7
100
AcDbLine
 10
49.368457
 20
201.350627
 30
0.0
 11
49.374722
 21
199.337226
 31
0.0
  0
SPLINE
  5
1ec
100
AcDbEntity
  8
Layer_1
 62
7
100
AcDbSpline
 70
8
 71
3
 72
8
 73
4
 74
0
 40
0
 40
0
 40
0
 40
0
 40
1
 40
1
 40
1
 40
1
 10
49.374722
 20
199.337226
 30
0.0
 10
49.380988
 20
199.243141
 30
0.0
 10
49.293183
 20
199.199236
 30
0.0
 10
49.199098
 20
199.192962
 30
0.0
  0
SPLINE
  5
1ed
100
AcDbEntity
  8
Layer_1
 62
7
100
AcDbSpline
 70
8
 71
3
 72
8
 73
4
 74
0
 40
0
 40
0
 40
0
 40
0
 40
1
 40
1
 40
1
 40
1
 10
49.199098
 20
199.192962
 30
0.0
 10
49.123833
 20
199.192962
 30
0.0
 10
49.042293
 20
199.255686
 30
0.0
 10
49.010932
 20
199.381131
 30
0.0
  0
SPLINE
  5
1ee
100
AcDbEntity
  8
Layer_1
 62
7
100
AcDbSpline
 70
8
 71
3
 72
8
 73
4
 74
0
 40
0
 40
0
 40
0
 40
0
 40
1
 40
1
 40
1
 40
1
 10
49.010932
 20
199.381131
 30
0.0
 10
48.860398
 20
199.299591
 30
0.0
 10
48.703590
 20
199.230597
 30
0.0
 10
48.546781
 20
199.205507
 30
0.0
  0
LINE
  5
1ef
100
AcDbEntity
  8
Layer_1
 62
7
100
AcDbLine
 10
48.546781
 20
199.205507
 30
0.0
 11
48.465242
 21
199.205507
 31
0.0
  0
SPLINE
  5
1f0
100
AcDbEntity
  8
Layer_1
 62
7
100
AcDbSpline
 70
8
 71
3
 72
8
 73
4
 74
0
 40
0
 40
0
 40
0
 40
0
 40
1
 40
1
 40
1
 40
1
 10
48.465242
 20
199.205507
 30
0.0
 10
48.314707
 20
199.205507
 30
0.0
 10
48.132812
 20
199.243141
 30
0.0
 10
47.969733
 20
199.374860
 30
0.0
  0
LINE
  5
1f1
100
AcDbEntity
  8
Layer_1
 62
7
100
AcDbLine
 10
47.969733
 20
199.374860
 30
0.0
 11
47.969747
 21
199.374860
 31
0.0
  0
SPLINE
  5
1f2
100
AcDbEntity
  8
Layer_1
 62
7
100
AcDbSpline
 70
8
 71
3
 72
8
 73
4
 74
0
 40
0
 40
0
 40
0
 40
0
 40
1
 40
1
 40
1
 40
1
 10
50.781101
 20
199.770014
 30
0.0
 10
50.950451
 20
199.644569
 30
0.0
 10
51.132349
 20
199.588119
 30
0.0
 10
51.301699
 20
199.588119
 30
0.0
  0
LINE
  5
1f3
100
AcDbEntity
  8
Layer_1
 62
7
100
AcDbLine
 10
51.301699
 20
199.588119
 30
0.0
 11
51.383239
 21
199.588119
 31
0.0
  0
SPLINE
  5
1f4
100
AcDbEntity
  8
Layer_1
 62
7
100
AcDbSpline
 70
8
 71
3
 72
8
 73
4
 74
0
 40
0
 40
0
 40
0
 40
0
 40
1
 40
1
 40
1
 40
1
 10
51.383239
 20
199.588119
 30
0.0
 10
51.659218
 20
199.663384
 30
0.0
 10
51.928927
 20
199.857824
 30
0.0
 10
51.935201
 20
200.629315
 30
0.0
  0
SPLINE
  5
1f5
100
AcDbEntity
  8
Layer_1
 62
7
100
AcDbSpline
 70
8
 71
3
 72
8
 73
4
 74
0
 40
0
 40
0
 40
0
 40
0
 40
1
 40
1
 40
1
 40
1
 10
51.935201
 20
200.629315
 30
0.0
 10
51.935201
 20
200.905295
 30
0.0
 10
51.935201
 20
201.614062
 30
0.0
 10
51.364423
 20
201.614062
 30
0.0
  0
SPLINE
  5
1f6
100
AcDbEntity
  8
Layer_1
 62
7
100
AcDbSpline
 70
8
 71
3
 72
8
 73
4
 74
0
 40
0
 40
0
 40
0
 40
0
 40
1
 40
1
 40
1
 40
1
 10
51.364423
 20
201.614062
 30
0.0
 10
51.107259
 20
201.614062
 30
0.0
 10
50.912817
 20
201.526251
 30
0.0
 10
50.781101
 20
201.381988
 30
0.0
  0
LINE
  5
1f7
100
AcDbEntity
  8
Layer_1
 62
7
100
AcDbLine
 10
50.781101
 20
201.381988
 30
0.0
 11
50.781101
 21
200.491326
 31
0.0
  0
LINE
  5
1f8
100
AcDbEntity
  8
Layer_1
 62
7
100
AcDbLine
 10
50.781101
 20
200.491326
 30
0.0
 11
50.781101
 21
199.770014
 31
0.0
  0
LINE
  5
1f9
100
AcDbEntity
  8
Layer_1
 62
7
100
AcDbLine
 10
50.781101
 20
199.770014
 30
0.0
 11
50.781101
 21
199.770014
 31
0.0
  0
SPLINE
  5
1fa
100
AcDbEntity
  8
Layer_1
 62
7
100
AcDbSpline
 70
8
 71
3
 72
8
 73
4
 74
0
 40
0
 40
0
 40
0
 40
0
 40
1
 40
1
 40
1
 40
1
 10
50.423579
 20
201.632881
 30
0.0
 10
50.417313
 20
201.814776
 30
0.0
 10
50.480032
 20
201.927676
 30
0.0
 10
50.592932
 20
201.946494
 30
0.0
  0
SPLINE
  5
1fb
100
AcDbEntity
  8
Layer_1
 62
7
100
AcDbSpline
 70
8
 71
3
 72
8
 73
4
 74
0
 40
0
 40
0
 40
0
 40
0
 40
1
 40
1
 40
1
 40
1
 10
50.592932
 20
201.946494
 30
0.0
 10
50.661927
 20
201.946494
 30
0.0
 10
50.737193
 20
201.896315
 30
0.0
 10
50.799916
 20
201.808505
 30
0.0
  0
SPLINE
  5
1fc
100
AcDbEntity
  8
Layer_1
 62
7
100
AcDbSpline
 70
8
 71
3
 72
8
 73
4
 74
0
 40
0
 40
0
 40
0
 40
0
 40
1
 40
1
 40
1
 40
1
 10
50.799916
 20
201.808505
 30
0.0
 10
50.969270
 20
201.915134
 30
0.0
 10
51.144891
 20
202.009215
 30
0.0
 10
51.351878
 20
202.002944
 30
0.0
  0
SPLINE
  5
1fd
100
AcDbEntity
  8
Layer_1
 62
7
100
AcDbSpline
 70
8
 71
3
 72
8
 73
4
 74
0
 40
0
 40
0
 40
0
 40
0
 40
1
 40
1
 40
1
 40
1
 10
51.351878
 20
202.002944
 30
0.0
 10
52.223725
 20
201.971584
 30
0.0
 10
52.298991
 20
201.131098
 30
0.0
 10
52.298991
 20
200.660676
 30
0.0
  0
SPLINE
  5
1fe
100
AcDbEntity
  8
Layer_1
 62
7
100
AcDbSpline
 70
8
 71
3
 72
8
 73
4
 74
0
 40
0
 40
0
 40
0
 40
0
 40
1
 40
1
 40
1
 40
1
 10
52.298991
 20
200.660676
 30
0.0
 10
52.305256
 20
199.688474
 30
0.0
 10
51.853661
 20
199.249415
 30
0.0
 10
51.395784
 20
199.230597
 30
0.0
  0
SPLINE
  5
1ff
100
AcDbEntity
  8
Layer_1
 62
7
100
AcDbSpline
 70
8
 71
3
 72
8
 73
4
 74
0
 40
0
 40
0
 40
0
 40
0
 40
1
 40
1
 40
1
 40
1
 10
51.395784
 20
199.230597
 30
0.0
 10
51.358149
 20
199.224331
 30
0.0
 10
51.314244
 20
199.218066
 30
0.0
 10
51.295428
 20
199.218066
 30
0.0
  0
SPLINE
  5
200
100
AcDbEntity
  8
Layer_1
 62
7
100
AcDbSpline
 70
8
 71
3
 72
8
 73
4
 74
0
 40
0
 40
0
 40
0
 40
0
 40
1
 40
1
 40
1
 40
1
 10
51.295428
 20
199.218066
 30
0.0
 10
51.144891
 20
199.224331
 30
0.0
 10
51.031991
 20
199.280790
 30
0.0
 10
50.906546
 20
199.324695
 30
0.0
  0
LINE
  5
201
100
AcDbEntity
  8
Layer_1
 62
7
100
AcDbLine
 10
50.906546
 20
199.324695
 30
0.0
 11
50.768556
 21
199.399964
 31
0.0
  0
LINE
  5
202
100
AcDbEntity
  8
Layer_1
 62
7
100
AcDbLine
 10
50.768556
 20
199.399964
 30
0.0
 11
50.768556
 21
198.339948
 31
0.0
  0
SPLINE
  5
203
100
AcDbEntity
  8
Layer_1
 62
7
100
AcDbSpline
 70
8
 71
3
 72
8
 73
4
 74
0
 40
0
 40
0
 40
0
 40
0
 40
1
 40
1
 40
1
 40
1
 10
50.768556
 20
198.339948
 30
0.0
 10
50.768556
 20
198.227045
 30
0.0
 10
50.699561
 20
198.145506
 30
0.0
 10
50.605477
 20
198.145506
 30
0.0
  0
SPLINE
  5
204
100
AcDbEntity
  8
Layer_1
 62
7
100
AcDbSpline
 70
8
 71
3
 72
8
 73
4
 74
0
 40
0
 40
0
 40
0
 40
0
 40
1
 40
1
 40
1
 40
1
 10
50.605477
 20
198.145506
 30
0.0
 10
50.498847
 20
198.145506
 30
0.0
 10
50.417308
 20
198.233319
 30
0.0
 10
50.417308
 20
198.339948
 30
0.0
  0
LINE
  5
205
100
AcDbEntity
  8
Layer_1
 62
7
100
AcDbLine
 10
50.417308
 20
198.339948
 30
0.0
 11
50.423573
 21
201.632895
 31
0.0
  0
LINE
  5
206
100
AcDbEntity
  8
Layer_1
 62
7
100
AcDbLine
 10
50.423573
 20
201.632895
 30
0.0
 11
50.423579
 21
201.632881
 31
0.0
  0
LINE
  5
207
100
AcDbEntity
  8
Layer_1
 62
1
100
AcDbLine
 10
4.531356
 20
193.508930
 30
0.0
 11
168.531331
 21
193.508930
 31
0.0
  0
LINE
  5
208
100
AcDbEntity
  8
Layer_1
 62
1
100
AcDbLine
 10
168.531331
 20
193.508930
 30
0.0
 11
168.531331
 21
94.508931
 31
0.0
  0
LINE
  5
209
100
AcDbEntity
  8
Layer_1
 62
1
100
AcDbLine
 10
168.531331
 20
94.508931
 30
0.0
 11
4.531356
 21
94.508931
 31
0.0
  0
LINE
  5
20a
100
AcDbEntity
  8
Layer_1
 62
1
100
AcDbLine
 10
4.531356
 20
94.508931
 30
0.0
 11
4.531356
 21
193.508930
 31
0.0
  0
LINE
  5
20b
100
AcDbEntity
  8
Layer_1
 62
1
100
AcDbLine
 10
4.531356
 20
193.508930
 30
0.0
 11
4.531356
 21
193.508930
 31
0.0
  0
LINE
  5
20c
100
AcDbEntity
  8
Layer_1
 62
1
100
AcDbLine
 10
37.531350
 20
175.008925
 30
0.0
 11
135.531352
 21
175.008925
 31
0.0
  0
LINE
  5
20d
100
AcDbEntity
  8
Layer_1
 62
1
100
AcDbLine
 10
135.531352
 20
175.008925
 30
0.0
 11
135.531352
 21
134.008922
 31
0.0
  0
LINE
  5
20e
100
AcDbEntity
  8
Layer_1
 62
1
100
AcDbLine
 10
135.531352
 20
134.008922
 30
0.0
 11
37.531350
 21
134.008922
 31
0.0
  0
LINE
  5
20f
100
AcDbEntity
  8
Layer_1
 62
1
100
AcDbLine
 10
37.531350
 20
134.008922
 30
0.0
 11
37.531350
 21
175.008925
 31
0.0
  0
LINE
  5
210
100
AcDbEntity
  8
Layer_1
 62
1
100
AcDbLine
 10
37.531350
 20
175.008925
 30
0.0
 11
37.531350
 21
175.008925
 31
0.0
  0
SPLINE
  5
211
100
AcDbEntity
  8
Layer_1
 62
1
100
AcDbSpline
 70
8
 71
3
 72
8
 73
4
 74
0
 40
0
 40
0
 40
0
 40
0
 40
1
 40
1
 40
1
 40
1
 10
11.331365
 20
188.708923
 30
0.0
 10
11.331365
 20
189.423456
 30
0.0
 10
10.950167
 20
190.083711
 30
0.0
 10
10.331363
 20
190.440978
 30
0.0
  0
SPLINE
  5
212
100
AcDbEntity
  8
Layer_1
 62
1
100
AcDbSpline
 70
8
 71
3
 72
8
 73
4
 74
0
 40
0
 40
0
 40
0
 40
0
 40
1
 40
1
 40
1
 40
1
 10
10.331363
 20
190.440978
 30
0.0
 10
9.712560
 20
190.798244
 30
0.0
 10
8.950162
 20
190.798244
 30
0.0
 10
8.331359
 20
190.440978
 30
0.0
  0
SPLINE
  5
213
100
AcDbEntity
  8
Layer_1
 62
1
100
AcDbSpline
 70
8
 71
3
 72
8
 73
4
 74
0
 40
0
 40
0
 40
0
 40
0
 40
1
 40
1
 40
1
 40
1
 10
8.331359
 20
190.440978
 30
0.0
 10
7.712555
 20
190.083711
 30
0.0
 10
7.331356
 20
189.423456
 30
0.0
 10
7.331356
 20
188.708923
 30
0.0
  0
SPLINE
  5
214
100
AcDbEntity
  8
Layer_1
 62
1
100
AcDbSpline
 70
8
 71
3
 72
8
 73
4
 74
0
 40
0
 40
0
 40
0
 40
0
 40
1
 40
1
 40
1
 40
1
 10
7.331356
 20
188.708923
 30
0.0
 10
7.331356
 20
187.604351
 30
0.0
 10
8.226789
 20
186.708919
 30
0.0
 10
9.331361
 20
186.708919
 30
0.0
  0
SPLINE
  5
215
100
AcDbEntity
  8
Layer_1
 62
1
100
AcDbSpline
 70
8
 71
3
 72
8
 73
4
 74
0
 40
0
 40
0
 40
0
 40
0
 40
1
 40
1
 40
1
 40
1
 10
9.331361
 20
186.708919
 30
0.0
 10
10.435933
 20
186.708919
 30
0.0
 10
11.331365
 20
187.604351
 30
0.0
 10
11.331365
 20
188.708923
 30
0.0
  0
LINE
  5
216
100
AcDbEntity
  8
Layer_1
 62
1
100
AcDbLine
 10
11.331365
 20
188.708923
 30
0.0
 11
11.331365
 21
188.708923
 31
0.0
  0
SPLINE
  5
217
100
AcDbEntity
  8
Layer_1
 62
1
100
AcDbSpline
 70
8
 71
3
 72
8
 73
4
 74
0
 40
0
 40
0
 40
0
 40
0
 40
1
 40
1
 40
1
 40
1
 10
165.731348
 20
188.708923
 30
0.0
 10
165.733582
 20
189.424937
 30
0.0
 10
165.352876
 20
190.087520
 30
0.0
 10
164.733159
 20
190.446174
 30
0.0
  0
SPLINE
  5
218
100
AcDbEntity
  8
Layer_1
 62
1
100
AcDbSpline
 70
8
 71
3
 72
8
 73
4
 74
0
 40
0
 40
0
 40
0
 40
0
 40
1
 40
1
 40
1
 40
1
 10
164.733159
 20
190.446174
 30
0.0
 10
164.113442
 20
190.804827
 30
0.0
 10
163.349274
 20
190.804827
 30
0.0
 10
162.729557
 20
190.446174
 30
0.0
  0
SPLINE
  5
219
100
AcDbEntity
  8
Layer_1
 62
1
100
AcDbSpline
 70
8
 71
3
 72
8
 73
4
 74
0
 40
0
 40
0
 40
0
 40
0
 40
1
 40
1
 40
1
 40
1
 10
162.729557
 20
190.446174
 30
0.0
 10
162.109840
 20
190.087520
 30
0.0
 10
161.729133
 20
189.424937
 30
0.0
 10
161.731367
 20
188.708923
 30
0.0
  0
SPLINE
  5
21a
100
AcDbEntity
  8
Layer_1
 62
1
100
AcDbSpline
 70
8
 71
3
 72
8
 73
4
 74
0
 40
0
 40
0
 40
0
 40
0
 40
1
 40
1
 40
1
 40
1
 10
161.731367
 20
188.708923
 30
0.0
 10
161.729133
 20
187.992909
 30
0.0
 10
162.109840
 20
187.330326
 30
0.0
 10
162.729557
 20
186.971673
 30
0.0
  0
SPLINE
  5
21b
100
AcDbEntity
  8
Layer_1
 62
1
100
AcDbSpline
 70
8
 71
3
 72
8
 73
4
 74
0
 40
0
 40
0
 40
0
 40
0
 40
1
 40
1
 40
1
 40
1
 10
162.729557
 20
186.971673
 30
0.0
 10
163.349274
 20
186.613019
 30
0.0
 10
164.113442
 20
186.613019
 30
0.0
 10
164.733159
 20
186.971673
 30
0.0
  0
SPLINE
  5
21c
100
AcDbEntity
  8
Layer_1
 62
1
100
AcDbSpline
 70
8
 71
3
 72
8
 73
4
 74
0
 40
0
 40
0
 40
0
 40
0
 40
1
 40
1
 40
1
 40
1
 10
164.733159
 20
186.971673
 30
0.0
 10
165.352876
 20
187.330326
 30
0.0
 10
165.733582
 20
187.992909
 30
0.0
 10
165.731348
 20
188.708923
 30
0.0
  0
LINE
  5
21d
100
AcDbEntity
  8
Layer_1
 62
1
100
AcDbLine
 10
165.731348
 20
188.708923
 30
0.0
 11
165.731348
 21
188.708923
 31
0.0
  0
SPLINE
  5
21e
100
AcDbEntity
  8
Layer_1
 62
1
100
AcDbSpline
 70
8
 71
3
 72
8
 73
4
 74
0
 40
0
 40
0
 40
0
 40
0
 40
1
 40
1
 40
1
 40
1
 10
11.331365
 20
99.308938
 30
0.0
 10
11.331365
 20
100.023471
 30
0.0
 10
10.950167
 20
100.683727
 30
0.0
 10
10.331363
 20
101.040993
 30
0.0
  0
SPLINE
  5
21f
100
AcDbEntity
  8
Layer_1
 62
1
100
AcDbSpline
 70
8
 71
3
 72
8
 73
4
 74
0
 40
0
 40
0
 40
0
 40
0
 40
1
 40
1
 40
1
 40
1
 10
10.331363
 20
101.040993
 30
0.0
 10
9.712560
 20
101.398259
 30
0.0
 10
8.950162
 20
101.398259
 30
0.0
 10
8.331359
 20
101.040993
 30
0.0
  0
SPLINE
  5
220
100
AcDbEntity
  8
Layer_1
 62
1
100
AcDbSpline
 70
8
 71
3
 72
8
 73
4
 74
0
 40
0
 40
0
 40
0
 40
0
 40
1
 40
1
 40
1
 40
1
 10
8.331359
 20
101.040993
 30
0.0
 10
7.712555
 20
100.683727
 30
0.0
 10
7.331356
 20
100.023471
 30
0.0
 10
7.331356
 20
99.308938
 30
0.0
  0
SPLINE
  5
221
100
AcDbEntity
  8
Layer_1
 62
1
100
AcDbSpline
 70
8
 71
3
 72
8
 73
4
 74
0
 40
0
 40
0
 40
0
 40
0
 40
1
 40
1
 40
1
 40
1
 10
7.331356
 20
99.308938
 30
0.0
 10
7.331356
 20
98.204366
 30
0.0
 10
8.226789
 20
97.308934
 30
0.0
 10
9.331361
 20
97.308934
 30
0.0
  0
SPLINE
  5
222
100
AcDbEntity
  8
Layer_1
 62
1
100
AcDbSpline
 70
8
 71
3
 72
8
 73
4
 74
0
 40
0
 40
0
 40
0
 40
0
 40
1
 40
1
 40
1
 40
1
 10
9.331361
 20
97.308934
 30
0.0
 10
10.435933
 20
97.308934
 30
0.0
 10
11.331365
 20
98.204366
 30
0.0
 10
11.331365
 20
99.308938
 30
0.0
  0
LINE
  5
223
100
AcDbEntity
  8
Layer_1
 62
1
100
AcDbLine
 10
11.331365
 20
99.308938
 30
0.0
 11
11.331365
 21
99.308938
 31
0.0
  0
SPLINE
  5
224
100
AcDbEntity
  8
Layer_1
 62
1
100
AcDbSpline
 70
8
 71
3
 72
8
 73
4
 74
0
 40
0
 40
0
 40
0
 40
0
 40
1
 40
1
 40
1
 40
1
 10
165.731348
 20
99.308938
 30
0.0
 10
165.733582
 20
100.024953
 30
0.0
 10
165.352876
 20
100.687535
 30
0.0
 10
164.733159
 20
101.046189
 30
0.0
  0
SPLINE
  5
225
100
AcDbEntity
  8
Layer_1
 62
1
100
AcDbSpline
 70
8
 71
3
 72
8
 73
4
 74
0
 40
0
 40
0
 40
0
 40
0
 40
1
 40
1
 40
1
 40
1
 10
164.733159
 20
101.046189
 30
0.0
 10
164.113442
 20
101.404842
 30
0.0
 10
163.349274
 20
101.404842
 30
0.0
 10
162.729557
 20
101.046189
 30
0.0
  0
SPLINE
  5
226
100
AcDbEntity
  8
Layer_1
 62
1
100
AcDbSpline
 70
8
 71
3
 72
8
 73
4
 74
0
 40
0
 40
0
 40
0
 40
0
 40
1
 40
1
 40
1
 40
1
 10
162.729557
 20
101.046189
 30
0.0
 10
162.109840
 20
100.687535
 30
0.0
 10
161.729133
 20
100.024953
 30
0.0
 10
161.731367
 20
99.308938
 30
0.0
  0
SPLINE
  5
227
100
AcDbEntity
  8
Layer_1
 62
1
100
AcDbSpline
 70
8
 71
3
 72
8
 73
4
 74
0
 40
0
 40
0
 40
0
 40
0
 40
1
 40
1
 40
1
 40
1
 10
161.731367
 20
99.308938
 30
0.0
 10
161.729133
 20
98.592924
 30
0.0
 10
162.109840
 20
97.930341
 30
0.0
 10
162.729557
 20
97.571688
 30
0.0
  0
SPLINE
  5
228
100
AcDbEntity
  8
Layer_1
 62
1
100
AcDbSpline
 70
8
 71
3
 72
8
 73
4
 74
0
 40
0
 40
0
 40
0
 40
0
 40
1
 40
1
 40
1
 40
1
 10
162.729557
 20
97.571688
 30
0.0
 10
163.349274
 20
97.213034
 30
0.0
 10
164.113442
 20
97.213034
 30
0.0
 10
164.733159
 20
97.571688
 30
0.0
  0
SPLINE
  5
229
100
AcDbEntity
  8
Layer_1
 62
1
100
AcDbSpline
 70
8
 71
3
 72
8
 73
4
 74
0
 40
0
 40
0
 40
0
 40
0
 40
1
 40
1
 40
1
 40
1
 10
164.733159
 20
97.571688
 30
0.0
 10
165.352876
 20
97.930341
 30
0.0
 10
165.733582
 20
98.592924
 30
0.0
 10
165.731348
 20
99.308938
 30
0.0
  0
LINE
  5
22a
100
AcDbEntity
  8
Layer_1
 62
1
100
AcDbLine
 10
165.731348
 20
99.308938
 30
0.0
 11
165.731348
 21
99.308938
 31
0.0
  0
SPLINE
  5
22b
100
AcDbEntity
  8
Layer_1
 62
1
100
AcDbSpline
 70
8
 71
3
 72
8
 73
4
 74
0
 40
0
 40
0
 40
0
 40
0
 40
1
 40
1
 40
1
 40
1
 10
57.031354
 20
114.508947
 30
0.0
 10
57.033363
 20
117.368411
 30
0.0
 10
55.509012
 20
120.011524
 30
0.0
 10
53.032979
 20
121.441836
 30
0.0
  0
SPLINE
  5
22c
100
AcDbEntity
  8
Layer_1
 62
1
100
AcDbSpline
 70
8
 71
3
 72
8
 73
4
 74
0
 40
0
 40
0
 40
0
 40
0
 40
1
 40
1
 40
1
 40
1
 10
53.032979
 20
121.441836
 30
0.0
 10
50.556945
 20
122.872148
 30
0.0
 10
47.505766
 20
122.872148
 30
0.0
 10
45.029733
 20
121.441836
 30
0.0
  0
SPLINE
  5
22d
100
AcDbEntity
  8
Layer_1
 62
1
100
AcDbSpline
 70
8
 71
3
 72
8
 73
4
 74
0
 40
0
 40
0
 40
0
 40
0
 40
1
 40
1
 40
1
 40
1
 10
45.029733
 20
121.441836
 30
0.0
 10
42.553699
 20
120.011524
 30
0.0
 10
41.029348
 20
117.368411
 30
0.0
 10
41.031358
 20
114.508947
 30
0.0
  0
SPLINE
  5
22e
100
AcDbEntity
  8
Layer_1
 62
1
100
AcDbSpline
 70
8
 71
3
 72
8
 73
4
 74
0
 40
0
 40
0
 40
0
 40
0
 40
1
 40
1
 40
1
 40
1
 10
41.031358
 20
114.508947
 30
0.0
 10
41.029348
 20
111.649484
 30
0.0
 10
42.553699
 20
109.006371
 30
0.0
 10
45.029733
 20
107.576059
 30
0.0
  0
SPLINE
  5
22f
100
AcDbEntity
  8
Layer_1
 62
1
100
AcDbSpline
 70
8
 71
3
 72
8
 73
4
 74
0
 40
0
 40
0
 40
0
 40
0
 40
1
 40
1
 40
1
 40
1
 10
45.029733
 20
107.576059
 30
0.0
 10
47.505766
 20
106.145747
 30
0.0
 10
50.556945
 20
106.145747
 30
0.0
 10
53.032979
 20
107.576059
 30
0.0
  0
SPLINE
  5
230
100
AcDbEntity
  8
Layer_1
 62
1
100
AcDbSpline
 70
8
 71
3
 72
8
 73
4
 74
0
 40
0
 40
0
 40
0
 40
0
 40
1
 40
1
 40
1
 40
1
 10
53.032979
 20
107.576059
 30
0.0
 10
55.509012
 20
109.006371
 30
0.0
 10
57.033363
 20
111.649484
 30
0.0
 10
57.031354
 20
114.508947
 30
0.0
  0
LINE
  5
231
100
AcDbEntity
  8
Layer_1
 62
1
100
AcDbLine
 10
57.031354
 20
114.508947
 30
0.0
 11
57.031354
 21
114.508947
 31
0.0
  0
SPLINE
  5
232
100
AcDbEntity
  8
Layer_1
 62
1
100
AcDbSpline
 70
8
 71
3
 72
8
 73
4
 74
0
 40
0
 40
0
 40
0
 40
0
 40
1
 40
1
 40
1
 40
1
 10
128.031353
 20
114.508947
 30
0.0
 10
128.034197
 20
115.939901
 30
0.0
 10
127.272426
 20
117.263375
 30
0.0
 10
126.033656
 20
117.979674
 30
0.0
  0
SPLINE
  5
233
100
AcDbEntity
  8
Layer_1
 62
1
100
AcDbSpline
 70
8
 71
3
 72
8
 73
4
 74
0
 40
0
 40
0
 40
0
 40
0
 40
1
 40
1
 40
1
 40
1
 10
126.033656
 20
117.979674
 30
0.0
 10
124.794886
 20
118.695973
 30
0.0
 10
123.267836
 20
118.695973
 30
0.0
 10
122.029066
 20
117.979674
 30
0.0
  0
SPLINE
  5
234
100
AcDbEntity
  8
Layer_1
 62
1
100
AcDbSpline
 70
8
 71
3
 72
8
 73
4
 74
0
 40
0
 40
0
 40
0
 40
0
 40
1
 40
1
 40
1
 40
1
 10
122.029066
 20
117.979674
 30
0.0
 10
120.790296
 20
117.263375
 30
0.0
 10
120.028525
 20
115.939901
 30
0.0
 10
120.031369
 20
114.508947
 30
0.0
  0
SPLINE
  5
235
100
AcDbEntity
  8
Layer_1
 62
1
100
AcDbSpline
 70
8
 71
3
 72
8
 73
4
 74
0
 40
0
 40
0
 40
0
 40
0
 40
1
 40
1
 40
1
 40
1
 10
120.031369
 20
114.508947
 30
0.0
 10
120.028525
 20
113.077994
 30
0.0
 10
120.790296
 20
111.754520
 30
0.0
 10
122.029066
 20
111.038221
 30
0.0
  0
SPLINE
  5
236
100
AcDbEntity
  8
Layer_1
 62
1
100
AcDbSpline
 70
8
 71
3
 72
8
 73
4
 74
0
 40
0
 40
0
 40
0
 40
0
 40
1
 40
1
 40
1
 40
1
 10
122.029066
 20
111.038221
 30
0.0
 10
123.267836
 20
110.321922
 30
0.0
 10
124.794886
 20
110.321922
 30
0.0
 10
126.033656
 20
111.038221
 30
0.0
  0
SPLINE
  5
237
100
AcDbEntity
  8
Layer_1
 62
1
100
AcDbSpline
 70
8
 71
3
 72
8
 73
4
 74
0
 40
0
 40
0
 40
0
 40
0
 40
1
 40
1
 40
1
 40
1
 10
126.033656
 20
111.038221
 30
0.0
 10
127.272426
 20
111.754520
 30
0.0
 10
128.034197
 20
113.077994
 30
0.0
 10
128.031353
 20
114.508947
 30
0.0
  0
LINE
  5
238
100
AcDbEntity
  8
Layer_1
 62
1
100
AcDbLine
 10
128.031353
 20
114.508947
 30
0.0
 11
128.031353
 21
114.508947
 31
0.0
  0
SPLINE
  5
239
100
AcDbEntity
  8
Layer_1
 62
1
100
AcDbSpline
 70
8
 71
3
 72
8
 73
4
 74
0
 40
0
 40
0
 40
0
 40
0
 40
1
 40
1
 40
1
 40
1
 10
41.781363
 20
127.008936
 30
0.0
 10
41.781363
 20
127.634153
 30
0.0
 10
41.447814
 20
128.211876
 30
0.0
 10
40.906361
 20
128.524484
 30
0.0
  0
SPLINE
  5
23a
100
AcDbEntity
  8
Layer_1
 62
1
100
AcDbSpline
 70
8
 71
3
 72
8
 73
4
 74
0
 40
0
 40
0
 40
0
 40
0
 40
1
 40
1
 40
1
 40
1
 10
40.906361
 20
128.524484
 30
0.0
 10
40.364908
 20
128.837092
 30
0.0
 10
39.697811
 20
128.837092
 30
0.0
 10
39.156358
 20
128.524484
 30
0.0
  0
SPLINE
  5
23b
100
AcDbEntity
  8
Layer_1
 62
1
100
AcDbSpline
 70
8
 71
3
 72
8
 73
4
 74
0
 40
0
 40
0
 40
0
 40
0
 40
1
 40
1
 40
1
 40
1
 10
39.156358
 20
128.524484
 30
0.0
 10
38.614905
 20
128.211876
 30
0.0
 10
38.281356
 20
127.634153
 30
0.0
 10
38.281356
 20
127.008936
 30
0.0
  0
SPLINE
  5
23c
100
AcDbEntity
  8
Layer_1
 62
1
100
AcDbSpline
 70
8
 71
3
 72
8
 73
4
 74
0
 40
0
 40
0
 40
0
 40
0
 40
1
 40
1
 40
1
 40
1
 10
38.281356
 20
127.008936
 30
0.0
 10
38.281356
 20
126.383720
 30
0.0
 10
38.614905
 20
125.805997
 30
0.0
 10
39.156358
 20
125.493389
 30
0.0
  0
SPLINE
  5
23d
100
AcDbEntity
  8
Layer_1
 62
1
100
AcDbSpline
 70
8
 71
3
 72
8
 73
4
 74
0
 40
0
 40
0
 40
0
 40
0
 40
1
 40
1
 40
1
 40
1
 10
39.156358
 20
125.493389
 30
0.0
 10
39.697811
 20
125.180781
 30
0.0
 10
40.364908
 20
125.180781
 30
0.0
 10
40.906361
 20
125.493389
 30
0.0
  0
SPLINE
  5
23e
100
AcDbEntity
  8
Layer_1
 62
1
100
AcDbSpline
 70
8
 71
3
 72
8
 73
4
 74
0
 40
0
 40
0
 40
0
 40
0
 40
1
 40
1
 40
1
 40
1
 10
40.906361
 20
125.493389
 30
0.0
 10
41.447814
 20
125.805997
 30
0.0
 10
41.781363
 20
126.383720
 30
0.0
 10
41.781363
 20
127.008936
 30
0.0
  0
LINE
  5
23f
100
AcDbEntity
  8
Layer_1
 62
1
100
AcDbLine
 10
41.781363
 20
127.008936
 30
0.0
 11
41.781363
 21
127.008936
 31
0.0
  0
SPLINE
  5
240
100
AcDbEntity
  8
Layer_1
 62
1
100
AcDbSpline
 70
8
 71
3
 72
8
 73
4
 74
0
 40
0
 40
0
 40
0
 40
0
 40
1
 40
1
 40
1
 40
1
 10
41.781363
 20
182.008939
 30
0.0
 10
41.781363
 20
182.634155
 30
0.0
 10
41.447814
 20
183.211879
 30
0.0
 10
40.906361
 20
183.524487
 30
0.0
  0
SPLINE
  5
241
100
AcDbEntity
  8
Layer_1
 62
1
100
AcDbSpline
 70
8
 71
3
 72
8
 73
4
 74
0
 40
0
 40
0
 40
0
 40
0
 40
1
 40
1
 40
1
 40
1
 10
40.906361
 20
183.524487
 30
0.0
 10
40.364908
 20
183.837095
 30
0.0
 10
39.697811
 20
183.837095
 30
0.0
 10
39.156358
 20
183.524487
 30
0.0
  0
SPLINE
  5
242
100
AcDbEntity
  8
Layer_1
 62
1
100
AcDbSpline
 70
8
 71
3
 72
8
 73
4
 74
0
 40
0
 40
0
 40
0
 40
0
 40
1
 40
1
 40
1
 40
1
 10
39.156358
 20
183.524487
 30
0.0
 10
38.614905
 20
183.211879
 30
0.0
 10
38.281356
 20
182.634155
 30
0.0
 10
38.281356
 20
182.008939
 30
0.0
  0
SPLINE
  5
243
100
AcDbEntity
  8
Layer_1
 62
1
100
AcDbSpline
 70
8
 71
3
 72
8
 73
4
 74
0
 40
0
 40
0
 40
0
 40
0
 40
1
 40
1
 40
1
 40
1
 10
38.281356
 20
182.008939
 30
0.0
 10
38.281356
 20
181.383723
 30
0.0
 10
38.614905
 20
180.806000
 30
0.0
 10
39.156358
 20
180.493392
 30
0.0
  0
SPLINE
  5
244
100
AcDbEntity
  8
Layer_1
 62
1
100
AcDbSpline
 70
8
 71
3
 72
8
 73
4
 74
0
 40
0
 40
0
 40
0
 40
0
 40
1
 40
1
 40
1
 40
1
 10
39.156358
 20
180.493392
 30
0.0
 10
39.697811
 20
180.180784
 30
0.0
 10
40.364908
 20
180.180784
 30
0.0
 10
40.906361
 20
180.493392
 30
0.0
  0
SPLINE
  5
245
100
AcDbEntity
  8
Layer_1
 62
1
100
AcDbSpline
 70
8
 71
3
 72
8
 73
4
 74
0
 40
0
 40
0
 40
0
 40
0
 40
1
 40
1
 40
1
 40
1
 10
40.906361
 20
180.493392
 30
0.0
 10
41.447814
 20
180.806000
 30
0.0
 10
41.781363
 20
181.383723
 30
0.0
 10
41.781363
 20
182.008939
 30
0.0
  0
LINE
  5
246
100
AcDbEntity
  8
Layer_1
 62
1
100
AcDbLine
 10
41.781363
 20
182.008939
 30
0.0
 11
41.781363
 21
182.008939
 31
0.0
  0
SPLINE
  5
247
100
AcDbEntity
  8
Layer_1
 62
1
100
AcDbSpline
 70
8
 71
3
 72
8
 73
4
 74
0
 40
0
 40
0
 40
0
 40
0
 40
1
 40
1
 40
1
 40
1
 10
134.781346
 20
127.008936
 30
0.0
 10
134.783526
 20
127.635597
 30
0.0
 10
134.450457
 20
128.215591
 30
0.0
 10
133.908113
 20
128.529552
 30
0.0
  0
SPLINE
  5
248
100
AcDbEntity
  8
Layer_1
 62
1
100
AcDbSpline
 70
8
 71
3
 72
8
 73
4
 74
0
 40
0
 40
0
 40
0
 40
0
 40
1
 40
1
 40
1
 40
1
 10
133.908113
 20
128.529552
 30
0.0
 10
133.365769
 20
128.843513
 30
0.0
 10
132.696945
 20
128.843513
 30
0.0
 10
132.154601
 20
128.529552
 30
0.0
  0
SPLINE
  5
249
100
AcDbEntity
  8
Layer_1
 62
1
100
AcDbSpline
 70
8
 71
3
 72
8
 73
4
 74
0
 40
0
 40
0
 40
0
 40
0
 40
1
 40
1
 40
1
 40
1
 10
132.154601
 20
128.529552
 30
0.0
 10
131.612257
 20
128.215591
 30
0.0
 10
131.279188
 20
127.635597
 30
0.0
 10
131.281368
 20
127.008936
 30
0.0
  0
SPLINE
  5
24a
100
AcDbEntity
  8
Layer_1
 62
1
100
AcDbSpline
 70
8
 71
3
 72
8
 73
4
 74
0
 40
0
 40
0
 40
0
 40
0
 40
1
 40
1
 40
1
 40
1
 10
131.281368
 20
127.008936
 30
0.0
 10
131.279188
 20
126.382276
 30
0.0
 10
131.612257
 20
125.802282
 30
0.0
 10
132.154601
 20
125.488321
 30
0.0
  0
SPLINE
  5
24b
100
AcDbEntity
  8
Layer_1
 62
1
100
AcDbSpline
 70
8
 71
3
 72
8
 73
4
 74
0
 40
0
 40
0
 40
0
 40
0
 40
1
 40
1
 40
1
 40
1
 10
132.154601
 20
125.488321
 30
0.0
 10
132.696945
 20
125.174360
 30
0.0
 10
133.365769
 20
125.174360
 30
0.0
 10
133.908113
 20
125.488321
 30
0.0
  0
SPLINE
  5
24c
100
AcDbEntity
  8
Layer_1
 62
1
100
AcDbSpline
 70
8
 71
3
 72
8
 73
4
 74
0
 40
0
 40
0
 40
0
 40
0
 40
1
 40
1
 40
1
 40
1
 10
133.908113
 20
125.488321
 30
0.0
 10
134.450457
 20
125.802282
 30
0.0
 10
134.783526
 20
126.382276
 30
0.0
 10
134.781346
 20
127.008936
 30
0.0
  0
LINE
  5
24d
100
AcDbEntity
  8
Layer_1
 62
1
100
AcDbLine
 10
134.781346
 20
127.008936
 30
0.0
 11
134.781346
 21
127.008936
 31
0.0
  0
SPLINE
  5
24e
100
AcDbEntity
  8
Layer_1
 62
1
100
AcDbSpline
 70
8
 71
3
 72
8
 73
4
 74
0
 40
0
 40
0
 40
0
 40
0
 40
1
 40
1
 40
1
 40
1
 10
134.781346
 20
182.008939
 30
0.0
 10
134.783526
 20
182.635600
 30
0.0
 10
134.450457
 20
183.215593
 30
0.0
 10
133.908113
 20
183.529555
 30
0.0
  0
SPLINE
  5
24f
100
AcDbEntity
  8
Layer_1
 62
1
100
AcDbSpline
 70
8
 71
3
 72
8
 73
4
 74
0
 40
0
 40
0
 40
0
 40
0
 40
1
 40
1
 40
1
 40
1
 10
133.908113
 20
183.529555
 30
0.0
 10
133.365769
 20
183.843516
 30
0.0
 10
132.696945
 20
183.843516
 30
0.0
 10
132.154601
 20
183.529555
 30
0.0
  0
SPLINE
  5
250
100
AcDbEntity
  8
Layer_1
 62
1
100
AcDbSpline
 70
8
 71
3
 72
8
 73
4
 74
0
 40
0
 40
0
 40
0
 40
0
 40
1
 40
1
 40
1
 40
1
 10
132.154601
 20
183.529555
 30
0.0
 10
131.612257
 20
183.215593
 30
0.0
 10
131.279188
 20
182.635600
 30
0.0
 10
131.281368
 20
182.008939
 30
0.0
  0
SPLINE
  5
251
100
AcDbEntity
  8
Layer_1
 62
1
100
AcDbSpline
 70
8
 71
3
 72
8
 73
4
 74
0
 40
0
 40
0
 40
0
 40
0
 40
1
 40
1
 40
1
 40
1
 10
131.281368
 20
182.008939
 30
0.0
 10
131.279188
 20
181.382279
 30
0.0
 10
131.612257
 20
180.802285
 30
0.0
 10
132.154601
 20
180.488324
 30
0.0
  0
SPLINE
  5
252
100
AcDbEntity
  8
Layer_1
 62
1
100
AcDbSpline
 70
8
 71
3
 72
8
 73
4
 74
0
 40
0
 40
0
 40
0
 40
0
 40
1
 40
1
 40
1
 40
1
 10
132.154601
 20
180.488324
 30
0.0
 10
132.696945
 20
180.174363
 30
0.0
 10
133.365769
 20
180.174363
 30
0.0
 10
133.908113
 20
180.488324
 30
0.0
  0
SPLINE
  5
253
100
AcDbEntity
  8
Layer_1
 62
1
100
AcDbSpline
 70
8
 71
3
 72
8
 73
4
 74
0
 40
0
 40
0
 40
0
 40
0
 40
1
 40
1
 40
1
 40
1
 10
133.908113
 20
180.488324
 30
0.0
 10
134.450457
 20
180.802285
 30
0.0
 10
134.783526
 20
181.382279
 30
0.0
 10
134.781346
 20
182.008939
 30
0.0
  0
LINE
  5
254
100
AcDbEntity
  8
Layer_1
 62
1
100
AcDbLine
 10
134.781346
 20
182.008939
 30
0.0
 11
134.781346
 21
182.008939
 31
0.0
  0
SPLINE
  5
255
100
AcDbEntity
  8
Layer_1
 62
7
100
AcDbSpline
 70
8
 71
3
 72
8
 73
4
 74
0
 40
0
 40
0
 40
0
 40
0
 40
1
 40
1
 40
1
 40
1
 10
76.874897
 20
182.199928
 30
0.0
 10
76.684166
 20
182.648150
 30
0.0
 10
76.646020
 20
183.144054
 30
0.0
 10
76.646020
 20
183.554131
 30
0.0
  0
SPLINE
  5
256
100
AcDbEntity
  8
Layer_1
 62
7
100
AcDbSpline
 70
8
 71
3
 72
8
 73
4
 74
0
 40
0
 40
0
 40
0
 40
0
 40
1
 40
1
 40
1
 40
1
 10
76.646020
 20
183.554131
 30
0.0
 10
76.646020
 20
183.830692
 30
0.0
 10
76.693702
 20
184.326599
 30
0.0
 10
76.846288
 20
184.736674
 30
0.0
  0
SPLINE
  5
257
100
AcDbEntity
  8
Layer_1
 62
7
100
AcDbSpline
 70
8
 71
3
 72
8
 73
4
 74
0
 40
0
 40
0
 40
0
 40
0
 40
1
 40
1
 40
1
 40
1
 10
76.846288
 20
184.736674
 30
0.0
 10
77.008411
 20
185.146748
 30
0.0
 10
77.389876
 20
185.575898
 30
0.0
 10
78.000221
 20
185.604507
 30
0.0
  0
LINE
  5
258
100
AcDbEntity
  8
Layer_1
 62
7
100
AcDbLine
 10
78.000221
 20
185.604507
 30
0.0
 11
78.047906
 21
185.604507
 31
0.0
  0
SPLINE
  5
259
100
AcDbEntity
  8
Layer_1
 62
7
100
AcDbSpline
 70
8
 71
3
 72
8
 73
4
 74
0
 40
0
 40
0
 40
0
 40
0
 40
1
 40
1
 40
1
 40
1
 10
78.047906
 20
185.604507
 30
0.0
 10
79.058789
 20
185.594968
 30
0.0
 10
79.278132
 20
184.708065
 30
0.0
 10
79.278132
 20
184.669917
 30
0.0
  0
SPLINE
  5
25a
100
AcDbEntity
  8
Layer_1
 62
7
100
AcDbSpline
 70
8
 71
3
 72
8
 73
4
 74
0
 40
0
 40
0
 40
0
 40
0
 40
1
 40
1
 40
1
 40
1
 10
79.278132
 20
184.669917
 30
0.0
 10
79.306741
 20
184.526867
 30
0.0
 10
79.220912
 20
184.393356
 30
0.0
 10
79.077862
 20
184.355208
 30
0.0
  0
SPLINE
  5
25b
100
AcDbEntity
  8
Layer_1
 62
7
100
AcDbSpline
 70
8
 71
3
 72
8
 73
4
 74
0
 40
0
 40
0
 40
0
 40
0
 40
1
 40
1
 40
1
 40
1
 10
79.077862
 20
184.355208
 30
0.0
 10
78.934812
 20
184.326599
 30
0.0
 10
78.791762
 20
184.393356
 30
0.0
 10
78.772689
 20
184.498258
 30
0.0
  0
SPLINE
  5
25c
100
AcDbEntity
  8
Layer_1
 62
7
100
AcDbSpline
 70
8
 71
3
 72
8
 73
4
 74
0
 40
0
 40
0
 40
0
 40
0
 40
1
 40
1
 40
1
 40
1
 10
78.772689
 20
184.498258
 30
0.0
 10
78.734544
 20
184.612696
 30
0.0
 10
78.686860
 20
184.746210
 30
0.0
 10
78.629639
 20
184.812967
 30
0.0
  0
LINE
  5
25d
100
AcDbEntity
  8
Layer_1
 62
7
100
AcDbLine
 10
78.629639
 20
184.812967
 30
0.0
 11
78.629639
 21
184.803428
 31
0.0
  0
SPLINE
  5
25e
100
AcDbEntity
  8
Layer_1
 62
7
100
AcDbSpline
 70
8
 71
3
 72
8
 73
4
 74
0
 40
0
 40
0
 40
0
 40
0
 40
1
 40
1
 40
1
 40
1
 10
78.629639
 20
184.803428
 30
0.0
 10
78.524737
 20
184.936941
 30
0.0
 10
78.391223
 20
185.060916
 30
0.0
 10
78.047906
 20
185.060916
 30
0.0
  0
SPLINE
  5
25f
100
AcDbEntity
  8
Layer_1
 62
7
100
AcDbSpline
 70
8
 71
3
 72
8
 73
4
 74
0
 40
0
 40
0
 40
0
 40
0
 40
1
 40
1
 40
1
 40
1
 10
78.047906
 20
185.060916
 30
0.0
 10
77.656904
 20
185.051377
 30
0.0
 10
77.513854
 20
184.879721
 30
0.0
 10
77.342195
 20
184.526864
 30
0.0
  0
SPLINE
  5
260
100
AcDbEntity
  8
Layer_1
 62
7
100
AcDbSpline
 70
8
 71
3
 72
8
 73
4
 74
0
 40
0
 40
0
 40
0
 40
0
 40
1
 40
1
 40
1
 40
1
 10
77.342195
 20
184.526864
 30
0.0
 10
77.208681
 20
184.212155
 30
0.0
 10
77.180070
 20
183.802081
 30
0.0
 10
77.180070
 20
183.554129
 30
0.0
  0
SPLINE
  5
261
100
AcDbEntity
  8
Layer_1
 62
7
100
AcDbSpline
 70
8
 71
3
 72
8
 73
4
 74
0
 40
0
 40
0
 40
0
 40
0
 40
1
 40
1
 40
1
 40
1
 10
77.180070
 20
183.554129
 30
0.0
 10
77.180070
 20
183.182199
 30
0.0
 10
77.227754
 20
182.724440
 30
0.0
 10
77.361267
 20
182.409732
 30
0.0
  0
SPLINE
  5
262
100
AcDbEntity
  8
Layer_1
 62
7
100
AcDbSpline
 70
8
 71
3
 72
8
 73
4
 74
0
 40
0
 40
0
 40
0
 40
0
 40
1
 40
1
 40
1
 40
1
 10
77.361267
 20
182.409732
 30
0.0
 10
77.532926
 20
182.056875
 30
0.0
 10
77.675976
 20
181.904289
 30
0.0
 10
78.047906
 20
181.894752
 30
0.0
  0
SPLINE
  5
263
100
AcDbEntity
  8
Layer_1
 62
7
100
AcDbSpline
 70
8
 71
3
 72
8
 73
4
 74
0
 40
0
 40
0
 40
0
 40
0
 40
1
 40
1
 40
1
 40
1
 10
78.047906
 20
181.894752
 30
0.0
 10
78.667787
 20
181.875674
 30
0.0
 10
78.801301
 20
182.371584
 30
0.0
 10
78.829910
 20
182.514634
 30
0.0
  0
LINE
  5
264
100
AcDbEntity
  8
Layer_1
 62
7
100
AcDbLine
 10
78.829910
 20
182.514634
 30
0.0
 11
78.820370
 21
182.495555
 31
0.0
  0
SPLINE
  5
265
100
AcDbEntity
  8
Layer_1
 62
7
100
AcDbSpline
 70
8
 71
3
 72
8
 73
4
 74
0
 40
0
 40
0
 40
0
 40
0
 40
1
 40
1
 40
1
 40
1
 10
78.820370
 20
182.495555
 30
0.0
 10
78.829910
 20
182.524164
 30
0.0
 10
78.839449
 20
182.552776
 30
0.0
 10
78.839449
 20
182.562312
 30
0.0
  0
SPLINE
  5
266
100
AcDbEntity
  8
Layer_1
 62
7
100
AcDbSpline
 70
8
 71
3
 72
8
 73
4
 74
0
 40
0
 40
0
 40
0
 40
0
 40
1
 40
1
 40
1
 40
1
 10
78.839449
 20
182.562312
 30
0.0
 10
78.868058
 20
182.714899
 30
0.0
 10
78.992035
 20
182.819801
 30
0.0
 10
79.135085
 20
182.800728
 30
0.0
  0
SPLINE
  5
267
100
AcDbEntity
  8
Layer_1
 62
7
100
AcDbSpline
 70
8
 71
3
 72
8
 73
4
 74
0
 40
0
 40
0
 40
0
 40
0
 40
1
 40
1
 40
1
 40
1
 10
79.135085
 20
182.800728
 30
0.0
 10
79.278135
 20
182.781650
 30
0.0
 10
79.383037
 20
182.657678
 30
0.0
 10
79.363964
 20
182.505092
 30
0.0
  0
SPLINE
  5
268
100
AcDbEntity
  8
Layer_1
 62
7
100
AcDbSpline
 70
8
 71
3
 72
8
 73
4
 74
0
 40
0
 40
0
 40
0
 40
0
 40
1
 40
1
 40
1
 40
1
 10
79.363964
 20
182.505092
 30
0.0
 10
79.363964
 20
182.486013
 30
0.0
 10
79.220914
 20
181.379767
 30
0.0
 10
78.047909
 20
181.360695
 30
0.0
  0
SPLINE
  5
269
100
AcDbEntity
  8
Layer_1
 62
7
100
AcDbSpline
 70
8
 71
3
 72
8
 73
4
 74
0
 40
0
 40
0
 40
0
 40
0
 40
1
 40
1
 40
1
 40
1
 10
78.047909
 20
181.360695
 30
0.0
 10
77.437563
 20
181.360695
 30
0.0
 10
77.037025
 20
181.770769
 30
0.0
 10
76.874900
 20
182.199919
 30
0.0
  0
LINE
  5
26a
100
AcDbEntity
  8
Layer_1
 62
7
100
AcDbLine
 10
76.874900
 20
182.199919
 30
0.0
 11
76.874897
 21
182.199928
 31
0.0
  0
SPLINE
  5
26b
100
AcDbEntity
  8
Layer_1
 62
7
100
AcDbSpline
 70
8
 71
3
 72
8
 73
4
 74
0
 40
0
 40
0
 40
0
 40
0
 40
1
 40
1
 40
1
 40
1
 10
82.217502
 20
181.370239
 30
0.0
 10
82.103064
 20
181.370239
 30
0.0
 10
81.988623
 20
181.465605
 30
0.0
 10
81.950477
 20
181.589583
 30
0.0
  0
SPLINE
  5
26c
100
AcDbEntity
  8
Layer_1
 62
7
100
AcDbSpline
 70
8
 71
3
 72
8
 73
4
 74
0
 40
0
 40
0
 40
0
 40
0
 40
1
 40
1
 40
1
 40
1
 10
81.950477
 20
181.589583
 30
0.0
 10
81.597621
 20
183.315716
 30
0.0
 10
81.168471
 20
185.308871
 30
0.0
 10
80.815617
 20
187.035004
 30
0.0
  0
SPLINE
  5
26d
100
AcDbEntity
  8
Layer_1
 62
7
100
AcDbSpline
 70
8
 71
3
 72
8
 73
4
 74
0
 40
0
 40
0
 40
0
 40
0
 40
1
 40
1
 40
1
 40
1
 10
80.815617
 20
187.035004
 30
0.0
 10
80.796538
 20
187.168518
 30
0.0
 10
80.891910
 20
187.330640
 30
0.0
 10
81.025424
 20
187.368785
 30
0.0
  0
SPLINE
  5
26e
100
AcDbEntity
  8
Layer_1
 62
7
100
AcDbSpline
 70
8
 71
3
 72
8
 73
4
 74
0
 40
0
 40
0
 40
0
 40
0
 40
1
 40
1
 40
1
 40
1
 10
81.025424
 20
187.368785
 30
0.0
 10
81.178010
 20
187.397397
 30
0.0
 10
81.321057
 20
187.292492
 30
0.0
 10
81.349669
 20
187.139906
 30
0.0
  0
LINE
  5
26f
100
AcDbEntity
  8
Layer_1
 62
7
100
AcDbLine
 10
81.349669
 20
187.139906
 30
0.0
 11
82.312868
 21
182.342978
 31
0.0
  0
LINE
  5
270
100
AcDbEntity
  8
Layer_1
 62
7
100
AcDbLine
 10
82.312868
 20
182.342978
 30
0.0
 11
83.228385
 21
187.139906
 31
0.0
  0
SPLINE
  5
271
100
AcDbEntity
  8
Layer_1
 62
7
100
AcDbSpline
 70
8
 71
3
 72
8
 73
4
 74
0
 40
0
 40
0
 40
0
 40
0
 40
1
 40
1
 40
1
 40
1
 10
83.228385
 20
187.139906
 30
0.0
 10
83.256997
 20
187.292492
 30
0.0
 10
83.400047
 20
187.397397
 30
0.0
 10
83.552633
 20
187.368785
 30
0.0
  0
SPLINE
  5
272
100
AcDbEntity
  8
Layer_1
 62
7
100
AcDbSpline
 70
8
 71
3
 72
8
 73
4
 74
0
 40
0
 40
0
 40
0
 40
0
 40
1
 40
1
 40
1
 40
1
 10
83.552633
 20
187.368785
 30
0.0
 10
83.695680
 20
187.340176
 30
0.0
 10
83.800585
 20
187.178054
 30
0.0
 10
83.752901
 20
187.035004
 30
0.0
  0
LINE
  5
273
100
AcDbEntity
  8
Layer_1
 62
7
100
AcDbLine
 10
83.752901
 20
187.035004
 30
0.0
 11
82.665724
 21
181.589583
 31
0.0
  0
SPLINE
  5
274
100
AcDbEntity
  8
Layer_1
 62
7
100
AcDbSpline
 70
8
 71
3
 72
8
 73
4
 74
0
 40
0
 40
0
 40
0
 40
0
 40
1
 40
1
 40
1
 40
1
 10
82.665724
 20
181.589583
 30
0.0
 10
82.627576
 20
181.465605
 30
0.0
 10
82.513138
 20
181.370239
 30
0.0
 10
82.398697
 20
181.370239
 30
0.0
  0
LINE
  5
275
100
AcDbEntity
  8
Layer_1
 62
7
100
AcDbLine
 10
82.398697
 20
181.370239
 30
0.0
 11
82.217502
 21
181.370239
 31
0.0
  0
LINE
  5
276
100
AcDbEntity
  8
Layer_1
 62
7
100
AcDbLine
 10
82.217502
 20
181.370239
 30
0.0
 11
82.217502
 21
181.370239
 31
0.0
  0
SPLINE
  5
277
100
AcDbEntity
  8
Layer_1
 62
7
100
AcDbSpline
 70
8
 71
3
 72
8
 73
4
 74
0
 40
0
 40
0
 40
0
 40
0
 40
1
 40
1
 40
1
 40
1
 10
87.359836
 20
183.859304
 30
0.0
 10
87.350297
 20
184.088183
 30
0.0
 10
87.302616
 20
184.469649
 30
0.0
 10
87.197714
 20
184.698528
 30
0.0
  0
SPLINE
  5
278
100
AcDbEntity
  8
Layer_1
 62
7
100
AcDbSpline
 70
8
 71
3
 72
8
 73
4
 74
0
 40
0
 40
0
 40
0
 40
0
 40
1
 40
1
 40
1
 40
1
 10
87.197714
 20
184.698528
 30
0.0
 10
87.064200
 20
184.927408
 30
0.0
 10
86.997443
 20
185.070455
 30
0.0
 10
86.577832
 20
185.079994
 30
0.0
  0
SPLINE
  5
279
100
AcDbEntity
  8
Layer_1
 62
7
100
AcDbSpline
 70
8
 71
3
 72
8
 73
4
 74
0
 40
0
 40
0
 40
0
 40
0
 40
1
 40
1
 40
1
 40
1
 10
86.577832
 20
185.079994
 30
0.0
 10
86.244051
 20
185.060916
 30
0.0
 10
86.053317
 20
184.851115
 30
0.0
 10
85.929342
 20
184.488722
 30
0.0
  0
LINE
  5
27a
100
AcDbEntity
  8
Layer_1
 62
7
100
AcDbLine
 10
85.929342
 20
184.488722
 30
0.0
 11
85.929342
 21
184.498261
 31
0.0
  0
SPLINE
  5
27b
100
AcDbEntity
  8
Layer_1
 62
7
100
AcDbSpline
 70
8
 71
3
 72
8
 73
4
 74
0
 40
0
 40
0
 40
0
 40
0
 40
1
 40
1
 40
1
 40
1
 10
85.929342
 20
184.498261
 30
0.0
 10
85.862585
 20
184.336138
 30
0.0
 10
85.824437
 20
184.069111
 30
0.0
 10
85.805365
 20
183.887916
 30
0.0
  0
LINE
  5
27c
100
AcDbEntity
  8
Layer_1
 62
7
100
AcDbLine
 10
85.805365
 20
183.887916
 30
0.0
 11
87.359836
 21
183.859307
 31
0.0
  0
LINE
  5
27d
100
AcDbEntity
  8
Layer_1
 62
7
100
AcDbLine
 10
87.359836
 20
183.859307
 30
0.0
 11
87.359836
 21
183.859304
 31
0.0
  0
SPLINE
  5
27e
100
AcDbEntity
  8
Layer_1
 62
7
100
AcDbSpline
 70
8
 71
3
 72
8
 73
4
 74
0
 40
0
 40
0
 40
0
 40
0
 40
1
 40
1
 40
1
 40
1
 10
86.472930
 20
181.389312
 30
0.0
 10
85.862585
 20
181.436996
 30
0.0
 10
85.538337
 20
181.942439
 30
0.0
 10
85.414363
 20
182.352514
 30
0.0
  0
SPLINE
  5
27f
100
AcDbEntity
  8
Layer_1
 62
7
100
AcDbSpline
 70
8
 71
3
 72
8
 73
4
 74
0
 40
0
 40
0
 40
0
 40
0
 40
1
 40
1
 40
1
 40
1
 10
85.414363
 20
182.352514
 30
0.0
 10
85.261777
 20
182.810273
 30
0.0
 10
85.252240
 20
183.268031
 30
0.0
 10
85.252240
 20
183.477838
 30
0.0
  0
SPLINE
  5
280
100
AcDbEntity
  8
Layer_1
 62
7
100
AcDbSpline
 70
8
 71
3
 72
8
 73
4
 74
0
 40
0
 40
0
 40
0
 40
0
 40
1
 40
1
 40
1
 40
1
 10
85.252240
 20
183.477838
 30
0.0
 10
85.261779
 20
183.821156
 30
0.0
 10
85.271319
 20
184.259842
 30
0.0
 10
85.414363
 20
184.669917
 30
0.0
  0
SPLINE
  5
281
100
AcDbEntity
  8
Layer_1
 62
7
100
AcDbSpline
 70
8
 71
3
 72
8
 73
4
 74
0
 40
0
 40
0
 40
0
 40
0
 40
1
 40
1
 40
1
 40
1
 10
85.414363
 20
184.669917
 30
0.0
 10
85.538337
 20
185.060919
 30
0.0
 10
85.891194
 20
185.547289
 30
0.0
 10
86.511076
 20
185.575898
 30
0.0
  0
SPLINE
  5
282
100
AcDbEntity
  8
Layer_1
 62
7
100
AcDbSpline
 70
8
 71
3
 72
8
 73
4
 74
0
 40
0
 40
0
 40
0
 40
0
 40
1
 40
1
 40
1
 40
1
 10
86.511076
 20
185.575898
 30
0.0
 10
87.150030
 20
185.604507
 30
0.0
 10
87.531495
 20
185.242117
 30
0.0
 10
87.693621
 20
184.879724
 30
0.0
  0
SPLINE
  5
283
100
AcDbEntity
  8
Layer_1
 62
7
100
AcDbSpline
 70
8
 71
3
 72
8
 73
4
 74
0
 40
0
 40
0
 40
0
 40
0
 40
1
 40
1
 40
1
 40
1
 10
87.693621
 20
184.879724
 30
0.0
 10
87.874816
 20
184.507794
 30
0.0
 10
87.893888
 20
184.116792
 30
0.0
 10
87.893888
 20
183.878377
 30
0.0
  0
SPLINE
  5
284
100
AcDbEntity
  8
Layer_1
 62
7
100
AcDbSpline
 70
8
 71
3
 72
8
 73
4
 74
0
 40
0
 40
0
 40
0
 40
0
 40
1
 40
1
 40
1
 40
1
 10
87.893888
 20
183.878377
 30
0.0
 10
87.893888
 20
183.773475
 30
0.0
 10
87.884349
 20
183.706718
 30
0.0
 10
87.884349
 20
183.668570
 30
0.0
  0
SPLINE
  5
285
100
AcDbEntity
  8
Layer_1
 62
7
100
AcDbSpline
 70
8
 71
3
 72
8
 73
4
 74
0
 40
0
 40
0
 40
0
 40
0
 40
1
 40
1
 40
1
 40
1
 10
87.884349
 20
183.668570
 30
0.0
 10
87.865271
 20
183.515983
 30
0.0
 10
87.750836
 20
183.411081
 30
0.0
 10
87.617325
 20
183.411081
 30
0.0
  0
LINE
  5
286
100
AcDbEntity
  8
Layer_1
 62
7
100
AcDbLine
 10
87.617325
 20
183.411081
 30
0.0
 11
85.786289
 21
183.411081
 31
0.0
  0
SPLINE
  5
287
100
AcDbEntity
  8
Layer_1
 62
7
100
AcDbSpline
 70
8
 71
3
 72
8
 73
4
 74
0
 40
0
 40
0
 40
0
 40
0
 40
1
 40
1
 40
1
 40
1
 10
85.786289
 20
183.411081
 30
0.0
 10
85.795829
 20
183.144054
 30
0.0
 10
85.833971
 20
182.791200
 30
0.0
 10
85.919800
 20
182.514636
 30
0.0
  0
SPLINE
  5
288
100
AcDbEntity
  8
Layer_1
 62
7
100
AcDbSpline
 70
8
 71
3
 72
8
 73
4
 74
0
 40
0
 40
0
 40
0
 40
0
 40
1
 40
1
 40
1
 40
1
 10
85.919800
 20
182.514636
 30
0.0
 10
86.072387
 20
182.133171
 30
0.0
 10
86.234512
 20
181.961512
 30
0.0
 10
86.492000
 20
181.923364
 30
0.0
  0
SPLINE
  5
289
100
AcDbEntity
  8
Layer_1
 62
7
100
AcDbSpline
 70
8
 71
3
 72
8
 73
4
 74
0
 40
0
 40
0
 40
0
 40
0
 40
1
 40
1
 40
1
 40
1
 10
86.492000
 20
181.923364
 30
0.0
 10
86.949759
 20
181.866146
 30
0.0
 10
87.150027
 20
182.161782
 30
0.0
 10
87.264468
 20
182.362050
 30
0.0
  0
LINE
  5
28a
100
AcDbEntity
  8
Layer_1
 62
7
100
AcDbLine
 10
87.264468
 20
182.362050
 30
0.0
 11
87.254929
 21
182.352511
 31
0.0
  0
LINE
  5
28b
100
AcDbEntity
  8
Layer_1
 62
7
100
AcDbLine
 10
87.254929
 20
182.352511
 30
0.0
 11
87.331222
 21
182.466952
 31
0.0
  0
SPLINE
  5
28c
100
AcDbEntity
  8
Layer_1
 62
7
100
AcDbSpline
 70
8
 71
3
 72
8
 73
4
 74
0
 40
0
 40
0
 40
0
 40
0
 40
1
 40
1
 40
1
 40
1
 10
87.331222
 20
182.466952
 30
0.0
 10
87.388442
 20
182.571854
 30
0.0
 10
87.550565
 20
182.609999
 30
0.0
 10
87.665003
 20
182.533706
 30
0.0
  0
SPLINE
  5
28d
100
AcDbEntity
  8
Layer_1
 62
7
100
AcDbSpline
 70
8
 71
3
 72
8
 73
4
 74
0
 40
0
 40
0
 40
0
 40
0
 40
1
 40
1
 40
1
 40
1
 10
87.665003
 20
182.533706
 30
0.0
 10
87.798517
 20
182.466952
 30
0.0
 10
87.846201
 20
182.323902
 30
0.0
 10
87.788981
 20
182.209461
 30
0.0
  0
SPLINE
  5
28e
100
AcDbEntity
  8
Layer_1
 62
7
100
AcDbSpline
 70
8
 71
3
 72
8
 73
4
 74
0
 40
0
 40
0
 40
0
 40
0
 40
1
 40
1
 40
1
 40
1
 10
87.788981
 20
182.209461
 30
0.0
 10
87.750833
 20
182.123632
 30
0.0
 10
87.417051
 20
181.389309
 30
0.0
 10
86.596899
 20
181.389309
 30
0.0
  0
LINE
  5
28f
100
AcDbEntity
  8
Layer_1
 62
7
100
AcDbLine
 10
86.596899
 20
181.389309
 30
0.0
 11
86.472925
 21
181.389309
 31
0.0
  0
LINE
  5
290
100
AcDbEntity
  8
Layer_1
 62
7
100
AcDbLine
 10
86.472925
 20
181.389309
 30
0.0
 11
86.472930
 21
181.389312
 31
0.0
  0
SPLINE
  5
291
100
AcDbEntity
  8
Layer_1
 62
7
100
AcDbSpline
 70
8
 71
3
 72
8
 73
4
 74
0
 40
0
 40
0
 40
0
 40
0
 40
1
 40
1
 40
1
 40
1
 10
90.003573
 20
185.270726
 30
0.0
 10
90.003573
 20
185.413776
 30
0.0
 10
90.118011
 20
185.537750
 30
0.0
 10
90.261061
 20
185.537750
 30
0.0
  0
SPLINE
  5
292
100
AcDbEntity
  8
Layer_1
 62
7
100
AcDbSpline
 70
8
 71
3
 72
8
 73
4
 74
0
 40
0
 40
0
 40
0
 40
0
 40
1
 40
1
 40
1
 40
1
 10
90.261061
 20
185.537750
 30
0.0
 10
90.385038
 20
185.537750
 30
0.0
 10
90.499477
 20
185.404239
 30
0.0
 10
90.556697
 20
185.223041
 30
0.0
  0
SPLINE
  5
293
100
AcDbEntity
  8
Layer_1
 62
7
100
AcDbSpline
 70
8
 71
3
 72
8
 73
4
 74
0
 40
0
 40
0
 40
0
 40
0
 40
1
 40
1
 40
1
 40
1
 10
90.556697
 20
185.223041
 30
0.0
 10
90.842797
 20
185.442384
 30
0.0
 10
91.138434
 20
185.556825
 30
0.0
 10
91.414994
 20
185.566362
 30
0.0
  0
SPLINE
  5
294
100
AcDbEntity
  8
Layer_1
 62
7
100
AcDbSpline
 70
8
 71
3
 72
8
 73
4
 74
0
 40
0
 40
0
 40
0
 40
0
 40
1
 40
1
 40
1
 40
1
 10
91.414994
 20
185.566362
 30
0.0
 10
91.691558
 20
185.566362
 30
0.0
 10
91.958583
 20
185.461457
 30
0.0
 10
92.168389
 20
185.242117
 30
0.0
  0
SPLINE
  5
295
100
AcDbEntity
  8
Layer_1
 62
7
100
AcDbSpline
 70
8
 71
3
 72
8
 73
4
 74
0
 40
0
 40
0
 40
0
 40
0
 40
1
 40
1
 40
1
 40
1
 10
92.168389
 20
185.242117
 30
0.0
 10
92.273291
 20
185.137212
 30
0.0
 10
92.282831
 20
184.984626
 30
0.0
 10
92.168389
 20
184.860651
 30
0.0
  0
SPLINE
  5
296
100
AcDbEntity
  8
Layer_1
 62
7
100
AcDbSpline
 70
8
 71
3
 72
8
 73
4
 74
0
 40
0
 40
0
 40
0
 40
0
 40
1
 40
1
 40
1
 40
1
 10
92.168389
 20
184.860651
 30
0.0
 10
92.073024
 20
184.765282
 30
0.0
 10
91.891826
 20
184.765282
 30
0.0
 10
91.796460
 20
184.860651
 30
0.0
  0
SPLINE
  5
297
100
AcDbEntity
  8
Layer_1
 62
7
100
AcDbSpline
 70
8
 71
3
 72
8
 73
4
 74
0
 40
0
 40
0
 40
0
 40
0
 40
1
 40
1
 40
1
 40
1
 10
91.796460
 20
184.860651
 30
0.0
 10
91.672485
 20
184.994162
 30
0.0
 10
91.548508
 20
185.041846
 30
0.0
 10
91.424531
 20
185.051382
 30
0.0
  0
SPLINE
  5
298
100
AcDbEntity
  8
Layer_1
 62
7
100
AcDbSpline
 70
8
 71
3
 72
8
 73
4
 74
0
 40
0
 40
0
 40
0
 40
0
 40
1
 40
1
 40
1
 40
1
 10
91.424531
 20
185.051382
 30
0.0
 10
91.023992
 20
185.089530
 30
0.0
 10
90.528088
 20
184.812967
 30
0.0
 10
90.528088
 20
184.259842
 30
0.0
  0
LINE
  5
299
100
AcDbEntity
  8
Layer_1
 62
7
100
AcDbLine
 10
90.528088
 20
184.259842
 30
0.0
 11
90.528088
 21
181.627731
 31
0.0
  0
SPLINE
  5
29a
100
AcDbEntity
  8
Layer_1
 62
7
100
AcDbSpline
 70
8
 71
3
 72
8
 73
4
 74
0
 40
0
 40
0
 40
0
 40
0
 40
1
 40
1
 40
1
 40
1
 10
90.528088
 20
181.627731
 30
0.0
 10
90.528088
 20
181.475144
 30
0.0
 10
90.413647
 20
181.360703
 30
0.0
 10
90.261061
 20
181.360703
 30
0.0
  0
SPLINE
  5
29b
100
AcDbEntity
  8
Layer_1
 62
7
100
AcDbSpline
 70
8
 71
3
 72
8
 73
4
 74
0
 40
0
 40
0
 40
0
 40
0
 40
1
 40
1
 40
1
 40
1
 10
90.261061
 20
181.360703
 30
0.0
 10
90.118011
 20
181.360703
 30
0.0
 10
90.003573
 20
181.475144
 30
0.0
 10
90.003573
 20
181.627731
 30
0.0
  0
LINE
  5
29c
100
AcDbEntity
  8
Layer_1
 62
7
100
AcDbLine
 10
90.003573
 20
181.627731
 30
0.0
 11
90.003573
 21
185.270726
 31
0.0
  0
LINE
  5
29d
100
AcDbEntity
  8
Layer_1
 62
7
100
AcDbLine
 10
90.003573
 20
185.270726
 30
0.0
 11
90.003573
 21
185.270726
 31
0.0
  0
SPLINE
  5
29e
100
AcDbEntity
  8
Layer_1
 62
7
100
AcDbSpline
 70
8
 71
3
 72
8
 73
4
 74
0
 40
0
 40
0
 40
0
 40
0
 40
1
 40
1
 40
1
 40
1
 10
94.096876
 20
185.079994
 30
0.0
 10
93.972901
 20
185.079994
 30
0.0
 10
93.858460
 20
185.175360
 30
0.0
 10
93.858460
 20
185.318410
 30
0.0
  0
SPLINE
  5
29f
100
AcDbEntity
  8
Layer_1
 62
7
100
AcDbSpline
 70
8
 71
3
 72
8
 73
4
 74
0
 40
0
 40
0
 40
0
 40
0
 40
1
 40
1
 40
1
 40
1
 10
93.858460
 20
185.318410
 30
0.0
 10
93.858460
 20
185.442384
 30
0.0
 10
93.972901
 20
185.547289
 30
0.0
 10
94.096876
 20
185.547289
 30
0.0
  0
LINE
  5
2a0
100
AcDbEntity
  8
Layer_1
 62
7
100
AcDbLine
 10
94.096876
 20
185.547289
 30
0.0
 11
94.535562
 21
185.547289
 31
0.0
  0
LINE
  5
2a1
100
AcDbEntity
  8
Layer_1
 62
7
100
AcDbLine
 10
94.535562
 20
185.547289
 30
0.0
 11
94.545101
 21
186.977783
 31
0.0
  0
SPLINE
  5
2a2
100
AcDbEntity
  8
Layer_1
 62
7
100
AcDbSpline
 70
8
 71
3
 72
8
 73
4
 74
0
 40
0
 40
0
 40
0
 40
0
 40
1
 40
1
 40
1
 40
1
 10
94.545101
 20
186.977783
 30
0.0
 10
94.545101
 20
187.120833
 30
0.0
 10
94.669079
 20
187.235274
 30
0.0
 10
94.802590
 20
187.235274
 30
0.0
  0
SPLINE
  5
2a3
100
AcDbEntity
  8
Layer_1
 62
7
100
AcDbSpline
 70
8
 71
3
 72
8
 73
4
 74
0
 40
0
 40
0
 40
0
 40
0
 40
1
 40
1
 40
1
 40
1
 10
94.802590
 20
187.235274
 30
0.0
 10
94.945640
 20
187.235274
 30
0.0
 10
95.079153
 20
187.111297
 30
0.0
 10
95.079153
 20
186.968247
 30
0.0
  0
LINE
  5
2a4
100
AcDbEntity
  8
Layer_1
 62
7
100
AcDbLine
 10
95.079153
 20
186.968247
 30
0.0
 11
95.060075
 21
185.547289
 31
0.0
  0
LINE
  5
2a5
100
AcDbEntity
  8
Layer_1
 62
7
100
AcDbLine
 10
95.060075
 20
185.547289
 30
0.0
 11
96.051886
 21
185.547289
 31
0.0
  0
SPLINE
  5
2a6
100
AcDbEntity
  8
Layer_1
 62
7
100
AcDbSpline
 70
8
 71
3
 72
8
 73
4
 74
0
 40
0
 40
0
 40
0
 40
0
 40
1
 40
1
 40
1
 40
1
 10
96.051886
 20
185.547289
 30
0.0
 10
96.185397
 20
185.547289
 30
0.0
 10
96.290301
 20
185.442384
 30
0.0
 10
96.290301
 20
185.318410
 30
0.0
  0
SPLINE
  5
2a7
100
AcDbEntity
  8
Layer_1
 62
7
100
AcDbSpline
 70
8
 71
3
 72
8
 73
4
 74
0
 40
0
 40
0
 40
0
 40
0
 40
1
 40
1
 40
1
 40
1
 10
96.290301
 20
185.318410
 30
0.0
 10
96.290301
 20
185.175360
 30
0.0
 10
96.185397
 20
185.079994
 30
0.0
 10
96.051886
 20
185.079994
 30
0.0
  0
LINE
  5
2a8
100
AcDbEntity
  8
Layer_1
 62
7
100
AcDbLine
 10
96.051886
 20
185.079994
 30
0.0
 11
95.060075
 21
185.079994
 31
0.0
  0
LINE
  5
2a9
100
AcDbEntity
  8
Layer_1
 62
7
100
AcDbLine
 10
95.060075
 20
185.079994
 30
0.0
 11
95.040997
 21
182.428807
 31
0.0
  0
SPLINE
  5
2aa
100
AcDbEntity
  8
Layer_1
 62
7
100
AcDbSpline
 70
8
 71
3
 72
8
 73
4
 74
0
 40
0
 40
0
 40
0
 40
0
 40
1
 40
1
 40
1
 40
1
 10
95.040997
 20
182.428807
 30
0.0
 10
95.040997
 20
182.333441
 30
0.0
 10
95.060075
 20
182.152243
 30
0.0
 10
95.107754
 20
182.075950
 30
0.0
  0
SPLINE
  5
2ab
100
AcDbEntity
  8
Layer_1
 62
7
100
AcDbSpline
 70
8
 71
3
 72
8
 73
4
 74
0
 40
0
 40
0
 40
0
 40
0
 40
1
 40
1
 40
1
 40
1
 10
95.107754
 20
182.075950
 30
0.0
 10
95.117293
 20
182.066411
 30
0.0
 10
95.126832
 20
182.047341
 30
0.0
 10
95.136365
 20
182.037805
 30
0.0
  0
SPLINE
  5
2ac
100
AcDbEntity
  8
Layer_1
 62
7
100
AcDbSpline
 70
8
 71
3
 72
8
 73
4
 74
0
 40
0
 40
0
 40
0
 40
0
 40
1
 40
1
 40
1
 40
1
 10
95.136365
 20
182.037805
 30
0.0
 10
95.193583
 20
181.951976
 30
0.0
 10
95.222195
 20
181.923364
 30
0.0
 10
95.422462
 20
181.904291
 30
0.0
  0
LINE
  5
2ad
100
AcDbEntity
  8
Layer_1
 62
7
100
AcDbLine
 10
95.422462
 20
181.904291
 30
0.0
 11
95.479683
 21
181.904291
 31
0.0
  0
SPLINE
  5
2ae
100
AcDbEntity
  8
Layer_1
 62
7
100
AcDbSpline
 70
8
 71
3
 72
8
 73
4
 74
0
 40
0
 40
0
 40
0
 40
0
 40
1
 40
1
 40
1
 40
1
 10
95.479683
 20
181.904291
 30
0.0
 10
95.546440
 20
181.894752
 30
0.0
 10
95.899297
 20
182.047341
 30
0.0
 10
95.966051
 20
182.123634
 30
0.0
  0
LINE
  5
2af
100
AcDbEntity
  8
Layer_1
 62
7
100
AcDbLine
 10
95.966051
 20
182.123634
 30
0.0
 11
95.956512
 21
182.123634
 31
0.0
  0
SPLINE
  5
2b0
100
AcDbEntity
  8
Layer_1
 62
7
100
AcDbSpline
 70
8
 71
3
 72
8
 73
4
 74
0
 40
0
 40
0
 40
0
 40
0
 40
1
 40
1
 40
1
 40
1
 10
95.956512
 20
182.123634
 30
0.0
 10
96.061416
 20
182.228536
 30
0.0
 10
96.233075
 20
182.228536
 30
0.0
 10
96.337977
 20
182.123634
 30
0.0
  0
SPLINE
  5
2b1
100
AcDbEntity
  8
Layer_1
 62
7
100
AcDbSpline
 70
8
 71
3
 72
8
 73
4
 74
0
 40
0
 40
0
 40
0
 40
0
 40
1
 40
1
 40
1
 40
1
 10
96.337977
 20
182.123634
 30
0.0
 10
96.442882
 20
182.028269
 30
0.0
 10
96.442882
 20
181.856610
 30
0.0
 10
96.337977
 20
181.751705
 30
0.0
  0
SPLINE
  5
2b2
100
AcDbEntity
  8
Layer_1
 62
7
100
AcDbSpline
 70
8
 71
3
 72
8
 73
4
 74
0
 40
0
 40
0
 40
0
 40
0
 40
1
 40
1
 40
1
 40
1
 10
96.337977
 20
181.751705
 30
0.0
 10
96.109098
 20
181.541898
 30
0.0
 10
95.832537
 20
181.417924
 30
0.0
 10
95.546437
 20
181.379776
 30
0.0
  0
LINE
  5
2b3
100
AcDbEntity
  8
Layer_1
 62
7
100
AcDbLine
 10
95.546437
 20
181.379776
 30
0.0
 11
95.393851
 21
181.379776
 31
0.0
  0
SPLINE
  5
2b4
100
AcDbEntity
  8
Layer_1
 62
7
100
AcDbSpline
 70
8
 71
3
 72
8
 73
4
 74
0
 40
0
 40
0
 40
0
 40
0
 40
1
 40
1
 40
1
 40
1
 10
95.393851
 20
181.379776
 30
0.0
 10
95.384312
 20
181.370237
 30
0.0
 10
95.384312
 20
181.370237
 30
0.0
 10
95.393851
 20
181.370237
 30
0.0
  0
SPLINE
  5
2b5
100
AcDbEntity
  8
Layer_1
 62
7
100
AcDbSpline
 70
8
 71
3
 72
8
 73
4
 74
0
 40
0
 40
0
 40
0
 40
0
 40
1
 40
1
 40
1
 40
1
 10
95.393851
 20
181.370237
 30
0.0
 10
95.031458
 20
181.370237
 30
0.0
 10
94.754897
 20
181.599116
 30
0.0
 10
94.659528
 20
181.818459
 30
0.0
  0
SPLINE
  5
2b6
100
AcDbEntity
  8
Layer_1
 62
7
100
AcDbSpline
 70
8
 71
3
 72
8
 73
4
 74
0
 40
0
 40
0
 40
0
 40
0
 40
1
 40
1
 40
1
 40
1
 10
94.659528
 20
181.818459
 30
0.0
 10
94.535554
 20
182.037802
 30
0.0
 10
94.535554
 20
182.266682
 30
0.0
 10
94.535554
 20
182.390659
 30
0.0
  0
LINE
  5
2b7
100
AcDbEntity
  8
Layer_1
 62
7
100
AcDbLine
 10
94.535554
 20
182.390659
 30
0.0
 11
94.535554
 21
185.079991
 31
0.0
  0
LINE
  5
2b8
100
AcDbEntity
  8
Layer_1
 62
7
100
AcDbLine
 10
94.535554
 20
185.079991
 30
0.0
 11
94.096867
 21
185.079991
 31
0.0
  0
LINE
  5
2b9
100
AcDbEntity
  8
Layer_1
 62
7
100
AcDbLine
 10
94.096867
 20
185.079991
 30
0.0
 11
94.096876
 21
185.079994
 31
0.0
  0
SPLINE
  5
2ba
100
AcDbEntity
  8
Layer_1
 62
7
100
AcDbSpline
 70
8
 71
3
 72
8
 73
4
 74
0
 40
0
 40
0
 40
0
 40
0
 40
1
 40
1
 40
1
 40
1
 10
45.116605
 20
101.228021
 30
0.0
 10
45.035066
 20
101.228021
 30
0.0
 10
44.959797
 20
101.290742
 30
0.0
 10
44.959797
 20
101.384827
 30
0.0
  0
SPLINE
  5
2bb
100
AcDbEntity
  8
Layer_1
 62
7
100
AcDbSpline
 70
8
 71
3
 72
8
 73
4
 74
0
 40
0
 40
0
 40
0
 40
0
 40
1
 40
1
 40
1
 40
1
 10
44.959797
 20
101.384827
 30
0.0
 10
44.959797
 20
101.466366
 30
0.0
 10
45.035066
 20
101.535361
 30
0.0
 10
45.116605
 20
101.535361
 30
0.0
  0
LINE
  5
2bc
100
AcDbEntity
  8
Layer_1
 62
7
100
AcDbLine
 10
45.116605
 20
101.535361
 30
0.0
 11
45.405129
 21
101.535361
 31
0.0
  0
LINE
  5
2bd
100
AcDbEntity
  8
Layer_1
 62
7
100
AcDbLine
 10
45.405129
 20
101.535361
 30
0.0
 11
45.411395
 21
102.476203
 31
0.0
  0
SPLINE
  5
2be
100
AcDbEntity
  8
Layer_1
 62
7
100
AcDbSpline
 70
8
 71
3
 72
8
 73
4
 74
0
 40
0
 40
0
 40
0
 40
0
 40
1
 40
1
 40
1
 40
1
 10
45.411395
 20
102.476203
 30
0.0
 10
45.411395
 20
102.570287
 30
0.0
 10
45.492934
 20
102.645556
 30
0.0
 10
45.580748
 20
102.645556
 30
0.0
  0
SPLINE
  5
2bf
100
AcDbEntity
  8
Layer_1
 62
7
100
AcDbSpline
 70
8
 71
3
 72
8
 73
4
 74
0
 40
0
 40
0
 40
0
 40
0
 40
1
 40
1
 40
1
 40
1
 10
45.580748
 20
102.645556
 30
0.0
 10
45.674832
 20
102.645556
 30
0.0
 10
45.762643
 20
102.564016
 30
0.0
 10
45.762643
 20
102.469932
 30
0.0
  0
LINE
  5
2c0
100
AcDbEntity
  8
Layer_1
 62
7
100
AcDbLine
 10
45.762643
 20
102.469932
 30
0.0
 11
45.750112
 21
101.535361
 31
0.0
  0
LINE
  5
2c1
100
AcDbEntity
  8
Layer_1
 62
7
100
AcDbLine
 10
45.750112
 20
101.535361
 30
0.0
 11
46.402429
 21
101.535361
 31
0.0
  0
SPLINE
  5
2c2
100
AcDbEntity
  8
Layer_1
 62
7
100
AcDbSpline
 70
8
 71
3
 72
8
 73
4
 74
0
 40
0
 40
0
 40
0
 40
0
 40
1
 40
1
 40
1
 40
1
 10
46.402429
 20
101.535361
 30
0.0
 10
46.490243
 20
101.535361
 30
0.0
 10
46.559238
 20
101.466366
 30
0.0
 10
46.559238
 20
101.384827
 30
0.0
  0
SPLINE
  5
2c3
100
AcDbEntity
  8
Layer_1
 62
7
100
AcDbSpline
 70
8
 71
3
 72
8
 73
4
 74
0
 40
0
 40
0
 40
0
 40
0
 40
1
 40
1
 40
1
 40
1
 10
46.559238
 20
101.384827
 30
0.0
 10
46.559238
 20
101.290742
 30
0.0
 10
46.490243
 20
101.228021
 30
0.0
 10
46.402429
 20
101.228021
 30
0.0
  0
LINE
  5
2c4
100
AcDbEntity
  8
Layer_1
 62
7
100
AcDbLine
 10
46.402429
 20
101.228021
 30
0.0
 11
45.750112
 21
101.228021
 31
0.0
  0
LINE
  5
2c5
100
AcDbEntity
  8
Layer_1
 62
7
100
AcDbLine
 10
45.750112
 20
101.228021
 30
0.0
 11
45.737553
 21
99.484325
 31
0.0
  0
SPLINE
  5
2c6
100
AcDbEntity
  8
Layer_1
 62
7
100
AcDbSpline
 70
8
 71
3
 72
8
 73
4
 74
0
 40
0
 40
0
 40
0
 40
0
 40
1
 40
1
 40
1
 40
1
 10
45.737553
 20
99.484325
 30
0.0
 10
45.737553
 20
99.421604
 30
0.0
 10
45.750112
 20
99.302430
 30
0.0
 10
45.781462
 20
99.252251
 30
0.0
  0
SPLINE
  5
2c7
100
AcDbEntity
  8
Layer_1
 62
7
100
AcDbSpline
 70
8
 71
3
 72
8
 73
4
 74
0
 40
0
 40
0
 40
0
 40
0
 40
1
 40
1
 40
1
 40
1
 10
45.781462
 20
99.252251
 30
0.0
 10
45.787727
 20
99.245986
 30
0.0
 10
45.793992
 20
99.233427
 30
0.0
 10
45.800286
 20
99.227162
 30
0.0
  0
SPLINE
  5
2c8
100
AcDbEntity
  8
Layer_1
 62
7
100
AcDbSpline
 70
8
 71
3
 72
8
 73
4
 74
0
 40
0
 40
0
 40
0
 40
0
 40
1
 40
1
 40
1
 40
1
 10
45.800286
 20
99.227162
 30
0.0
 10
45.837920
 20
99.170709
 30
0.0
 10
45.856736
 20
99.151893
 30
0.0
 10
45.988455
 20
99.139348
 30
0.0
  0
LINE
  5
2c9
100
AcDbEntity
  8
Layer_1
 62
7
100
AcDbLine
 10
45.988455
 20
99.139348
 30
0.0
 11
46.026086
 21
99.139348
 31
0.0
  0
SPLINE
  5
2ca
100
AcDbEntity
  8
Layer_1
 62
7
100
AcDbSpline
 70
8
 71
3
 72
8
 73
4
 74
0
 40
0
 40
0
 40
0
 40
0
 40
1
 40
1
 40
1
 40
1
 10
46.026086
 20
99.139348
 30
0.0
 10
46.069994
 20
99.133083
 30
0.0
 10
46.302068
 20
99.233433
 30
0.0
 10
46.345974
 20
99.283612
 30
0.0
  0
LINE
  5
2cb
100
AcDbEntity
  8
Layer_1
 62
7
100
AcDbLine
 10
46.345974
 20
99.283612
 30
0.0
 11
46.339708
 21
99.283612
 31
0.0
  0
SPLINE
  5
2cc
100
AcDbEntity
  8
Layer_1
 62
7
100
AcDbSpline
 70
8
 71
3
 72
8
 73
4
 74
0
 40
0
 40
0
 40
0
 40
0
 40
1
 40
1
 40
1
 40
1
 10
46.339708
 20
99.283612
 30
0.0
 10
46.408703
 20
99.352607
 30
0.0
 10
46.521603
 20
99.352607
 30
0.0
 10
46.590598
 20
99.283612
 30
0.0
  0
SPLINE
  5
2cd
100
AcDbEntity
  8
Layer_1
 62
7
100
AcDbSpline
 70
8
 71
3
 72
8
 73
4
 74
0
 40
0
 40
0
 40
0
 40
0
 40
1
 40
1
 40
1
 40
1
 10
46.590598
 20
99.283612
 30
0.0
 10
46.659593
 20
99.220888
 30
0.0
 10
46.659593
 20
99.107988
 30
0.0
 10
46.590598
 20
99.038993
 30
0.0
  0
SPLINE
  5
2ce
100
AcDbEntity
  8
Layer_1
 62
7
100
AcDbSpline
 70
8
 71
3
 72
8
 73
4
 74
0
 40
0
 40
0
 40
0
 40
0
 40
1
 40
1
 40
1
 40
1
 10
46.590598
 20
99.038993
 30
0.0
 10
46.440064
 20
98.901003
 30
0.0
 10
46.258169
 20
98.819463
 30
0.0
 10
46.070000
 20
98.794374
 30
0.0
  0
LINE
  5
2cf
100
AcDbEntity
  8
Layer_1
 62
7
100
AcDbLine
 10
46.070000
 20
98.794374
 30
0.0
 11
45.969642
 21
98.794374
 31
0.0
  0
SPLINE
  5
2d0
100
AcDbEntity
  8
Layer_1
 62
7
100
AcDbSpline
 70
8
 71
3
 72
8
 73
4
 74
0
 40
0
 40
0
 40
0
 40
0
 40
1
 40
1
 40
1
 40
1
 10
45.969642
 20
98.794374
 30
0.0
 10
45.963376
 20
98.788108
 30
0.0
 10
45.963376
 20
98.788108
 30
0.0
 10
45.969642
 20
98.788108
 30
0.0
  0
SPLINE
  5
2d1
100
AcDbEntity
  8
Layer_1
 62
7
100
AcDbSpline
 70
8
 71
3
 72
8
 73
4
 74
0
 40
0
 40
0
 40
0
 40
0
 40
1
 40
1
 40
1
 40
1
 10
45.969642
 20
98.788108
 30
0.0
 10
45.731297
 20
98.788108
 30
0.0
 10
45.549399
 20
98.938643
 30
0.0
 10
45.486678
 20
99.082906
 30
0.0
  0
SPLINE
  5
2d2
100
AcDbEntity
  8
Layer_1
 62
7
100
AcDbSpline
 70
8
 71
3
 72
8
 73
4
 74
0
 40
0
 40
0
 40
0
 40
0
 40
1
 40
1
 40
1
 40
1
 10
45.486678
 20
99.082906
 30
0.0
 10
45.405138
 20
99.227170
 30
0.0
 10
45.405138
 20
99.377705
 30
0.0
 10
45.405138
 20
99.459244
 30
0.0
  0
LINE
  5
2d3
100
AcDbEntity
  8
Layer_1
 62
7
100
AcDbLine
 10
45.405138
 20
99.459244
 30
0.0
 11
45.405138
 21
101.228027
 31
0.0
  0
LINE
  5
2d4
100
AcDbEntity
  8
Layer_1
 62
7
100
AcDbLine
 10
45.405138
 20
101.228027
 30
0.0
 11
45.116614
 21
101.228027
 31
0.0
  0
LINE
  5
2d5
100
AcDbEntity
  8
Layer_1
 62
7
100
AcDbLine
 10
45.116614
 20
101.228027
 30
0.0
 11
45.116605
 21
101.228021
 31
0.0
  0
SPLINE
  5
2d6
100
AcDbEntity
  8
Layer_1
 62
7
100
AcDbSpline
 70
8
 71
3
 72
8
 73
4
 74
0
 40
0
 40
0
 40
0
 40
0
 40
1
 40
1
 40
1
 40
1
 10
48.661813
 20
100.073921
 30
0.0
 10
48.310565
 20
100.011197
 30
0.0
 10
48.160030
 20
99.860663
 30
0.0
 10
48.147486
 20
99.553323
 30
0.0
  0
SPLINE
  5
2d7
100
AcDbEntity
  8
Layer_1
 62
7
100
AcDbSpline
 70
8
 71
3
 72
8
 73
4
 74
0
 40
0
 40
0
 40
0
 40
0
 40
1
 40
1
 40
1
 40
1
 10
48.147486
 20
99.553323
 30
0.0
 10
48.153751
 20
99.176985
 30
0.0
 10
48.341928
 20
99.139351
 30
0.0
 10
48.530097
 20
99.114261
 30
0.0
  0
LINE
  5
2d8
100
AcDbEntity
  8
Layer_1
 62
7
100
AcDbLine
 10
48.530097
 20
99.114261
 30
0.0
 11
48.580273
 21
99.114261
 31
0.0
  0
SPLINE
  5
2d9
100
AcDbEntity
  8
Layer_1
 62
7
100
AcDbSpline
 70
8
 71
3
 72
8
 73
4
 74
0
 40
0
 40
0
 40
0
 40
0
 40
1
 40
1
 40
1
 40
1
 10
48.580273
 20
99.114261
 30
0.0
 10
48.599098
 20
99.114261
 30
0.0
 10
48.624179
 20
99.120527
 30
0.0
 10
48.642997
 20
99.120527
 30
0.0
  0
SPLINE
  5
2da
100
AcDbEntity
  8
Layer_1
 62
7
100
AcDbSpline
 70
8
 71
3
 72
8
 73
4
 74
0
 40
0
 40
0
 40
0
 40
0
 40
1
 40
1
 40
1
 40
1
 10
48.642997
 20
99.120527
 30
0.0
 10
48.774716
 20
99.133057
 30
0.0
 10
48.881342
 20
99.151887
 30
0.0
 10
48.981701
 20
99.252243
 30
0.0
  0
SPLINE
  5
2db
100
AcDbEntity
  8
Layer_1
 62
7
100
AcDbSpline
 70
8
 71
3
 72
8
 73
4
 74
0
 40
0
 40
0
 40
0
 40
0
 40
1
 40
1
 40
1
 40
1
 10
48.981701
 20
99.252243
 30
0.0
 10
49.044422
 20
99.314967
 30
0.0
 10
49.069511
 20
99.352601
 30
0.0
 10
49.094601
 20
99.396506
 30
0.0
  0
LINE
  5
2dc
100
AcDbEntity
  8
Layer_1
 62
7
100
AcDbLine
 10
49.094601
 20
99.396506
 30
0.0
 11
49.094601
 21
100.124092
 31
0.0
  0
SPLINE
  5
2dd
100
AcDbEntity
  8
Layer_1
 62
7
100
AcDbSpline
 70
8
 71
3
 72
8
 73
4
 74
0
 40
0
 40
0
 40
0
 40
0
 40
1
 40
1
 40
1
 40
1
 10
49.094601
 20
100.124092
 30
0.0
 10
48.806077
 20
100.117827
 30
0.0
 10
48.818621
 20
100.099002
 30
0.0
 10
48.661813
 20
100.073913
 30
0.0
  0
LINE
  5
2de
100
AcDbEntity
  8
Layer_1
 62
7
100
AcDbLine
 10
48.661813
 20
100.073913
 30
0.0
 11
48.661813
 21
100.073921
 31
0.0
  0
SPLINE
  5
2df
100
AcDbEntity
  8
Layer_1
 62
7
100
AcDbSpline
 70
8
 71
3
 72
8
 73
4
 74
0
 40
0
 40
0
 40
0
 40
0
 40
1
 40
1
 40
1
 40
1
 10
48.047130
 20
98.944911
 30
0.0
 10
47.896596
 20
99.064085
 30
0.0
 10
47.789967
 20
99.271070
 30
0.0
 10
47.789967
 20
99.534504
 30
0.0
  0
LINE
  5
2e0
100
AcDbEntity
  8
Layer_1
 62
7
100
AcDbLine
 10
47.789967
 20
99.534504
 30
0.0
 11
47.789967
 21
99.565865
 31
0.0
  0
SPLINE
  5
2e1
100
AcDbEntity
  8
Layer_1
 62
7
100
AcDbSpline
 70
8
 71
3
 72
8
 73
4
 74
0
 40
0
 40
0
 40
0
 40
0
 40
1
 40
1
 40
1
 40
1
 10
47.789967
 20
99.565865
 30
0.0
 10
47.821327
 20
100.324811
 30
0.0
 10
48.542639
 20
100.368717
 30
0.0
 10
48.862527
 20
100.412625
 30
0.0
  0
SPLINE
  5
2e2
100
AcDbEntity
  8
Layer_1
 62
7
100
AcDbSpline
 70
8
 71
3
 72
8
 73
4
 74
0
 40
0
 40
0
 40
0
 40
0
 40
1
 40
1
 40
1
 40
1
 10
48.862527
 20
100.412625
 30
0.0
 10
48.937795
 20
100.425155
 30
0.0
 10
48.962882
 20
100.412625
 30
0.0
 10
49.082056
 20
100.456530
 30
0.0
  0
SPLINE
  5
2e3
100
AcDbEntity
  8
Layer_1
 62
7
100
AcDbSpline
 70
8
 71
3
 72
8
 73
4
 74
0
 40
0
 40
0
 40
0
 40
0
 40
1
 40
1
 40
1
 40
1
 10
49.082056
 20
100.456530
 30
0.0
 10
49.082056
 20
100.487891
 30
0.0
 10
49.082056
 20
100.519254
 30
0.0
 10
49.088321
 20
100.531796
 30
0.0
  0
SPLINE
  5
2e4
100
AcDbEntity
  8
Layer_1
 62
7
100
AcDbSpline
 70
8
 71
3
 72
8
 73
4
 74
0
 40
0
 40
0
 40
0
 40
0
 40
1
 40
1
 40
1
 40
1
 10
49.088321
 20
100.531796
 30
0.0
 10
49.088321
 20
100.945768
 30
0.0
 10
49.088321
 20
100.964584
 30
0.0
 10
49.088321
 20
100.977128
 30
0.0
  0
SPLINE
  5
2e5
100
AcDbEntity
  8
Layer_1
 62
7
100
AcDbSpline
 70
8
 71
3
 72
8
 73
4
 74
0
 40
0
 40
0
 40
0
 40
0
 40
1
 40
1
 40
1
 40
1
 10
49.088321
 20
100.977128
 30
0.0
 10
49.082056
 20
101.077487
 30
0.0
 10
49.063232
 20
101.221747
 30
0.0
 10
48.674349
 20
101.234292
 30
0.0
  0
SPLINE
  5
2e6
100
AcDbEntity
  8
Layer_1
 62
7
100
AcDbSpline
 70
8
 71
3
 72
8
 73
4
 74
0
 40
0
 40
0
 40
0
 40
0
 40
1
 40
1
 40
1
 40
1
 10
48.674349
 20
101.234292
 30
0.0
 10
48.498725
 20
101.234292
 30
0.0
 10
48.398370
 20
101.177842
 30
0.0
 10
48.329375
 20
101.115118
 30
0.0
  0
SPLINE
  5
2e7
100
AcDbEntity
  8
Layer_1
 62
7
100
AcDbSpline
 70
8
 71
3
 72
8
 73
4
 74
0
 40
0
 40
0
 40
0
 40
0
 40
1
 40
1
 40
1
 40
1
 10
48.329375
 20
101.115118
 30
0.0
 10
48.260380
 20
101.071213
 30
0.0
 10
48.229017
 20
101.008489
 30
0.0
 10
48.229017
 20
101.008489
 30
0.0
  0
SPLINE
  5
2e8
100
AcDbEntity
  8
Layer_1
 62
7
100
AcDbSpline
 70
8
 71
3
 72
8
 73
4
 74
0
 40
0
 40
0
 40
0
 40
0
 40
1
 40
1
 40
1
 40
1
 10
48.229017
 20
101.008489
 30
0.0
 10
48.185111
 20
100.926952
 30
0.0
 10
48.078482
 20
100.895589
 30
0.0
 10
47.990672
 20
100.945768
 30
0.0
  0
SPLINE
  5
2e9
100
AcDbEntity
  8
Layer_1
 62
7
100
AcDbSpline
 70
8
 71
3
 72
8
 73
4
 74
0
 40
0
 40
0
 40
0
 40
0
 40
1
 40
1
 40
1
 40
1
 10
47.990672
 20
100.945768
 30
0.0
 10
47.909132
 20
100.989673
 30
0.0
 10
47.877771
 20
101.096302
 30
0.0
 10
47.921677
 20
101.184113
 30
0.0
  0
SPLINE
  5
2ea
100
AcDbEntity
  8
Layer_1
 62
7
100
AcDbSpline
 70
8
 71
3
 72
8
 73
4
 74
0
 40
0
 40
0
 40
0
 40
0
 40
1
 40
1
 40
1
 40
1
 10
47.921677
 20
101.184113
 30
0.0
 10
47.934207
 20
101.209203
 30
0.0
 10
48.160022
 20
101.579266
 30
0.0
 10
48.674349
 20
101.585540
 30
0.0
  0
SPLINE
  5
2eb
100
AcDbEntity
  8
Layer_1
 62
7
100
AcDbSpline
 70
8
 71
3
 72
8
 73
4
 74
0
 40
0
 40
0
 40
0
 40
0
 40
1
 40
1
 40
1
 40
1
 10
48.674349
 20
101.585540
 30
0.0
 10
48.975418
 20
101.585540
 30
0.0
 10
49.207493
 20
101.472640
 30
0.0
 10
49.320396
 20
101.315832
 30
0.0
  0
SPLINE
  5
2ec
100
AcDbEntity
  8
Layer_1
 62
7
100
AcDbSpline
 70
8
 71
3
 72
8
 73
4
 74
0
 40
0
 40
0
 40
0
 40
0
 40
1
 40
1
 40
1
 40
1
 10
49.320396
 20
101.315832
 30
0.0
 10
49.427022
 20
101.165297
 30
0.0
 10
49.445840
 20
101.002218
 30
0.0
 10
49.445840
 20
100.920678
 30
0.0
  0
LINE
  5
2ed
100
AcDbEntity
  8
Layer_1
 62
7
100
AcDbLine
 10
49.445840
 20
100.920678
 30
0.0
 11
49.452106
 21
98.907277
 31
0.0
  0
SPLINE
  5
2ee
100
AcDbEntity
  8
Layer_1
 62
7
100
AcDbSpline
 70
8
 71
3
 72
8
 73
4
 74
0
 40
0
 40
0
 40
0
 40
0
 40
1
 40
1
 40
1
 40
1
 10
49.452106
 20
98.907277
 30
0.0
 10
49.458371
 20
98.813192
 30
0.0
 10
49.370566
 20
98.769287
 30
0.0
 10
49.276482
 20
98.763013
 30
0.0
  0
SPLINE
  5
2ef
100
AcDbEntity
  8
Layer_1
 62
7
100
AcDbSpline
 70
8
 71
3
 72
8
 73
4
 74
0
 40
0
 40
0
 40
0
 40
0
 40
1
 40
1
 40
1
 40
1
 10
49.276482
 20
98.763013
 30
0.0
 10
49.201216
 20
98.763013
 30
0.0
 10
49.119676
 20
98.825737
 30
0.0
 10
49.088316
 20
98.951182
 30
0.0
  0
SPLINE
  5
2f0
100
AcDbEntity
  8
Layer_1
 62
7
100
AcDbSpline
 70
8
 71
3
 72
8
 73
4
 74
0
 40
0
 40
0
 40
0
 40
0
 40
1
 40
1
 40
1
 40
1
 10
49.088316
 20
98.951182
 30
0.0
 10
48.937781
 20
98.869642
 30
0.0
 10
48.780973
 20
98.800648
 30
0.0
 10
48.624165
 20
98.775558
 30
0.0
  0
LINE
  5
2f1
100
AcDbEntity
  8
Layer_1
 62
7
100
AcDbLine
 10
48.624165
 20
98.775558
 30
0.0
 11
48.542625
 21
98.775558
 31
0.0
  0
SPLINE
  5
2f2
100
AcDbEntity
  8
Layer_1
 62
7
100
AcDbSpline
 70
8
 71
3
 72
8
 73
4
 74
0
 40
0
 40
0
 40
0
 40
0
 40
1
 40
1
 40
1
 40
1
 10
48.542625
 20
98.775558
 30
0.0
 10
48.392090
 20
98.775558
 30
0.0
 10
48.210195
 20
98.813192
 30
0.0
 10
48.047116
 20
98.944911
 30
0.0
  0
LINE
  5
2f3
100
AcDbEntity
  8
Layer_1
 62
7
100
AcDbLine
 10
48.047116
 20
98.944911
 30
0.0
 11
48.047130
 21
98.944911
 31
0.0
  0
SPLINE
  5
2f4
100
AcDbEntity
  8
Layer_1
 62
7
100
AcDbSpline
 70
8
 71
3
 72
8
 73
4
 74
0
 40
0
 40
0
 40
0
 40
0
 40
1
 40
1
 40
1
 40
1
 10
50.858484
 20
99.340065
 30
0.0
 10
51.027834
 20
99.214620
 30
0.0
 10
51.209732
 20
99.158170
 30
0.0
 10
51.379082
 20
99.158170
 30
0.0
  0
LINE
  5
2f5
100
AcDbEntity
  8
Layer_1
 62
7
100
AcDbLine
 10
51.379082
 20
99.158170
 30
0.0
 11
51.460622
 21
99.158170
 31
0.0
  0
SPLINE
  5
2f6
100
AcDbEntity
  8
Layer_1
 62
7
100
AcDbSpline
 70
8
 71
3
 72
8
 73
4
 74
0
 40
0
 40
0
 40
0
 40
0
 40
1
 40
1
 40
1
 40
1
 10
51.460622
 20
99.158170
 30
0.0
 10
51.736602
 20
99.233435
 30
0.0
 10
52.006310
 20
99.427875
 30
0.0
 10
52.012584
 20
100.199366
 30
0.0
  0
SPLINE
  5
2f7
100
AcDbEntity
  8
Layer_1
 62
7
100
AcDbSpline
 70
8
 71
3
 72
8
 73
4
 74
0
 40
0
 40
0
 40
0
 40
0
 40
1
 40
1
 40
1
 40
1
 10
52.012584
 20
100.199366
 30
0.0
 10
52.012584
 20
100.475346
 30
0.0
 10
52.012584
 20
101.184113
 30
0.0
 10
51.441806
 20
101.184113
 30
0.0
  0
SPLINE
  5
2f8
100
AcDbEntity
  8
Layer_1
 62
7
100
AcDbSpline
 70
8
 71
3
 72
8
 73
4
 74
0
 40
0
 40
0
 40
0
 40
0
 40
1
 40
1
 40
1
 40
1
 10
51.441806
 20
101.184113
 30
0.0
 10
51.184643
 20
101.184113
 30
0.0
 10
50.990200
 20
101.096302
 30
0.0
 10
50.858484
 20
100.952039
 30
0.0
  0
LINE
  5
2f9
100
AcDbEntity
  8
Layer_1
 62
7
100
AcDbLine
 10
50.858484
 20
100.952039
 30
0.0
 11
50.858484
 21
100.061377
 31
0.0
  0
LINE
  5
2fa
100
AcDbEntity
  8
Layer_1
 62
7
100
AcDbLine
 10
50.858484
 20
100.061377
 30
0.0
 11
50.858484
 21
99.340065
 31
0.0
  0
LINE
  5
2fb
100
AcDbEntity
  8
Layer_1
 62
7
100
AcDbLine
 10
50.858484
 20
99.340065
 30
0.0
 11
50.858484
 21
99.340065
 31
0.0
  0
SPLINE
  5
2fc
100
AcDbEntity
  8
Layer_1
 62
7
100
AcDbSpline
 70
8
 71
3
 72
8
 73
4
 74
0
 40
0
 40
0
 40
0
 40
0
 40
1
 40
1
 40
1
 40
1
 10
50.500962
 20
101.202932
 30
0.0
 10
50.494697
 20
101.384827
 30
0.0
 10
50.557415
 20
101.497727
 30
0.0
 10
50.670315
 20
101.516545
 30
0.0
  0
SPLINE
  5
2fd
100
AcDbEntity
  8
Layer_1
 62
7
100
AcDbSpline
 70
8
 71
3
 72
8
 73
4
 74
0
 40
0
 40
0
 40
0
 40
0
 40
1
 40
1
 40
1
 40
1
 10
50.670315
 20
101.516545
 30
0.0
 10
50.739310
 20
101.516545
 30
0.0
 10
50.814576
 20
101.466366
 30
0.0
 10
50.877300
 20
101.378556
 30
0.0
  0
SPLINE
  5
2fe
100
AcDbEntity
  8
Layer_1
 62
7
100
AcDbSpline
 70
8
 71
3
 72
8
 73
4
 74
0
 40
0
 40
0
 40
0
 40
0
 40
1
 40
1
 40
1
 40
1
 10
50.877300
 20
101.378556
 30
0.0
 10
51.046653
 20
101.485185
 30
0.0
 10
51.222274
 20
101.579266
 30
0.0
 10
51.429262
 20
101.572995
 30
0.0
  0
SPLINE
  5
2ff
100
AcDbEntity
  8
Layer_1
 62
7
100
AcDbSpline
 70
8
 71
3
 72
8
 73
4
 74
0
 40
0
 40
0
 40
0
 40
0
 40
1
 40
1
 40
1
 40
1
 10
51.429262
 20
101.572995
 30
0.0
 10
52.301108
 20
101.541635
 30
0.0
 10
52.376374
 20
100.701149
 30
0.0
 10
52.376374
 20
100.230727
 30
0.0
  0
SPLINE
  5
300
100
AcDbEntity
  8
Layer_1
 62
7
100
AcDbSpline
 70
8
 71
3
 72
8
 73
4
 74
0
 40
0
 40
0
 40
0
 40
0
 40
1
 40
1
 40
1
 40
1
 10
52.376374
 20
100.230727
 30
0.0
 10
52.382639
 20
99.258525
 30
0.0
 10
51.931044
 20
98.819466
 30
0.0
 10
51.473167
 20
98.800648
 30
0.0
  0
SPLINE
  5
301
100
AcDbEntity
  8
Layer_1
 62
7
100
AcDbSpline
 70
8
 71
3
 72
8
 73
4
 74
0
 40
0
 40
0
 40
0
 40
0
 40
1
 40
1
 40
1
 40
1
 10
51.473167
 20
98.800648
 30
0.0
 10
51.435533
 20
98.794382
 30
0.0
 10
51.391627
 20
98.788117
 30
0.0
 10
51.372811
 20
98.788117
 30
0.0
  0
SPLINE
  5
302
100
AcDbEntity
  8
Layer_1
 62
7
100
AcDbSpline
 70
8
 71
3
 72
8
 73
4
 74
0
 40
0
 40
0
 40
0
 40
0
 40
1
 40
1
 40
1
 40
1
 10
51.372811
 20
98.788117
 30
0.0
 10
51.222274
 20
98.794382
 30
0.0
 10
51.109374
 20
98.850841
 30
0.0
 10
50.983929
 20
98.894746
 30
0.0
  0
LINE
  5
303
100
AcDbEntity
  8
Layer_1
 62
7
100
AcDbLine
 10
50.983929
 20
98.894746
 30
0.0
 11
50.845939
 21
98.970015
 31
0.0
  0
LINE
  5
304
100
AcDbEntity
  8
Layer_1
 62
7
100
AcDbLine
 10
50.845939
 20
98.970015
 30
0.0
 11
50.845939
 21
97.909999
 31
0.0
  0
SPLINE
  5
305
100
AcDbEntity
  8
Layer_1
 62
7
100
AcDbSpline
 70
8
 71
3
 72
8
 73
4
 74
0
 40
0
 40
0
 40
0
 40
0
 40
1
 40
1
 40
1
 40
1
 10
50.845939
 20
97.909999
 30
0.0
 10
50.845939
 20
97.797096
 30
0.0
 10
50.776944
 20
97.715557
 30
0.0
 10
50.682860
 20
97.715557
 30
0.0
  0
SPLINE
  5
306
100
AcDbEntity
  8
Layer_1
 62
7
100
AcDbSpline
 70
8
 71
3
 72
8
 73
4
 74
0
 40
0
 40
0
 40
0
 40
0
 40
1
 40
1
 40
1
 40
1
 10
50.682860
 20
97.715557
 30
0.0
 10
50.576231
 20
97.715557
 30
0.0
 10
50.494691
 20
97.803370
 30
0.0
 10
50.494691
 20
97.909999
 30
0.0
  0
LINE
  5
307
100
AcDbEntity
  8
Layer_1
 62
7
100
AcDbLine
 10
50.494691
 20
97.909999
 30
0.0
 11
50.500956
 21
101.202946
 31
0.0
  0
LINE
  5
308
100
AcDbEntity
  8
Layer_1
 62
7
100
AcDbLine
 10
50.500956
 20
101.202946
 30
0.0
 11
50.500962
 21
101.202932
 31
0.0
  0
LINE
  5
309
100
AcDbEntity
  8
Layer_1
 62
1
100
AcDbLine
 10
4.151745
 20
49.109208
 30
0.0
 11
146.151747
 21
49.109208
 31
0.0
  0
LINE
  5
30a
100
AcDbEntity
  8
Layer_1
 62
1
100
AcDbLine
 10
146.151747
 20
49.109208
 30
0.0
 11
146.151747
 21
9.109203
 31
0.0
  0
LINE
  5
30b
100
AcDbEntity
  8
Layer_1
 62
1
100
AcDbLine
 10
146.151747
 20
9.109203
 30
0.0
 11
4.151745
 21
9.109203
 31
0.0
  0
LINE
  5
30c
100
AcDbEntity
  8
Layer_1
 62
1
100
AcDbLine
 10
4.151745
 20
9.109203
 30
0.0
 11
4.151745
 21
49.109208
 31
0.0
  0
LINE
  5
30d
100
AcDbEntity
  8
Layer_1
 62
1
100
AcDbLine
 10
4.151745
 20
49.109208
 30
0.0
 11
4.151745
 21
49.109208
 31
0.0
  0
ENDSEC
  0
SECTION
  2
OBJECTS
  0
DICTIONARY
  5
C
330
0
100
AcDbDictionary
  3
ACAD_GROUP
350
D
  3
ACAD_MLINESTYLE
350
17
  0
DICTIONARY
  5
D
330
C
100
AcDbDictionary
  0
DICTIONARY
  5
1A
330
C
100
AcDbDictionary
  0
DICTIONARY
  5
17
330
C
100
AcDbDictionary
  3
STANDARD
350
18
  0
DICTIONARY
  5
19
330
C
100
AcDbDictionary
  0
ENDSEC
  0
EOF
